<svg width="475" height="485" viewBox="0 0 475 485" fill="none" xmlns="http://www.w3.org/2000/svg">
<g clip-path="url(#clip0_108_964)">
<mask id="mask0_108_964" style="mask-type:luminance" maskUnits="userSpaceOnUse" x="0" y="0" width="475" height="485">
<path d="M475 0H0V484.15H475V0Z" fill="white"/>
</mask>
<g mask="url(#mask0_108_964)">
<path d="M237.5 484.15C368.667 484.15 475 473.15 475 459.583C475 446.015 368.667 435.016 237.5 435.016C106.332 435.016 0 446.015 0 459.583C0 473.15 106.332 484.15 237.5 484.15Z" fill="black"/>
<path d="M408.092 111.512C408.715 106.874 402.289 103.059 397.457 102.663C395.153 102.474 392.76 102.833 390.575 102.058C385.845 100.381 383.956 94.1613 379.34 92.1801C375.89 90.6997 371.917 92.0216 368.572 93.7302C365.227 95.4388 361.922 97.6007 358.184 97.8511C354.933 98.0635 351.403 96.8367 348.56 98.4534C346.44 99.6564 345.33 102.143 343.377 103.608C341.343 104.884 338.991 105.534 336.602 105.478C334.223 105.419 331.854 105.813 329.617 106.64C328.509 107.08 327.568 107.873 326.937 108.902C326.306 109.93 326.02 111.138 326.119 112.346L408.092 111.512Z" fill="#F5F5F5"/>
<path d="M271.558 119.365C270.674 116.747 269.976 114.066 269.473 111.345C269.347 110.611 269.071 109.911 268.663 109.292C268.253 108.673 267.722 108.148 267.101 107.752C266.171 107.469 265.224 107.251 264.267 107.099C260.934 106.083 260.024 101.347 256.869 99.8781C255.85 99.4921 254.781 99.2661 253.695 99.2076C249.47 98.7004 245.103 97.2122 242.446 93.8378C241.688 92.663 240.817 91.5687 239.844 90.5712C239.338 90.0868 238.688 89.7882 237.997 89.7226C237.305 89.6571 236.612 89.8286 236.028 90.2098C236.919 92.023 237.793 93.8378 238.666 95.6335C239.359 97.318 240.364 98.8515 241.625 100.151C242.269 100.791 243.078 101.233 243.958 101.426C244.838 101.618 245.754 101.554 246.6 101.24C247.093 100.886 247.674 100.679 248.277 100.64C248.713 100.732 249.102 100.984 249.367 101.349C251.667 103.944 250.924 108.244 248.673 110.892C246.421 113.54 243.128 114.9 239.936 116.189C238.833 116.751 237.6 116.996 236.371 116.897C234.161 116.481 232.984 114.03 232.342 111.835C230.898 106.972 230.204 101.691 227.243 97.5926C226.173 96.3983 225.268 95.0615 224.552 93.619C223.946 91.9865 224.085 90.0798 223.125 88.647C222.126 87.1413 220.011 86.2696 219.855 84.4563C219.884 83.8132 220.096 83.1928 220.467 82.6709C220.838 82.149 221.35 81.7483 221.94 81.5178C223.082 80.9552 224.365 80.7919 225.542 80.3022C226.01 80.1024 226.522 79.7585 226.541 79.2497C226.541 78.4874 225.507 78.1799 225.239 77.4714C224.954 76.6789 225.756 75.9292 226.094 75.1494C226.826 73.3711 225.004 71.5753 223.242 70.8494C221.481 70.1235 219.374 69.5973 218.553 67.8554C218.254 67.019 218.062 66.147 217.983 65.2608C217.822 64.1474 217.34 63.1079 216.597 62.2743C215.854 61.4406 214.884 60.8505 213.811 60.5788C213.273 60.4902 212.725 60.524 212.202 60.6777C211.68 60.8313 211.197 61.1011 210.789 61.4674C210.383 61.8336 210.059 62.2874 209.846 62.7959C209.631 63.3045 209.529 63.8551 209.55 64.4081C209.951 65.5616 210.484 66.6638 211.137 67.6921C211.635 68.8159 211.492 70.4865 210.358 70.8494C208.489 71.4295 206.686 67.9457 205.117 69.1424C205.759 71.374 206.384 73.6072 207.025 75.8563C204.565 77.1243 201.623 74.8213 200.571 72.2109C199.52 69.6005 199.481 66.6413 198.235 64.1355C196.989 61.6297 193.618 59.7451 191.478 61.5235C191.372 64.7536 195.561 66.0596 197.415 68.6717C197.757 69.131 198.008 69.6547 198.151 70.2127C198.294 70.7708 198.329 71.3522 198.251 71.9237C198.173 72.4951 197.985 73.0451 197.698 73.5424C197.41 74.0396 197.03 74.4742 196.577 74.8213C194.616 76.018 191.497 73.9322 192.244 71.737C192.512 70.9746 193.136 70.339 193.207 69.518C193.278 68.5021 192.44 67.6858 191.674 67.0328C190.48 65.9978 189.285 64.9834 188.092 63.9675C187.359 63.2538 186.491 62.6984 185.541 62.335C183.082 61.609 180.621 63.641 179.319 65.8726C178.017 68.1042 177.287 70.7527 175.487 72.623C174.839 73.2879 174.068 73.8163 173.218 74.178C172.369 74.5397 171.458 74.7277 170.537 74.731C169.617 74.7345 168.704 74.5533 167.854 74.1978C167.002 73.8423 166.227 73.3196 165.574 72.6594C163.132 69.8065 164.379 64.4778 167.963 63.4429C169.316 63.0609 171.029 63.0973 171.743 61.8817C172.989 59.7229 169.425 56.9683 170.653 54.7889C171.596 53.12 174.093 53.8807 175.912 53.3181C177.731 52.7554 178.729 50.9058 179.805 49.3097C180.881 47.7136 182.515 46.1398 184.368 46.5519C184.118 45.4552 184.186 44.3083 184.565 43.2504C184.671 42.9949 184.826 42.7643 185.024 42.573C185.222 42.3816 185.455 42.2338 185.711 42.1385C185.966 42.0431 186.239 42.0025 186.511 42.019C186.782 42.0355 187.049 42.1089 187.292 42.2344C187.122 42.6416 187.032 43.079 187.028 43.5216C187.025 43.9641 187.108 44.403 187.273 44.8128C187.436 45.2225 187.678 45.5953 187.985 45.9096C188.29 46.2239 188.654 46.4734 189.056 46.6438C190.718 47.2524 192.514 47.384 194.244 47.0242C195.991 46.807 198.184 46.154 198.327 44.3757C198.38 43.794 198.171 43.1775 198.38 42.6322C199.146 40.51 202.998 43.4247 204.477 41.724C205.332 40.8349 204.389 39.2563 203.194 38.9678C201.985 38.8567 200.768 38.9174 199.575 39.1485C198.363 39.2024 196.882 38.5494 196.829 37.3163C196.776 36.0831 198.112 35.2289 198.256 34.0322C198.488 31.9987 195.1 31.4741 193.904 33.124C192.708 34.774 193.138 37.0436 193.495 39.0565C193.851 41.0695 194.046 43.4469 192.585 44.8639C191.962 45.8259 190.339 45.3172 189.804 44.3012C189.397 43.2199 189.221 42.0634 189.287 40.9078C189.308 40.3259 189.159 39.7509 188.857 39.2566C188.555 38.7621 188.114 38.3706 187.592 38.1325C186.792 38.0618 185.985 38.1545 185.22 38.4051C182.118 38.7855 179.961 34.7042 180.942 31.6928C181.923 28.6814 184.722 26.7207 187.449 25.1786C189.447 24.0532 191.925 23.0008 193.903 24.1436C194.837 24.6698 195.473 25.5701 196.382 26.1216C197.95 27.0726 199.894 26.7207 201.694 26.7556C204.549 26.8358 207.29 27.9188 209.45 29.8209C210.252 30.5643 211.007 31.799 210.384 32.6881C209.707 33.6391 207.763 33.8325 208.103 34.9372C208.628 35.0851 209.176 35.1187 209.715 35.036C210.252 34.9531 210.766 34.7556 211.224 34.4563C211.682 34.1571 212.073 33.7629 212.37 33.2995C212.669 32.8362 212.867 32.3139 212.953 31.7673C213.468 32.0095 213.912 32.3848 214.239 32.856C214.568 33.327 214.768 33.8775 214.821 34.4522C215.409 33.9011 216.102 33.4798 216.855 33.2151C217.611 32.9505 218.411 32.8482 219.207 32.9146C220.003 32.981 220.777 33.2148 221.479 33.6012C222.182 33.9875 222.798 34.518 223.289 35.1591C223.691 35.9307 224.222 36.6244 224.859 37.2085C225.572 37.684 226.819 37.4446 226.91 36.5919C226.924 36.3199 226.874 36.0486 226.766 35.7994C226.338 34.5663 225.893 33.3507 225.465 32.1334C227.123 31.2268 229.084 32.6422 230.207 34.1669C234.379 39.8459 237.355 36.435 243.237 37.359C247.213 37.9756 248.961 40.5702 251.206 43.71C258.088 53.3625 267.18 61.273 273.438 71.3598C274.097 72.4122 274.704 73.482 275.274 74.5709C275.168 74.2983 275.079 74.0273 274.972 73.7547C272.528 67.2072 269.484 60.9083 265.88 54.9411C265.114 53.6731 264.329 52.4215 263.527 51.1863C263.028 50.4239 262.51 49.6441 261.994 48.8992C261.336 47.9197 260.639 46.9766 259.943 46.032C259.39 45.2696 258.839 44.5263 258.268 43.8004C257.875 43.2932 257.465 42.7844 257.056 42.2756C256.629 41.6955 256.165 41.1329 255.665 40.5702L254.167 38.8109C254.016 38.6207 253.855 38.4392 253.686 38.2672C253.169 37.6507 252.616 37.0516 252.063 36.4524C252.026 36.3803 251.973 36.3184 251.907 36.2718C251.764 36.1133 251.604 35.9453 251.44 35.782C250.993 35.2748 250.506 34.7851 250.049 34.2953C249.283 33.5028 248.492 32.6977 247.696 31.9369C247.037 31.2664 246.36 30.6309 245.664 29.9969C245.058 29.4342 244.452 28.8715 243.828 28.3279C243.203 27.7843 242.616 27.2581 241.991 26.7303C241.242 26.0772 240.476 25.4417 239.691 24.8077H239.672C237.516 23.0484 235.293 21.3853 233.005 19.8182C232.435 19.4188 231.882 19.0384 231.311 18.6564C230.739 18.2745 230.152 17.8941 229.582 17.5311C229.012 17.1681 228.424 16.7878 227.835 16.4422C227.246 16.0618 226.657 15.7163 226.07 15.3724C225.589 15.0823 225.125 14.8097 224.644 14.5561C224.409 14.403 224.164 14.2639 223.913 14.1393C222.896 13.5576 221.864 12.9949 220.83 12.4703C220.313 12.1977 219.796 11.9267 219.26 11.6778C218.601 11.3323 217.924 11.0074 217.246 10.6983C217.151 10.6394 217.05 10.5905 216.944 10.5525C216.338 10.2624 215.732 9.9724 215.108 9.69978C214.234 9.31781 213.361 8.93741 212.487 8.57446C211.489 8.15761 210.489 7.73916 209.473 7.35877C208.35 6.92291 207.228 6.50606 206.088 6.12567C204.948 5.74527 203.787 5.34586 202.629 4.98132C201.47 4.61678 200.311 4.29188 199.134 3.96537C196.817 3.33139 194.462 2.76872 192.093 2.27897C192.057 2.25995 192.004 2.25993 191.967 2.2425C191.059 2.06181 190.148 1.88112 189.24 1.73531C189.182 1.71605 189.122 1.70381 189.061 1.69885C188.668 1.62594 188.259 1.55463 187.849 1.49916C186.156 1.20911 184.445 0.972946 182.71 0.77324C182.514 0.736786 182.3 0.71935 182.087 0.70033C181.587 0.627422 181.089 0.592554 180.572 0.541835C179.432 0.434057 178.29 0.342127 177.131 0.269219C175.937 0.178876 174.725 0.12499 173.512 0.0885357C172.246 0.0346468 170.981 0.015625 169.715 0.015625C166.362 0.015625 163.046 0.166724 159.767 0.468925C158.988 0.524399 158.209 0.597309 157.449 0.686067C156.646 0.77641 155.844 0.868335 155.043 0.976113C154.243 1.08389 153.437 1.19326 152.654 1.32164C151.871 1.45002 151.067 1.57523 150.265 1.72104C149.588 1.83041 148.893 1.95722 148.215 2.10304C146.54 2.42954 144.882 2.7925 143.241 3.19191C142.474 3.37259 141.707 3.57228 140.941 3.79101C140.175 3.99072 139.409 4.20787 138.659 4.42501C137.393 4.78639 136.168 5.18737 134.933 5.58678H134.914C133.916 5.9323 132.9 6.27624 131.919 6.62176C131.892 6.6261 131.867 6.63883 131.847 6.65822C130.83 7.02117 129.851 7.40157 128.853 7.80098L128.697 7.85645C127.789 8.21782 126.878 8.5998 125.989 8.98019C124.864 9.45568 123.76 9.95972 122.673 10.4685C121.739 10.9028 120.837 11.3386 119.944 11.7919C118.982 12.2817 118.02 12.7714 117.074 13.2802L116.968 13.3341C116.059 13.8239 115.149 14.331 114.258 14.8573C113.324 15.3835 112.422 15.9287 111.513 16.5088H111.494C110.639 17.035 109.8 17.5596 108.963 18.1049C108.641 18.3046 108.34 18.5217 108.018 18.7389C107.126 19.3205 106.271 19.9181 105.397 20.5346C104.327 21.278 103.293 22.0578 102.26 22.8392C101.351 23.5286 100.46 24.2371 99.5864 24.944C94.5414 29.0313 89.8518 33.5537 85.57 38.4606C84.0547 40.166 82.6281 41.9079 81.2374 43.691C80.06 45.2157 78.92 46.7579 77.8314 48.354C76.8513 49.7413 75.9054 51.1551 74.9939 52.5953C75.9054 51.1582 76.8513 49.7445 77.8314 48.354C78.1164 48.3175 78.403 48.2811 78.688 48.2636C80.3023 48.3021 81.9098 48.0378 83.4302 47.4838C84.6644 46.6592 85.8329 45.7372 86.9249 44.726C90.0272 42.4769 95.1089 42.0585 95.9468 38.2847C95.992 36.9883 96.1289 35.6969 96.3564 34.4205C97.2316 32.1524 100.208 31.8259 102.597 31.8624C103.614 31.8624 104.807 32.0066 105.271 32.9132C105.399 33.2521 105.455 33.6146 105.437 33.977C105.419 34.3395 105.326 34.6942 105.165 35.0181C103.672 39.2838 100.782 42.8969 96.9809 45.2506C93.8786 47.1732 89.8325 48.663 88.976 52.2546C89.4043 53.4702 91.5784 53.3799 91.7575 54.6495C91.882 55.6654 90.5988 56.1916 90.1347 57.0998C89.4572 58.4233 91.0084 60.0383 92.4879 59.967C93.9613 59.7063 95.3019 58.9381 96.2848 57.7909C99.5288 54.724 102.935 51.4209 104.111 47.067C104.609 45.2712 104.786 43.1664 106.213 41.9681C106.654 41.6529 107.16 41.4456 107.692 41.3628C108.225 41.2801 108.769 41.3238 109.282 41.4909C109.795 41.658 110.263 41.9437 110.649 42.3257C111.035 42.7077 111.329 43.1756 111.508 43.6926C112.91 42.9001 115.109 42.2946 115.839 43.7829C116.004 44.3378 116.105 44.91 116.143 45.4883C116.61 47.8103 119.725 48.8627 120.047 51.2037C120.421 53.9061 117.017 55.304 114.36 55.7209C111.954 56.1013 109.547 56.4817 107.14 56.8827C106.079 56.9616 105.052 57.2975 104.145 57.8622C103.697 58.1616 103.364 58.6084 103.202 59.1278C103.04 59.6472 103.057 60.2075 103.252 60.7151C103.612 61.2022 104.031 61.6409 104.498 62.0211C104.923 62.5594 105.2 63.2026 105.301 63.8851C105.401 64.5677 105.323 65.2653 105.073 65.9068C104.823 66.5484 104.41 67.1113 103.877 67.5379C103.344 67.9644 102.709 68.2398 102.038 68.3356C101.075 68.3721 100.13 68.0091 99.1675 67.9727C96.3143 67.8459 94.0499 70.404 92.6966 72.9622C91.3432 75.5203 90.3247 78.4414 88.0431 80.1833C84.3708 82.995 78.0416 82.3436 76.2584 86.661C75.7408 88.4776 75.7219 90.4038 76.2039 92.2306C76.6783 94.07 76.4425 96.0244 75.5452 97.6924C74.4939 99.2156 71.7483 99.5421 70.9634 97.8382C70.6964 97.0614 70.6597 96.2222 70.8575 95.4243C71.2842 92.7394 71.6953 90.0545 72.1034 87.3695C72.4055 85.374 72.6734 83.1424 71.5147 81.5051C69.8919 79.218 66.2554 79.4368 64.1514 81.269C62.2181 83.2989 60.9747 85.9056 60.6037 88.7072C60.2045 91.1866 59.5224 93.61 58.5713 95.9283C58.1975 98.179 57.8939 100.465 57.6634 102.767C57.4313 105.126 57.2709 107.467 57.1821 109.862C57.5031 109.592 57.8069 109.301 58.0916 108.992C59.2145 107.812 61.4774 102.823 63.5113 105.272C63.7636 105.592 63.9041 105.989 63.9105 106.4C63.917 106.81 63.7891 107.211 63.5471 107.54C62.9242 108.356 61.6783 108.537 61.1939 109.426C60.6052 110.478 61.426 111.784 62.3884 112.474C63.4401 113.02 64.3929 113.744 65.2057 114.615C66.5061 116.517 65.2587 119.405 66.5248 121.346C67.615 123.015 69.9308 123.123 71.9087 123.342C72.1407 123.378 72.3557 123.416 72.5861 123.451C72.7212 121.349 73.5645 119.358 74.9739 117.814C76.3833 116.271 78.2726 115.269 80.3232 114.978C87.7052 113.273 97.4029 119.497 101.556 125.157C106.191 131.497 108.386 140.452 115.481 143.626C120.561 145.894 127.784 145.077 130.259 150.141C132.469 154.677 128.619 159.774 128.03 164.8C127.657 168.119 128.726 171.422 128.976 174.742C129.225 178.063 128.245 181.964 125.268 183.36C123.61 184.122 121.53 184.03 120.187 185.301C117.815 187.589 119.759 192.305 117.384 194.591C116.46 195.271 115.446 195.815 114.372 196.206C109.041 198.946 109.185 206.928 111.662 212.463C111.751 212.663 111.841 212.843 111.93 213.043C129.395 223.667 149.362 229.28 169.709 229.281C188.142 229.308 206.298 224.709 222.568 215.891H222.586C226.01 214.029 229.338 211.988 232.554 209.777C237.509 206.391 242.189 202.606 246.548 198.455C249.566 195.591 252.424 192.557 255.106 189.365C256.995 187.146 258.778 184.847 260.49 182.488C261.364 181.272 262.219 180.057 263.022 178.805C269.068 169.769 273.79 159.887 277.039 149.467C279.038 143.133 280.476 136.63 281.335 130.035C281.675 127.458 281.941 124.846 282.114 122.215C280.93 123.481 279.303 124.218 277.587 124.264C274.875 124.21 272.647 121.904 271.558 119.365Z" fill="#F5F5F5"/>
<path d="M142.81 30.0018C140.577 31.3585 139.384 33.923 137.671 35.9058C135.958 37.8886 132.86 39.304 130.827 37.6493C130.365 37.2188 129.991 36.6986 129.728 36.1191C129.466 35.5397 129.319 34.9127 129.298 34.2749C129.141 32.4373 129.566 30.5969 130.51 29.0223C131.482 27.4135 132.961 26.1471 133.78 24.4544C134.599 22.7617 134.433 20.2828 132.751 19.4887C131.84 19.0592 130.695 19.2272 129.887 18.6217C128.435 17.5329 129.474 14.9589 131.162 14.3106C132.927 13.9171 134.753 13.9068 136.521 14.2805C143.051 14.7053 147.854 10.3545 152.762 6.73922C156.579 3.92749 164.711 0.606979 169.13 3.47895C170.893 4.62488 171.581 7.56975 169.921 8.86783C169.178 9.44635 168.153 9.57631 167.462 10.2182C166.632 10.9885 166.515 12.2517 166.038 13.2867C164.803 15.9812 161.238 16.9528 160.091 19.6837C159.401 21.3257 159.711 23.3703 158.647 24.7936C157.667 25.8168 156.375 26.4698 154.982 26.6448L146.468 28.7053C145.191 28.9462 143.958 29.3833 142.81 30.0018Z" fill="#EBEBEB"/>
<path d="M218.936 171.122C216.109 175.453 215.597 180.868 214.814 186.006C214.03 191.145 212.683 196.605 208.805 199.989C204.927 203.373 197.801 203.171 195.666 198.448C194.507 195.884 195.1 192.859 194.47 190.111C193.646 186.531 190.846 183.771 189.517 180.349C188.586 177.354 188.17 174.216 188.288 171.076C187.784 153.944 183.679 136.062 172.216 123.503C170.913 121.854 169.179 120.611 167.214 119.916C166.016 119.614 164.758 119.671 163.59 120.08C162.424 120.49 161.397 121.234 160.637 122.224C159.913 123.589 159.069 124.884 158.114 126.093C155.665 128.369 151.39 126.738 149.753 123.802C148.116 120.867 148.351 117.268 148.617 113.903C148.956 109.731 149.295 105.56 149.634 101.389C149.592 99.1854 150.231 97.0233 151.46 95.2081C153.461 92.8528 157.049 92.7434 159.497 90.8763C162.705 88.4307 163.134 83.763 165.157 80.238C167.18 76.7131 173.515 75.2248 174.453 79.1936C181.149 64.5992 195.959 86.2799 204.764 84.6506C207.32 84.1751 209.819 82.9277 212.395 83.2939C216.94 83.9405 219.286 89.0362 220.833 93.4377L228.533 115.336C229.511 118.117 230.774 121.2 233.48 122.275C235.553 123.092 237.963 122.468 240.053 123.243C245.578 125.289 243.781 134.138 239.336 138.053C234.891 141.968 228.651 144.437 226.538 150.021C224.944 154.227 226.215 159.157 224.502 163.313C223.267 166.286 220.688 168.435 218.936 171.122Z" fill="#EBEBEB"/>
<path d="M239.908 175.881C238.092 176.139 235.949 175.228 234.569 176.456C233.882 177.296 233.431 178.309 233.266 179.389C232.865 180.861 231.951 182.134 230.693 182.966C230.059 183.368 229.325 183.575 228.579 183.56C227.833 183.548 227.106 183.313 226.488 182.888C225.896 182.43 225.505 181.755 225.398 181.007C225.289 180.259 225.474 179.498 225.91 178.886C226.41 178.423 226.933 177.989 227.478 177.582C229.888 175.265 228.238 170.966 230.07 168.21C231.151 166.585 232.851 164.937 234.038 163.296C234.951 162.028 235.284 161.027 236.963 160.691C244.315 159.212 247.636 174.78 239.908 175.881Z" fill="#EBEBEB"/>
<path d="M57.1105 112.561C57.0981 113.253 57.0747 113.939 57.0747 114.629C57.0747 115.192 57.0934 115.748 57.1027 116.307C57.0934 115.748 57.0747 115.198 57.0747 114.629C57.0747 113.944 57.1012 113.253 57.1105 112.561Z" fill="#263238"/>
<g opacity="0.6">
<g opacity="0.6">
<path opacity="0.6" d="M109.882 211.752C110.56 212.186 111.237 212.604 111.932 213.02C111.237 212.603 110.56 212.184 109.882 211.752Z" fill="#263238"/>
</g>
</g>
<g opacity="0.6">
<path opacity="0.6" d="M57.1464 110.493C57.1199 111.173 57.1215 111.869 57.1106 112.553C57.1215 111.862 57.1184 111.165 57.1464 110.493Z" fill="#263238"/>
</g>
<path d="M128.029 164.78C128.618 159.754 132.467 154.657 130.258 150.121C127.78 145.058 120.56 145.875 115.48 143.607C108.384 140.437 106.19 131.469 101.555 125.137C97.4015 119.477 87.7037 113.25 80.3218 114.958C78.2712 115.249 76.3819 116.251 74.9725 117.794C73.5631 119.338 72.7197 121.329 72.5847 123.431C72.3542 123.395 72.1393 123.359 71.9073 123.322C69.9278 123.105 67.6105 122.996 66.5234 121.327C65.2573 119.385 66.5047 116.5 65.2043 114.595C64.3915 113.724 63.4389 113 62.387 112.454C61.4246 111.765 60.6054 110.459 61.1925 109.406C61.6737 108.517 62.9228 108.336 63.5457 107.52C63.7877 107.191 63.9156 106.79 63.9092 106.38C63.9027 105.969 63.7622 105.572 63.5099 105.252C61.4775 102.803 59.2131 107.788 58.0902 108.972C57.8055 109.281 57.5017 109.572 57.1807 109.842V109.861C57.162 110.078 57.1449 110.278 57.1449 110.495C57.1184 111.175 57.12 111.871 57.1091 112.555C57.0982 113.24 57.0732 113.934 57.0732 114.624C57.0732 115.186 57.0919 115.743 57.1013 116.302C57.1106 116.862 57.1091 117.428 57.1278 117.981C57.1278 118.253 57.1278 118.507 57.1449 118.773C57.57 131.215 59.9899 143.502 64.3088 155.15C66.2277 160.326 68.5282 165.349 71.1909 170.172C72.295 172.26 73.5082 174.309 74.7728 176.322C76.3411 178.807 77.981 181.235 79.7471 183.579C81.387 185.83 83.1344 188.025 84.9705 190.13C87.4852 193.05 90.1451 195.834 92.9396 198.477C95.4179 200.837 98.0031 203.073 100.695 205.189C94.9331 189.439 89.4823 173.385 80.1505 159.659C89.476 173.385 94.9284 189.437 100.695 205.189H100.714C101.856 206.114 103.014 206.985 104.19 207.839C105.117 208.519 106.052 209.185 106.993 209.838C107.935 210.491 108.895 211.125 109.871 211.74C110.549 212.174 111.226 212.592 111.921 213.008C111.832 212.808 111.743 212.627 111.653 212.427C109.175 206.893 109.032 198.911 114.363 196.17C115.436 195.779 116.45 195.235 117.375 194.555C119.747 192.27 117.803 187.551 120.178 185.266C121.514 183.998 123.604 184.087 125.258 183.324C128.236 181.928 129.198 178.045 128.966 174.707C128.734 171.369 127.65 168.099 128.029 164.78ZM65.6155 126.516C65.4213 126.143 65.3404 125.72 65.3834 125.3C65.2666 123.199 63.6173 121.682 61.8232 120.491C63.6173 121.68 65.2666 123.197 65.3834 125.3C65.3404 125.72 65.4213 126.143 65.6155 126.516ZM71.7827 144.768C71.6993 143.95 71.6864 143.125 71.7437 142.304C71.5453 144.868 72.0948 147.434 73.3229 149.682C72.5207 148.153 71.9988 146.488 71.7827 144.768ZM74.167 151.203C74.4676 151.704 74.79 152.197 75.1155 152.684C74.7868 152.195 74.4676 151.709 74.167 151.203Z" fill="#EBEBEB"/>
<path d="M64.1531 81.2458C66.2571 79.4136 69.8936 79.1965 71.5164 81.482C72.675 83.1145 72.4087 85.3462 72.105 87.3464C71.6939 90.0313 71.2843 92.7178 70.8591 95.4012C70.6614 96.1991 70.6983 97.0383 70.965 97.8151C71.7437 99.5189 74.4956 99.1924 75.5468 97.6693C76.4442 96.0013 76.68 94.0468 76.2056 92.2075C75.7236 90.3806 75.7425 88.4544 76.2601 86.6379C78.0418 82.3205 84.3709 82.9719 88.0448 80.1601C90.3264 78.4167 91.3433 75.4972 92.6982 72.939C94.0532 70.3809 96.3176 67.8228 99.1691 67.9496C100.132 67.986 101.075 68.349 102.039 68.3125C102.711 68.2166 103.346 67.9413 103.879 67.5148C104.412 67.0881 104.825 66.5253 105.075 65.8837C105.325 65.2421 105.403 64.5446 105.302 63.8619C105.201 63.1794 104.925 62.5363 104.5 61.998C104.032 61.6178 103.614 61.1791 103.254 60.692C103.059 60.1843 103.041 59.6239 103.204 59.1046C103.366 58.5853 103.699 58.1385 104.147 57.8391C105.054 57.2743 106.081 56.9385 107.141 56.8595C109.549 56.4601 111.955 56.0797 114.361 55.6978C117.018 55.2809 120.423 53.883 120.049 51.1806C119.728 48.8396 116.609 47.7872 116.145 45.4652C116.107 44.8869 116.005 44.3147 115.841 43.7598C115.11 42.2715 112.918 42.8706 111.51 43.6694C111.331 43.1524 111.037 42.6845 110.651 42.3026C110.264 41.9206 109.796 41.6348 109.283 41.4678C108.77 41.3007 108.226 41.257 107.694 41.3397C107.162 41.4224 106.655 41.6296 106.215 41.945C104.788 43.1432 104.611 45.2465 104.112 47.0438C102.935 51.3977 99.5289 54.6992 96.2864 57.7677C95.3011 58.9152 93.9575 59.6825 92.4818 59.9407C91.0023 60.0136 89.4511 58.3985 90.1286 57.0735C90.5958 56.1653 91.8759 55.647 91.7514 54.6232C91.5723 53.3552 89.3982 53.4439 88.9699 52.2283C89.8249 48.6367 93.8725 47.1484 96.9748 45.2243C100.774 42.8716 103.662 39.261 105.156 34.9981C105.317 34.6743 105.41 34.3196 105.428 33.9571C105.446 33.5946 105.389 33.2321 105.262 32.8933C104.794 31.9851 103.605 31.8424 102.588 31.8424C100.199 31.806 97.2224 32.1325 96.3472 34.4006C96.1196 35.6769 95.9827 36.9684 95.9376 38.2647C95.0997 42.0385 90.0196 42.4554 86.9157 44.706C85.8237 45.7171 84.6552 46.6392 83.4209 47.4639C81.9006 48.0178 80.2931 48.282 78.6787 48.2437C78.3937 48.2627 78.1072 48.2991 77.8222 48.334C76.8421 49.7213 75.8962 51.1351 74.9846 52.5754C74.0731 54.0156 73.1947 55.4743 72.3496 56.9515C68.3245 63.9637 65.0509 71.3953 62.5848 79.1188C61.7116 81.8312 60.9402 84.5874 60.2705 87.3876C59.6009 90.1878 59.0351 93.0258 58.573 95.902C59.5241 93.5837 60.2062 91.1601 60.6054 88.6809C60.9771 85.8805 62.2204 83.2748 64.1531 81.2458Z" fill="#EBEBEB"/>
<g opacity="0.6">
<g opacity="0.6">
<path opacity="0.6" d="M275.268 74.5893C275.802 76.0412 276.307 77.5025 276.78 78.9734C276.305 77.5014 275.802 76.0401 275.268 74.5893C275.268 74.5893 275.285 74.5703 275.268 74.5703V74.5893Z" fill="#263238"/>
</g>
</g>
<path d="M282.307 113.051C282.3 111.4 282.251 109.762 282.163 108.138C282.074 106.514 281.951 104.893 281.79 103.275C281.666 101.969 281.522 100.681 281.345 99.3938C281.17 98.0318 280.973 96.6777 280.75 95.3315C280.087 91.3174 279.208 87.3433 278.118 83.4268C277.702 81.9306 277.257 80.4466 276.779 78.9747C276.301 77.5027 275.798 76.0414 275.266 74.5907V74.5716C274.696 73.4828 274.091 72.4129 273.43 71.3605C267.173 61.2738 258.081 53.3632 251.199 43.7107C248.953 40.5709 247.206 37.9763 243.23 37.3598C237.347 36.4357 234.37 39.845 230.199 34.1676C229.076 32.6429 227.115 31.2291 225.457 32.1341C225.885 33.3498 226.331 34.5655 226.759 35.8002C226.866 36.0493 226.916 36.3207 226.902 36.5926C226.813 37.4454 225.566 37.6815 224.851 37.2092C224.214 36.6251 223.683 35.9314 223.281 35.1598C222.791 34.5187 222.174 33.9882 221.472 33.6018C220.769 33.2156 219.995 32.9818 219.199 32.9154C218.403 32.849 217.603 32.9512 216.848 33.2159C216.094 33.4806 215.401 33.9018 214.814 34.4529C214.761 33.8782 214.56 33.3278 214.231 32.8566C213.904 32.3855 213.46 32.0102 212.945 31.768C212.859 32.3147 212.661 32.8369 212.362 33.3002C212.065 33.7636 211.674 34.1578 211.216 34.4571C210.758 34.7563 210.244 34.9538 209.707 35.0367C209.168 35.1194 208.62 35.0858 208.095 34.9379C207.756 33.8285 209.699 33.6319 210.377 32.6889C211 31.7997 210.252 30.5666 209.442 29.8217C207.282 27.9195 204.541 26.8365 201.687 26.7563C199.886 26.7199 197.949 27.0638 196.374 26.1224C195.465 25.5787 194.817 24.6705 193.895 24.1443C191.917 23 189.439 24.054 187.441 25.1793C184.714 26.7215 181.897 28.6662 180.935 31.6935C179.972 34.7208 182.11 38.7862 185.213 38.4059C185.977 38.1551 186.784 38.0625 187.585 38.1332C188.106 38.3713 188.547 38.7626 188.849 39.2571C189.151 39.7516 189.301 40.3267 189.279 40.9085C189.214 42.0641 189.39 43.2207 189.796 44.3019C190.332 45.3179 191.953 45.8267 192.578 44.8646C194.038 43.4492 193.861 41.0718 193.487 39.0573C193.113 37.0428 192.721 34.7779 193.897 33.1247C195.072 31.4716 198.48 31.9994 198.248 34.0329C198.105 35.2296 196.768 36.0934 196.821 37.317C196.874 38.5406 198.354 39.2031 199.567 39.1492C200.76 38.9181 201.978 38.8574 203.186 38.9685C204.381 39.2586 205.325 40.8372 204.47 41.7248C202.99 43.4302 199.139 40.5091 198.373 42.633C198.159 43.1766 198.373 43.7947 198.32 44.3764C198.176 46.1548 195.984 46.8078 194.236 47.0249C192.506 47.3847 190.71 47.2531 189.049 46.6445C188.647 46.4741 188.282 46.2245 187.977 45.9104C187.67 45.5961 187.429 45.2233 187.265 44.8134C187.1 44.4037 187.018 43.9648 187.021 43.5223C187.024 43.0798 187.114 42.6423 187.284 42.2351C187.041 42.1096 186.775 42.0362 186.504 42.0197C186.231 42.0033 185.959 42.0438 185.703 42.1392C185.448 42.2345 185.214 42.3824 185.016 42.5737C184.819 42.765 184.663 42.9956 184.557 43.2511C184.179 44.3091 184.11 45.4559 184.361 46.5526C182.508 46.1357 180.849 47.7318 179.798 49.3104C178.746 50.8891 177.712 52.7577 175.904 53.3188C174.096 53.8799 171.589 53.1191 170.645 54.7897C169.415 56.9658 172.981 59.7252 171.735 61.8824C171.022 63.0981 169.31 63.0616 167.955 63.4436C164.373 64.4786 163.128 69.812 165.566 72.6602C166.219 73.3203 166.994 73.843 167.846 74.1985C168.697 74.5539 169.609 74.7352 170.53 74.7317C171.45 74.7284 172.361 74.5404 173.21 74.1787C174.06 73.817 174.831 73.2886 175.479 72.6237C177.279 70.755 178.01 68.124 179.312 65.8733C180.614 63.6227 183.073 61.6098 185.534 62.3357C186.484 62.6991 187.351 63.2545 188.084 63.9682C189.279 64.9842 190.474 66.0001 191.666 67.0335C192.433 67.6865 193.271 68.5044 193.199 69.5188C193.127 70.335 192.503 70.9706 192.236 71.7377C191.489 73.9329 194.608 76.0171 196.569 74.8221C197.022 74.475 197.402 74.0404 197.69 73.5432C197.977 73.0458 198.165 72.4956 198.243 71.9243C198.321 71.3529 198.287 70.7715 198.144 70.2135C198 69.6554 197.75 69.1317 197.407 68.6724C195.554 66.0604 191.364 64.7528 191.47 61.5242C193.61 59.7459 196.98 61.6145 198.228 64.1362C199.475 66.6579 199.511 69.617 200.564 72.2116C201.617 74.8062 204.557 77.125 207.018 75.857C206.376 73.608 205.751 71.3748 205.11 69.1431C206.68 67.9465 208.48 71.4302 210.35 70.8501C211.492 70.4872 211.634 68.8166 211.129 67.6929C210.476 66.6646 209.944 65.5624 209.542 64.4088C209.522 63.8558 209.623 63.3052 209.838 62.7966C210.051 62.2881 210.375 61.8344 210.782 61.4681C211.19 61.1018 211.673 60.832 212.194 60.6784C212.718 60.5247 213.266 60.4909 213.803 60.5795C214.876 60.8512 215.846 61.4413 216.589 62.275C217.332 63.1087 217.815 64.1481 217.975 65.2615C218.055 66.1477 218.246 67.0196 218.545 67.8561C219.366 69.5996 221.487 70.1242 223.234 70.8501C224.982 71.576 226.816 73.3718 226.086 75.1502C225.748 75.93 224.946 76.6749 225.231 77.4721C225.499 78.1806 226.533 78.4881 226.533 79.2505C226.514 79.7592 225.999 80.1032 225.535 80.3029C224.357 80.7926 223.074 80.9559 221.933 81.5185C221.342 81.749 220.83 82.1497 220.459 82.6716C220.089 83.1935 219.877 83.8139 219.847 84.4571C219.99 86.2719 222.112 87.142 223.118 88.6477C224.08 90.0742 223.938 91.9873 224.544 93.6198C225.261 95.0623 226.165 96.399 227.235 97.5933C230.194 101.694 230.891 106.973 232.334 111.836C232.976 114.031 234.153 116.48 236.363 116.898C237.592 116.997 238.825 116.752 239.928 116.19C243.119 114.901 246.436 113.522 248.665 110.893C250.894 108.263 251.66 103.943 249.36 101.35C249.095 100.985 248.705 100.733 248.269 100.641C247.667 100.679 247.086 100.887 246.592 101.24C245.746 101.554 244.831 101.619 243.951 101.426C243.071 101.234 242.261 100.792 241.618 100.151C240.356 98.8522 239.352 97.3188 238.659 95.6343C237.785 93.8385 236.911 92.0237 236.021 90.2105C236.605 89.8293 237.298 89.6578 237.989 89.7233C238.681 89.7887 239.33 90.0875 239.836 90.5719C240.809 91.5695 241.68 92.6637 242.439 93.8385C245.095 97.2129 249.462 98.7012 253.687 99.2084C254.773 99.2668 255.843 99.4929 256.861 99.8788C260.017 101.35 260.926 106.084 264.259 107.1C265.217 107.252 266.164 107.47 267.093 107.753C267.715 108.149 268.246 108.673 268.655 109.292C269.063 109.911 269.339 110.611 269.465 111.346C269.968 114.067 270.666 116.747 271.551 119.366C272.641 121.902 274.866 124.211 277.576 124.246C279.292 124.199 280.92 123.462 282.103 122.197V122.178C282.247 119.675 282.335 117.171 282.335 114.63C282.343 114.104 282.343 113.578 282.307 113.051Z" fill="#EBEBEB"/>
<path d="M219.403 96.6936C219.026 95.9108 218.461 95.2375 217.76 94.7362C217.455 94.3897 217.084 94.109 216.67 93.9105C216.256 93.7121 215.807 93.6001 215.351 93.581C214.893 93.562 214.437 93.6363 214.009 93.7996C213.58 93.9629 213.188 94.2117 212.856 94.5317C212.39 95.2297 212.113 96.0395 212.051 96.8805C211.987 97.7214 212.141 98.5646 212.498 99.3262C212.774 100.042 213.2 100.688 213.747 101.219C214.294 101.75 214.948 102.153 215.662 102.401C216.385 102.628 217.159 102.618 217.876 102.372C218.592 102.127 219.215 101.657 219.654 101.032C220.006 100.354 220.168 99.5917 220.123 98.827C220.079 98.0622 219.83 97.3244 219.403 96.6936Z" fill="#EBEBEB"/>
<path d="M97.9699 390.666C97.0509 386.559 97.0217 382.299 97.8842 378.179C98.7467 374.06 100.48 370.182 102.964 366.814C103.324 366.338 103.799 365.831 104.385 365.885C105.282 365.969 105.514 367.184 105.475 368.104C105.106 376.193 102.505 384.014 97.9699 390.667" fill="#E0E0E0"/>
<path d="M100.451 392.386C105.248 393.537 110.233 393.614 115.062 392.614C119.892 391.614 124.451 389.561 128.426 386.596C123.744 384.201 118.392 383.532 113.28 384.704C108.244 385.637 103.699 388.358 100.451 392.386Z" fill="#E0E0E0"/>
<path d="M102.528 387.149C105.303 382.798 109.049 379.176 113.46 376.58C117.872 373.984 122.825 372.484 127.914 372.207C127.228 374.26 126.137 376.147 124.709 377.754C123.281 379.363 121.545 380.656 119.608 381.558C115.732 383.33 111.634 384.549 107.429 385.178C105.808 385.495 103.584 385.852 102.533 387.149" fill="#E0E0E0"/>
<path d="M98.4932 361.731C100.086 356.814 101.175 351.742 101.742 346.597C102.3 341.416 101.266 336.187 98.7829 331.629C96.2806 336.316 94.934 341.551 94.8586 346.884C94.7832 352.218 95.9813 357.491 98.3499 362.249" fill="#E0E0E0"/>
<path d="M115.034 353.225C120.779 342.606 132.5 334.11 144.361 332.92C139.786 344.514 127.308 353.474 115.034 353.225Z" fill="#E0E0E0"/>
<path d="M111.421 355.308C119.986 356.636 127.291 362.205 135.297 365.581C136.975 366.406 138.836 366.769 140.695 366.634C141.559 366.623 142.4 366.342 143.103 365.83C143.806 365.318 144.337 364.599 144.626 363.77C144.915 362.941 144.946 362.041 144.717 361.193C144.487 360.345 144.008 359.589 143.342 359.026C142.207 357.961 140.874 357.138 139.421 356.606C130.734 353.133 121.18 352.589 112.167 355.059" fill="#E0E0E0"/>
<path d="M106.461 361.421C108.401 361.987 109.063 363.006 110.599 364.341C115.838 368.872 122.033 372.11 128.703 373.806C129.396 373.98 130.303 374.05 130.645 373.413C130.944 372.858 130.566 372.186 130.178 371.69C127.268 368.217 123.491 365.609 119.245 364.138C115.067 362.553 111.447 360.651 106.461 361.055" fill="#E0E0E0"/>
<path d="M100.865 324.482C104.378 327.779 108.53 330.291 113.055 331.858C117.579 333.424 122.375 334.011 127.135 333.578C127.572 333.584 127.997 333.429 128.331 333.141C128.993 332.408 128.199 331.278 127.429 330.667C123.785 327.595 119.483 325.435 114.87 324.362C110.257 323.287 105.461 323.33 100.867 324.485" fill="#E0E0E0"/>
<g opacity="0.34">
<path opacity="0.34" d="M51.0478 358.112C46.3452 355.114 41.0299 353.251 35.5099 352.67C32.977 352.18 30.3557 352.67 28.1591 354.044C27.9242 354.182 27.7302 354.381 27.597 354.622C27.4639 354.862 27.3966 355.134 27.4022 355.41C27.5205 355.801 27.7769 356.134 28.1217 356.345C31.4211 358.74 35.3015 360.171 39.3426 360.482C43.3838 360.794 47.4316 359.975 51.0478 358.112Z" fill="#3E548D"/>
<path opacity="0.34" d="M50.6492 357.659C47.0507 354.97 43.6924 351.963 40.6135 348.672C37.525 345.36 35.3541 341.274 34.3217 336.83C34.1184 336.172 34.0577 335.478 34.1435 334.793C34.2292 334.108 34.4595 333.452 34.8185 332.867C42.8187 339.226 49.1027 347.449 50.6492 357.659Z" fill="#3E548D"/>
<path opacity="0.34" d="M50.97 358.045C50.2272 353.601 50.2901 349.057 51.1554 344.637C52.0487 340.183 54.5539 336.233 58.1745 333.57C59.5574 336.859 58.9625 340.647 57.9891 344.083C56.4793 349.406 54.1287 354.443 51.0292 358.996" fill="#3E548D"/>
<path opacity="0.34" d="M58.8083 372.346C54.1015 373.116 49.747 375.36 46.3493 378.763C42.7757 382.073 40.2874 386.42 39.2212 391.216C43.8933 390.923 47.8537 387.571 50.7255 383.815C53.5973 380.058 55.5892 375.934 58.7445 372.419" fill="#3E548D"/>
<path opacity="0.34" d="M60.5121 374.633C58.6382 369.791 57.9815 364.548 58.6013 359.383C59.221 354.216 61.0978 349.288 64.0613 345.047C65.4789 349.965 65.8952 355.126 65.285 360.213C64.6746 365.3 63.0506 370.207 60.5121 374.633Z" fill="#3E548D"/>
<path opacity="0.34" d="M70.8716 387.19C66.5205 386.914 62.1858 387.948 58.4075 390.162C54.6293 392.375 51.5742 395.671 49.6228 399.639C49.358 400.174 49.126 400.854 49.4795 401.334C49.6627 401.514 49.8857 401.647 50.1297 401.72C50.3736 401.793 50.6315 401.805 50.8812 401.756C55.0689 401.48 58.7802 398.916 61.842 395.996C64.9038 393.077 67.5731 389.702 70.9573 387.178" fill="#3E548D"/>
<path opacity="0.34" d="M70.5445 386.506C68.3137 379.194 68.1765 371.387 70.1489 363.999C70.9276 361.103 72.2358 358.054 74.8662 356.697C74.9716 356.627 75.0902 356.578 75.2144 356.556C75.3387 356.536 75.4661 356.539 75.5888 356.569C75.8022 356.683 75.9651 356.875 76.0451 357.106C76.9296 359.133 77.3114 361.349 77.1571 363.562C77.002 365.763 76.6696 367.949 76.1635 370.096C75.335 374.091 74.8942 378.383 72.7373 381.825C72.2294 382.654 71.7722 383.515 71.3683 384.401C70.9619 385.277 70.9587 385.585 70.5896 386.281" fill="#3E548D"/>
<path opacity="0.34" d="M107.5 322.011C112.15 318.527 117.544 316.213 123.241 315.257C128.937 314.3 134.776 314.728 140.279 316.506C135.99 320.551 130.487 323.008 124.659 323.48C118.898 324.014 113.09 323.515 107.5 322.005" fill="#3E548D"/>
<path opacity="0.34" d="M104.863 305.037C104.105 297.193 104.597 290.999 104.063 283.117C104.019 282.483 103.887 281.73 103.307 281.503C102.502 281.186 101.829 282.194 101.566 283.031C100.444 286.684 100.156 290.55 100.726 294.335C101.295 298.118 102.707 301.719 104.852 304.864" fill="#3E548D"/>
<path opacity="0.34" d="M104.307 305.903C109.343 302.593 113.683 298.3 117.077 293.272C119.599 289.761 121.725 285.553 121.151 281.242C119.376 281.29 117.632 281.732 116.041 282.536C114.45 283.339 113.051 284.487 111.94 285.897C109.738 288.737 108.139 292.01 107.244 295.512C106.221 298.964 105.506 302.511 104.307 305.903Z" fill="#3E548D"/>
<path opacity="0.34" d="M116.853 302.358C128.348 298.024 138.989 291.637 148.278 283.497C144.525 281.958 140.226 282.878 136.473 284.421C127.956 287.708 120.919 294.059 116.694 302.271" fill="#3E548D"/>
<path opacity="0.34" d="M107.836 310.197C113.619 311.037 119.488 311.067 125.279 310.284C130.9 309.097 136.367 307.247 141.569 304.774C142.03 304.641 142.426 304.335 142.676 303.919C142.76 303.67 142.767 303.4 142.696 303.147C142.625 302.893 142.48 302.668 142.28 302.5C141.874 302.174 141.398 301.947 140.891 301.837C135.051 300.403 128.923 300.776 123.293 302.907C117.906 304.782 112.726 307.226 107.837 310.198" fill="#3E548D"/>
<path opacity="0.34" d="M74.7107 324.751C72.8438 320.691 71.8527 316.269 71.8041 311.786C71.7554 307.302 72.6504 302.86 74.4288 298.758C76.8349 302.49 77.1293 307.244 76.6885 311.685C76.2478 316.126 74.9209 320.699 74.8337 325.157" fill="#3E548D"/>
<path opacity="0.34" d="M58.8985 316.634C53.9439 316.569 49.0302 317.556 44.4716 319.531C39.9128 321.508 35.8093 324.43 32.4231 328.112C37.4165 328.721 42.4735 327.767 46.9207 325.377C51.3331 322.991 55.4961 320.154 59.3455 316.913" fill="#3E548D"/>
<path opacity="0.34" d="M48.2679 313.016C43.44 312.617 38.7834 312.01 34.1347 313.458C31.7882 314.129 29.6111 315.307 27.7522 316.911C25.8932 318.514 24.3959 320.508 23.3623 322.754C27.9234 323.128 32.4994 322.249 36.6125 320.207C40.7012 318.169 44.602 315.763 48.2679 313.016Z" fill="#3E548D"/>
<path opacity="0.34" d="M64.0082 313.183C59.6585 310.282 55.1935 307.329 50.1289 306.128C45.0643 304.926 39.1977 305.811 35.6655 309.697C39.7645 312.146 44.7388 312.434 49.4919 312.431C54.245 312.428 60.0712 312.373 64.5518 313.986" fill="#3E548D"/>
<path opacity="0.34" d="M64.0333 313.415C56.5984 305.985 53.7795 292.637 56.7712 282.479C62.6407 291.624 65.2077 302.558 64.0333 313.415Z" fill="#3E548D"/>
<path opacity="0.34" d="M84.4785 292.362C85.8802 289.045 86.8675 285.563 88.1243 282.185C89.2715 278.757 91.0343 275.576 93.3229 272.804C95.6479 270.019 98.955 268.274 102.532 267.947C101.389 273.067 99.2087 277.887 96.1316 282.099C93.0544 286.312 89.1477 289.825 84.6607 292.414" fill="#3E548D"/>
<path opacity="0.34" d="M80.7782 296.748C78.4577 293.497 75.7775 289.085 72.63 286.66C71.1045 285.377 69.3229 284.447 67.4089 283.935C65.4947 283.425 63.4943 283.342 61.5461 283.697C63.5343 287.244 66.3078 290.272 69.6462 292.537C72.9848 294.803 76.7963 296.244 80.7782 296.748Z" fill="#3E548D"/>
<path opacity="0.34" d="M81.5179 292.634C79.8511 288.759 78.6201 284.703 77.8487 280.545C77.0853 276.352 77.7408 272.02 79.7083 268.254C83.7886 276.106 85.1046 284.533 81.7251 292.724" fill="#3E548D"/>
<path opacity="0.34" d="M84.5157 268.253C86.8269 260.471 93.8304 254.74 101.39 252.109C102.326 251.719 103.341 251.564 104.349 251.657C104.851 251.713 105.326 251.919 105.713 252.249C106.101 252.578 106.385 253.016 106.529 253.509C106.805 254.834 105.73 256.019 104.72 256.899C98.8087 262.036 91.9348 265.898 84.5142 268.252" fill="#3E548D"/>
<path opacity="0.34" d="M84.5983 261.888C84.6709 256.855 85.4133 251.856 86.8051 247.025C87.5143 244.611 88.6933 242.366 90.2718 240.426C91.8502 238.486 93.7962 236.889 95.9936 235.729C96.7583 240.8 94.5624 245.841 91.9117 250.202C89.2611 254.564 86.0684 258.68 84.4768 263.546" fill="#3E548D"/>
<path opacity="0.34" d="M84.4784 265.344C82.5675 259.671 82.3697 252.466 79.0276 247.526C76.6915 244.072 72.9538 241.718 70.9479 238.059C69.7336 241.568 69.901 245.419 71.4151 248.805C72.9331 252.152 75.0239 255.198 77.5901 257.801C80.0601 260.486 82.1735 262.505 84.4706 265.344" fill="#3E548D"/>
</g>
<path d="M84.5142 432.391C84.3584 432.391 84.237 394.55 84.2261 347.882C84.2152 301.214 84.3289 263.365 84.4768 263.365C84.6248 263.365 84.754 301.197 84.7649 347.882C84.7758 394.567 84.6637 432.391 84.5142 432.391Z" fill="#E0E0E0"/>
<path d="M117.007 319.041C116.558 319.264 116.088 319.442 115.606 319.575L111.759 320.895C108.515 322.021 104.058 323.649 99.2219 325.666C94.433 327.757 89.9166 329.456 87.3438 331.724C86.3172 332.594 85.5008 333.694 84.9579 334.937C84.5888 335.824 84.5234 336.363 84.4736 336.363C84.4549 336.23 84.4602 336.095 84.4892 335.965C84.5452 335.588 84.6365 335.216 84.7617 334.856C85.2504 333.536 86.0531 332.358 87.0978 331.431C88.6505 330.095 90.3866 328.998 92.2511 328.174C94.3131 327.194 96.5978 326.172 99.0242 325.162C103.875 323.138 108.368 321.563 111.639 320.529C113.279 320.009 114.617 319.626 115.545 319.372C116.021 319.215 116.511 319.104 117.007 319.041Z" fill="#E0E0E0"/>
<path d="M127.658 292.416C127.545 292.575 127.413 292.717 127.266 292.842L126.073 293.984L121.619 298.104L106.794 311.539C101.007 316.782 96.006 321.79 92.5393 325.562C90.8044 327.447 89.437 329.007 88.5057 330.097L87.428 331.348C87.3112 331.503 87.1757 331.642 87.0247 331.763C87.1086 331.59 87.2133 331.427 87.3361 331.279C87.5604 330.975 87.889 330.522 88.336 329.961C89.2206 328.827 90.5474 327.225 92.2512 325.302C96.7263 320.329 101.457 315.598 106.423 311.133C112.231 305.902 117.515 301.205 121.355 297.819L125.922 293.831L127.182 292.768C127.325 292.63 127.485 292.511 127.658 292.416Z" fill="#E0E0E0"/>
<path d="M100.546 316.864C100.39 316.796 101.603 313.956 102.809 310.366C104.014 306.776 104.597 303.742 104.751 303.766C104.624 306.086 104.14 308.372 103.316 310.54C102.8 312.088 102.199 313.607 101.518 315.087C101.28 315.724 100.952 316.322 100.546 316.864Z" fill="#E0E0E0"/>
<path d="M84.55 339.769C84.2181 339.449 83.9191 339.097 83.6576 338.715L81.373 335.729C79.4543 333.204 76.8005 329.72 73.8275 325.902C70.8544 322.084 68.1197 318.668 66.1403 316.192L63.8042 313.251C63.4986 312.905 63.2287 312.528 62.999 312.127C63.3533 312.42 63.6768 312.751 63.9646 313.113C64.5595 313.769 65.4021 314.736 66.4299 315.942C68.4857 318.356 71.2687 321.741 74.248 325.561C77.2272 329.381 79.8327 332.906 81.6766 335.493C82.5986 336.784 83.3321 337.84 83.8258 338.578C84.1072 338.948 84.3499 339.347 84.55 339.769Z" fill="#E0E0E0"/>
<path d="M77.425 330.46C75.9878 328.842 74.9626 326.889 74.4395 324.773C73.8791 322.919 73.6502 320.977 73.7636 319.04L74.0003 319.059C73.8944 319.497 73.8165 319.728 73.7745 319.722C73.7324 319.715 73.7293 319.47 73.7651 319.02L74.0034 319.039C74.1183 320.929 74.4353 322.801 74.9487 324.622C75.6293 326.629 76.4571 328.58 77.425 330.46Z" fill="#E0E0E0"/>
<path d="M68.2255 318.687C67.5844 318.188 66.8837 317.774 66.1402 317.454C64.2657 316.883 62.2946 316.721 60.3545 316.978C58.3901 317.132 56.4415 317.449 54.5284 317.929C53.7438 318.181 52.943 318.376 52.1316 318.514C52.8455 318.083 53.6187 317.763 54.4256 317.563C56.3404 316.962 58.3158 316.584 60.3141 316.433C62.3267 316.16 64.3743 316.384 66.2835 317.088C67.0936 317.374 67.7803 317.94 68.2255 318.687Z" fill="#E0E0E0"/>
<path d="M66.05 315.831C66.0079 315.916 64.8352 315.336 62.8574 314.648C57.6859 312.846 52.1482 312.417 46.7681 313.401C44.7092 313.775 43.4633 314.168 43.4353 314.078C43.6977 313.911 43.9833 313.788 44.2825 313.71C45.071 313.429 45.8763 313.2 46.6933 313.022C52.1292 311.811 57.7949 312.252 62.9866 314.29C63.7675 314.591 64.529 314.943 65.2666 315.342C65.5505 315.464 65.8147 315.629 66.05 315.831Z" fill="#E0E0E0"/>
<path d="M84.4784 303.764C82.7535 298.328 81.3718 292.784 80.342 287.168C81.2922 289.859 82.0724 292.609 82.6781 295.4C83.4521 298.147 84.0534 300.94 84.4784 303.764Z" fill="#E0E0E0"/>
<path d="M84.6262 303.765C83.8807 302.063 83.0184 300.416 82.0457 298.837C80.9535 297.348 79.6774 296.008 78.2488 294.85C78.7901 294.984 79.2925 295.247 79.7143 295.618C80.7928 296.42 81.7301 297.403 82.4864 298.524C83.641 300.048 84.3792 301.857 84.6262 303.765Z" fill="#E0E0E0"/>
<path d="M84.5158 412.218C84.4581 412.226 84.3491 411.309 83.9286 409.701C83.311 407.44 82.4764 405.246 81.4368 403.151C77.8567 396.302 73.4277 389.949 68.2583 384.248C65.3149 380.826 62.4586 377.591 60.0354 374.507C57.8614 371.787 55.8959 368.903 54.1563 365.877C52.9889 363.832 51.9957 361.691 51.1879 359.474C50.9154 358.681 50.7207 358.068 50.6054 357.642C50.5299 357.431 50.4776 357.212 50.4497 356.988C50.498 356.973 50.7612 357.854 51.3841 359.396C52.2616 361.567 53.2981 363.669 54.4849 365.682C56.2603 368.66 58.2444 371.504 60.4216 374.192C62.8542 377.251 65.7167 380.462 68.6632 383.889C73.8678 389.618 78.2814 396.042 81.7826 402.983C82.7995 405.113 83.586 407.348 84.128 409.651C84.2705 410.278 84.3801 410.914 84.4566 411.553C84.4996 411.771 84.5194 411.995 84.5158 412.218Z" fill="#E0E0E0"/>
<path d="M113.877 378.473C113.383 378.799 112.869 379.094 112.338 379.352C110.947 380.15 109.613 381.047 108.347 382.037C106.479 383.519 104.726 385.145 103.105 386.903C101.265 388.881 99.3669 391.183 97.4357 393.639C93.5688 398.578 89.9526 402.946 87.78 406.435C86.6789 408.164 85.88 409.624 85.3567 410.646C85.1096 411.191 84.8264 411.717 84.5095 412.223C84.5338 412.068 84.5822 411.919 84.6528 411.779C84.7665 411.497 84.9222 411.074 85.1698 410.552C85.8453 409.064 86.6098 407.62 87.4592 406.227C90.3975 401.734 93.587 397.416 97.0121 393.295C98.9495 390.829 100.868 388.528 102.743 386.551C104.4 384.79 106.199 383.175 108.122 381.722C109.422 380.749 110.801 379.89 112.245 379.157C112.754 378.897 113.17 378.737 113.446 378.617C113.581 378.547 113.727 378.498 113.877 378.473Z" fill="#E0E0E0"/>
<path d="M114.453 389.418C113.382 389.657 112.295 389.816 111.201 389.894C108.588 390.168 106.006 390.686 103.486 391.44C100.996 392.265 98.6613 393.512 96.5806 395.129C94.9874 396.381 94.2446 397.416 94.1636 397.357C94.2777 397.075 94.4408 396.817 94.6448 396.595C95.1511 395.951 95.7186 395.36 96.3392 394.829C98.3989 393.082 100.77 391.754 103.323 390.919C105.874 390.144 108.505 389.67 111.162 389.507C112.254 389.374 113.356 389.345 114.453 389.418Z" fill="#E0E0E0"/>
<path d="M95.1107 396.155C94.9409 396.057 96.4064 393.778 97.5433 390.714C98.6101 387.622 98.8593 384.91 99.0524 384.942C99.1338 385.533 99.1153 386.132 98.9979 386.717C98.8381 388.143 98.5199 389.548 98.0494 390.901C97.5561 392.245 96.9238 393.531 96.1635 394.738C95.8933 395.268 95.5374 395.746 95.1107 396.155Z" fill="#E0E0E0"/>
<path d="M123.378 349.072C123.217 349.188 123.042 349.281 122.858 349.354L121.331 350.061C120.661 350.353 119.848 350.724 118.932 351.215C118.016 351.706 116.94 352.195 115.817 352.876L114.044 353.903C113.421 354.265 112.819 354.696 112.175 355.105C110.867 355.911 109.557 356.907 108.158 357.921C102.167 362.462 96.9412 367.965 92.6857 374.215C91.7372 375.671 90.8044 377.039 90.0568 378.397C89.6737 379.071 89.2781 379.703 88.9418 380.342L87.9949 382.182C87.3626 383.341 86.9047 384.449 86.4702 385.4C86.0357 386.351 85.6837 387.186 85.419 387.879L84.7773 389.464C84.713 389.654 84.6261 389.834 84.5188 390.002C84.5479 389.804 84.6002 389.613 84.6745 389.427C84.8194 388.999 85.0016 388.463 85.2243 387.809C85.4579 387.104 85.7678 386.249 86.1945 385.286C86.6213 384.322 87.0417 383.193 87.6554 382.017L88.5773 380.15C88.9028 379.504 89.2953 378.86 89.6675 378.177C90.4041 376.8 91.3277 375.414 92.2745 373.939C96.5165 367.608 101.786 362.058 107.858 357.526C109.275 356.515 110.603 355.528 111.932 354.731C112.589 354.323 113.207 353.902 113.832 353.55L115.634 352.547C116.769 351.882 117.859 351.407 118.794 350.949C119.728 350.491 120.555 350.137 121.239 349.876L122.81 349.261C122.991 349.174 123.182 349.112 123.378 349.072Z" fill="#E0E0E0"/>
<path d="M100.147 364.915C100.363 364.15 100.81 363.472 101.424 362.979C102.855 361.714 104.678 361.004 106.573 360.969C108.431 360.961 110.273 361.327 111.991 362.047C112.719 362.28 113.41 362.62 114.039 363.059C113.295 362.91 112.565 362.695 111.859 362.413C110.16 361.822 108.377 361.519 106.582 361.516C104.802 361.555 103.08 362.17 101.666 363.273C101.121 363.782 100.613 364.331 100.147 364.915Z" fill="#E0E0E0"/>
<path d="M96.6758 368.565C98.2339 365.521 98.6375 362 97.8096 358.672C98.1209 359.084 98.3283 359.567 98.4138 360.081C99.0444 362.519 98.7474 365.11 97.5822 367.335C97.1274 368.171 96.7256 368.597 96.6758 368.565Z" fill="#E0E0E0"/>
<path opacity="0.31" d="M58.8345 417.641C59.635 432.102 63.9178 446.804 70.5039 461.679H99.1441C105.425 446.956 109.41 432.271 110.119 417.641H58.8345Z" fill="#3E548D"/>
<path d="M105.478 441.04C105.478 441.199 96.0481 441.313 84.4191 441.313C72.7902 441.313 63.3572 441.191 63.3572 441.04C63.3572 440.89 72.7855 440.768 84.4191 440.768C96.0528 440.768 105.478 440.89 105.478 441.04Z" fill="#FAFAFA"/>
<path d="M104.838 446.278C104.838 446.437 95.9982 446.553 85.095 446.553C74.1918 446.553 65.3506 446.431 65.3506 446.278C65.3506 446.126 74.1887 446.006 85.095 446.006C96.0013 446.006 104.838 446.128 104.838 446.278Z" fill="#FAFAFA"/>
<path d="M70.9649 427.137C71.3242 431.605 71.3242 436.095 70.9649 440.563C70.6071 436.095 70.6071 431.605 70.9649 427.137Z" fill="#FAFAFA"/>
<path d="M86.3099 427.137C86.6694 431.765 86.6694 436.414 86.3099 441.042C85.952 436.414 85.952 431.765 86.3099 427.137Z" fill="#FAFAFA"/>
<path d="M100.717 427.02C101.075 431.74 101.075 436.482 100.717 441.202C100.358 436.482 100.358 431.74 100.717 427.02Z" fill="#FAFAFA"/>
<path d="M109.211 427.136C109.211 427.294 98.1536 427.408 84.511 427.408C70.8684 427.408 59.8079 427.286 59.8079 427.136C59.8079 426.985 70.8652 426.861 84.511 426.861C98.1567 426.861 109.211 426.983 109.211 427.136Z" fill="#FAFAFA"/>
<path d="M399.961 416.558C395.371 411.044 394.761 402.192 395.435 395.002C396.109 387.813 397.749 380.568 396.636 373.431C395.974 369.202 394.362 365.165 393.819 360.921C393.275 356.676 394.046 351.876 397.279 349.134C400.993 345.984 406.844 346.728 410.708 349.685C414.572 352.643 416.812 357.293 418.448 361.918C422.044 372.092 423.362 383.372 420.409 393.757C417.456 404.141 410.526 413.428 400.361 416.561" fill="#3E548D"/>
<path d="M424.342 429.086C424.653 427.734 425.25 426.468 426.09 425.374C426.931 424.282 427.997 423.388 429.211 422.756C431.932 421.857 434.885 422.033 437.483 423.249C440.052 424.463 442.779 425.296 445.581 425.726C448.408 425.903 451.597 424.54 452.443 421.79C453.239 419.205 451.706 416.449 449.795 414.569C447.771 412.587 445.287 411.152 442.575 410.402C439.862 409.653 437.008 409.61 434.275 410.277C431.541 410.945 429.018 412.303 426.936 414.224C424.854 416.145 423.281 418.57 422.361 421.272" fill="#3E548D"/>
<g opacity="0.3">
<path opacity="0.3" d="M424.342 429.086C424.653 427.734 425.25 426.468 426.09 425.374C426.931 424.282 427.997 423.388 429.211 422.756C431.932 421.857 434.885 422.033 437.483 423.249C440.052 424.463 442.779 425.296 445.581 425.726C448.408 425.903 451.597 424.54 452.443 421.79C453.239 419.205 451.706 416.449 449.795 414.569C447.771 412.587 445.287 411.152 442.575 410.402C439.862 409.653 437.008 409.61 434.275 410.277C431.541 410.945 429.018 412.303 426.936 414.224C424.854 416.145 423.281 418.57 422.361 421.272" fill="black"/>
</g>
<path d="M401.958 440.641C397.812 436.633 398.019 429.656 400.089 424.229C402.409 418.848 406.527 414.476 411.711 411.891C416.633 409.26 422.077 407.799 427.632 407.615C433.189 407.433 438.715 408.533 443.793 410.833C441.306 410.942 438.885 411.67 436.737 412.952C434.591 414.236 432.786 416.033 431.481 418.19C429.209 422.03 428.704 426.69 426.827 430.746C424.711 435.319 420.954 438.891 416.329 440.731C411.704 442.572 406.561 442.538 401.959 440.64" fill="#3E548D"/>
<path d="M397.759 461.8C397.728 461.591 397.717 461.378 397.729 461.166C397.729 460.749 397.721 460.134 397.751 459.343C397.802 457.758 397.944 455.471 398.287 452.659C398.69 449.366 399.276 446.099 400.039 442.872C400.989 438.907 402.465 435.092 404.426 431.532C408.013 425.056 413.054 419.535 419.135 415.419C420.283 414.614 421.395 414.004 422.353 413.438C423.336 412.918 424.192 412.487 424.893 412.151L426.55 411.455C426.738 411.363 426.936 411.293 427.14 411.244C426.969 411.366 426.784 411.469 426.59 411.55L424.977 412.331C424.292 412.699 423.452 413.149 422.485 413.688C421.551 414.275 420.461 414.901 419.328 415.72C413.371 419.885 408.427 425.379 404.873 431.784C400.66 439.284 399.497 447.174 398.643 452.705C398.257 455.5 398.059 457.777 397.949 459.349C397.9 460.094 397.862 460.697 397.832 461.166C397.83 461.38 397.807 461.592 397.759 461.8Z" fill="#263238"/>
<path d="M357.867 401.285C349.374 406.5 349.401 411.247 350.819 415.726C352.238 420.205 357.451 423.318 361.771 421.641C364.146 420.49 366.136 418.653 367.494 416.36C368.841 414.074 370.547 412.03 372.543 410.305C373.559 409.46 374.803 408.95 376.11 408.841C377.416 408.731 378.726 409.029 379.863 409.695" fill="#3E548D"/>
<g opacity="0.3">
<path opacity="0.3" d="M357.867 401.285C349.374 406.5 349.401 411.247 350.819 415.726C352.238 420.205 357.451 423.318 361.771 421.641C364.146 420.49 366.136 418.653 367.494 416.36C368.841 414.074 370.547 412.03 372.543 410.305C373.559 409.46 374.803 408.95 376.11 408.841C377.416 408.731 378.726 409.029 379.863 409.695" fill="black"/>
</g>
<path d="M351.509 406.997C353.73 403.874 359.215 402.971 362.681 404.527C366.146 406.084 368.681 409.176 370.952 412.26C373.222 415.345 375.434 418.6 378.583 420.748C381.732 422.896 386.124 423.671 389.259 421.509C390.259 420.75 391.095 419.792 391.718 418.694C392.342 417.595 392.738 416.378 392.884 415.118C393.162 412.596 392.993 410.043 392.386 407.582C391.637 403.957 390.413 400.172 387.558 397.869C384.381 395.301 379.974 395.175 375.92 395.316C371.257 395.281 366.618 396.007 362.181 397.466C357.551 399.126 353.727 402.54 351.506 406.995" fill="#3E548D"/>
<path d="M390.4 461.356C390.357 461.111 390.335 460.86 390.336 460.61C390.315 460.069 390.287 459.356 390.251 458.465C390.192 456.546 390.109 453.869 390.008 450.577C389.899 447.248 389.76 443.286 389.522 438.886C389.284 434.486 388.953 429.658 388.299 424.631C388.024 422.185 387.555 419.767 386.898 417.399C386.223 415.213 385.356 413.096 384.303 411.07C382.551 407.615 380.234 404.489 377.451 401.825C375.562 400.046 373.426 398.557 371.115 397.404C370.489 397.086 369.846 396.8 369.19 396.548C368.958 396.468 368.732 396.366 368.518 396.244C368.759 396.29 368.996 396.36 369.225 396.452C369.899 396.663 370.558 396.921 371.198 397.222C373.57 398.317 375.759 399.78 377.692 401.557C380.544 404.217 382.919 407.361 384.71 410.85C385.79 412.894 386.683 415.035 387.374 417.248C388.047 419.641 388.525 422.089 388.806 424.561C389.464 429.616 389.771 434.458 389.992 438.861C390.213 443.264 390.304 447.234 390.369 450.566C390.435 453.897 390.449 456.589 390.452 458.459C390.452 459.353 390.452 460.066 390.442 460.606C390.45 460.857 390.436 461.107 390.4 461.356Z" fill="#263238"/>
<path d="M394.18 461.357C394.139 461.281 394.108 461.2 394.09 461.116L393.872 460.39C393.604 459.456 393.383 458.509 393.21 457.551C392.599 454.022 392.38 450.433 392.551 446.854C392.763 441.54 393.619 436.273 395.102 431.173C396.804 425.435 399.224 419.328 401.364 412.797C403.426 406.674 404.758 400.32 405.329 393.874C405.764 388.602 405.884 383.31 405.687 378.024C405.549 373.508 405.321 369.858 405.181 367.335C405.114 366.103 405.061 365.133 405.026 364.426C405.013 364.119 405.004 363.87 404.997 363.67C404.987 363.585 404.987 363.498 404.997 363.412C405.024 363.495 405.038 363.58 405.043 363.667C405.063 363.869 405.089 364.116 405.122 364.42C405.183 365.124 405.267 366.092 405.374 367.321C405.574 369.841 405.857 373.491 406.041 378.011C406.29 383.31 406.206 388.619 405.79 393.908C405.242 400.396 403.915 406.791 401.841 412.95C399.693 419.506 397.262 425.6 395.544 431.304C394.052 436.363 393.168 441.587 392.906 446.862C392.705 450.419 392.872 453.987 393.403 457.507C393.615 458.749 393.8 459.712 393.97 460.36L394.138 461.097C394.164 461.181 394.178 461.268 394.18 461.357Z" fill="#263238"/>
<path d="M148.231 326.26H115.185C114.703 326.26 114.226 326.164 113.78 325.977C113.334 325.788 112.93 325.514 112.589 325.167C112.248 324.819 111.977 324.407 111.792 323.954C111.608 323.501 111.513 323.016 111.513 322.524C111.513 321.534 111.9 320.583 112.589 319.882C113.277 319.18 114.211 318.787 115.185 318.787H148.231C149.205 318.787 150.139 319.18 150.828 319.882C151.517 320.583 151.904 321.534 151.904 322.524C151.904 323.016 151.809 323.501 151.624 323.954C151.439 324.407 151.169 324.819 150.828 325.167C150.487 325.514 150.082 325.788 149.636 325.977C149.191 326.164 148.713 326.26 148.231 326.26Z" fill="#263238"/>
<path d="M149.128 324.229H100.502C92.7922 324.229 86.542 330.589 86.542 338.436V434.155C86.542 442.003 92.7922 448.363 100.502 448.363H149.128C156.839 448.363 163.089 442.003 163.089 434.155V338.436C163.089 330.589 156.839 324.229 149.128 324.229Z" fill="#FF5005"/>
<g opacity="0.3">
<path opacity="0.3" d="M149.128 324.229H100.502C92.7922 324.229 86.542 330.589 86.542 338.436V434.155C86.542 442.003 92.7922 448.363 100.502 448.363H149.128C156.839 448.363 163.089 442.003 163.089 434.155V338.436C163.089 330.589 156.839 324.229 149.128 324.229Z" fill="black"/>
</g>
<path d="M167.304 324.229H118.678C110.968 324.229 104.718 330.589 104.718 338.436V434.155C104.718 442.003 110.968 448.363 118.678 448.363H167.304C175.015 448.363 181.265 442.003 181.265 434.155V338.436C181.265 330.589 175.015 324.229 167.304 324.229Z" fill="#FF5005"/>
<path d="M180.615 427.614C180.615 427.772 163.559 427.896 142.522 427.896C121.485 427.896 104.425 427.771 104.425 427.614C104.425 427.457 121.479 427.33 142.522 427.33C163.565 427.33 180.615 427.457 180.615 427.614Z" fill="#263238"/>
<path d="M180.615 410.505C180.615 410.663 163.559 410.788 142.522 410.788C121.485 410.788 104.425 410.662 104.425 410.505C104.425 410.348 121.479 410.223 142.522 410.223C163.565 410.223 180.615 410.348 180.615 410.505Z" fill="#263238"/>
<path d="M180.615 393.395C180.615 393.554 163.559 393.679 142.522 393.679C121.485 393.679 104.425 393.552 104.425 393.395C104.425 393.238 121.479 393.113 142.522 393.113C163.565 393.113 180.615 393.24 180.615 393.395Z" fill="#263238"/>
<path d="M180.615 376.278C180.615 376.437 163.559 376.56 142.522 376.56C121.485 376.56 104.425 376.435 104.425 376.278C104.425 376.121 121.479 375.996 142.522 375.996C163.565 375.996 180.615 376.128 180.615 376.278Z" fill="#263238"/>
<path d="M180.615 359.175C180.615 359.333 163.559 359.458 142.522 359.458C121.485 359.458 104.425 359.332 104.425 359.175C104.425 359.018 121.479 358.893 142.522 358.893C163.565 358.893 180.615 359.019 180.615 359.175Z" fill="#263238"/>
<path d="M180.615 342.065C180.615 342.224 163.559 342.347 142.522 342.347C121.485 342.347 104.425 342.221 104.425 342.065C104.425 341.91 121.479 341.783 142.522 341.783C163.565 341.783 180.615 341.91 180.615 342.065Z" fill="#263238"/>
<path d="M168.574 455.082C168.574 456.41 168.186 457.71 167.462 458.815C166.736 459.919 165.705 460.78 164.498 461.289C163.292 461.797 161.964 461.931 160.684 461.672C159.404 461.412 158.226 460.772 157.304 459.832C156.381 458.894 155.752 457.696 155.497 456.393C155.242 455.09 155.373 453.738 155.873 452.511C156.373 451.283 157.219 450.234 158.304 449.495C159.39 448.758 160.667 448.363 161.972 448.363C163.722 448.363 165.401 449.072 166.639 450.332C167.877 451.592 168.574 453.3 168.574 455.082Z" fill="#263238"/>
<path d="M173.169 455.082C173.169 456.41 172.782 457.71 172.057 458.815C171.332 459.919 170.301 460.78 169.094 461.289C167.888 461.797 166.561 461.931 165.28 461.672C164 461.412 162.824 460.772 161.9 459.834C160.977 458.894 160.348 457.697 160.094 456.394C159.838 455.09 159.969 453.739 160.467 452.511C160.967 451.284 161.813 450.235 162.899 449.497C163.984 448.758 165.261 448.363 166.566 448.363C168.317 448.363 169.997 449.072 171.235 450.33C172.473 451.59 173.169 453.3 173.169 455.082Z" fill="#455A64"/>
<path d="M116.046 455.082C116.046 456.41 115.659 457.71 114.934 458.815C114.208 459.919 113.177 460.78 111.971 461.289C110.765 461.797 109.437 461.931 108.157 461.672C106.876 461.412 105.7 460.772 104.777 459.832C103.853 458.894 103.225 457.696 102.97 456.393C102.715 455.09 102.846 453.738 103.346 452.511C103.845 451.283 104.691 450.234 105.777 449.495C106.863 448.758 108.139 448.363 109.445 448.363C111.196 448.363 112.874 449.072 114.112 450.332C115.35 451.592 116.046 453.3 116.046 455.082Z" fill="#263238"/>
<path d="M120.642 455.082C120.642 456.41 120.255 457.71 119.53 458.815C118.804 459.919 117.773 460.78 116.567 461.289C115.36 461.797 114.033 461.931 112.752 461.672C111.472 461.412 110.296 460.772 109.372 459.832C108.449 458.894 107.82 457.696 107.566 456.393C107.311 455.09 107.442 453.738 107.941 452.511C108.441 451.283 109.287 450.234 110.373 449.495C111.458 448.758 112.735 448.363 114.04 448.363C115.791 448.363 117.471 449.072 118.709 450.332C119.947 451.592 120.642 453.3 120.642 455.082Z" fill="#455A64"/>
<path d="M99.2299 363.344C99.2299 361.041 97.3961 359.176 95.134 359.176C92.8719 359.176 91.0381 361.041 91.0381 363.344V399.352C91.0381 401.653 92.8719 403.52 95.134 403.52C97.3961 403.52 99.2299 401.653 99.2299 399.352V363.344Z" fill="#263238"/>
<path d="M96.7225 447.247C96.6278 447.191 96.5395 447.126 96.4593 447.052L95.7195 446.432C94.8279 445.563 94.0642 444.57 93.452 443.479C91.7778 440.658 90.7889 435.889 90.8216 430.08C91.0163 418.47 91.4601 402.459 91.9117 384.766C92.4163 367.085 92.8742 351.084 93.2044 339.455C93.181 336.833 93.4068 334.215 93.8787 331.638C94.2724 329.674 95.1702 327.851 96.4811 326.355C97.3071 325.41 98.3498 324.687 99.5164 324.253C99.919 324.099 100.341 324.004 100.77 323.973C100.77 324.006 100.332 324.053 99.5554 324.361C98.4306 324.83 97.4316 325.566 96.6399 326.504C95.3883 327.991 94.5404 329.785 94.1808 331.709C93.7454 334.27 93.5493 336.868 93.5953 339.467C93.3056 351.098 92.9054 367.101 92.4646 384.783C91.974 402.455 91.5302 418.454 91.2047 430.081C91.1237 435.86 92.0426 440.564 93.6311 443.375C94.4335 444.838 95.4794 446.148 96.7225 447.247Z" fill="#263238"/>
<path d="M227.9 241.25L213.359 250.847L212.037 265.803C212.037 265.803 216.317 267.836 222.593 262.027C228.869 256.218 237.047 244.442 237.047 244.442L227.9 241.25Z" fill="#FFBE9D"/>
<path d="M227.256 247.391L222.49 222.797L209.779 227.919L213.027 260.311L227.256 247.391Z" fill="#FFBE9D"/>
<path d="M261.705 216.259C261.613 216.001 261.456 215.772 261.252 215.595C261.046 215.417 260.798 215.295 260.534 215.245L251.397 213.449C250.998 213.378 250.59 213.392 250.197 213.492C249.805 213.593 249.437 213.775 249.12 214.031L221.528 236.122L222.657 237.39L232.414 240.417L261.865 216.692L261.705 216.259Z" fill="#263238"/>
<path d="M254.296 217.806C254.329 217.942 254.402 218.065 254.508 218.156C254.612 218.247 254.743 218.302 254.88 218.315C255.017 218.326 255.154 218.293 255.273 218.221C255.391 218.149 255.485 218.041 255.539 217.911C255.594 217.782 255.606 217.64 255.576 217.502C255.547 217.366 255.475 217.242 255.372 217.148C255.27 217.055 255.14 216.996 255.003 216.982C254.866 216.968 254.728 216.998 254.608 217.068C254.472 217.126 254.363 217.236 254.306 217.373C254.248 217.511 254.243 217.667 254.296 217.806Z" fill="white"/>
<path d="M261.865 216.701C261.259 216.669 260.657 216.588 260.063 216.458L255.193 215.588L251.836 214.954C251.559 214.884 251.267 214.878 250.987 214.938C250.707 214.997 250.443 215.119 250.216 215.296L248.64 216.564L241.587 222.227C236.572 226.234 232.012 229.835 228.696 232.42L224.75 235.457C224.28 235.849 223.781 236.2 223.256 236.511C223.677 236.066 224.132 235.655 224.616 235.284L228.453 232.105C231.708 229.44 236.228 225.789 241.242 221.784L248.322 216.155L249.922 214.887C250.204 214.675 250.528 214.528 250.872 214.458C251.216 214.388 251.569 214.394 251.911 214.48L255.26 215.176L260.104 216.223C260.702 216.334 261.292 216.494 261.865 216.701Z" fill="#455A64"/>
<path d="M248.797 223.492C248.797 223.492 248.067 223.08 246.918 225.099C245.768 227.118 242.322 232.857 242.322 232.857L238.98 229.243L233.655 228.156C233.655 228.156 232.193 228.819 232.819 229.668C233.937 230.66 235.164 231.515 236.475 232.218L237.69 236.518L231.984 230.813C231.984 230.813 229.506 230.63 229.701 232.276C230.584 234.922 231.694 237.487 233.019 239.936L229.688 238.49L226.461 234.572C226.461 234.572 225.195 234.2 225.3 235.442C226.114 237.733 227.128 239.945 228.329 242.052L232.61 246.356C232.61 246.356 235.483 247.1 236.036 246.356C236.439 245.757 236.779 245.115 237.05 244.443C237.05 244.443 238.671 244.55 239.193 243.911C239.562 243.35 239.811 242.717 239.925 242.052C239.925 242.052 242.118 243.275 242.848 242.052C243.605 240.475 244.099 238.782 244.31 237.04C244.415 235.94 248.8 226.907 248.8 226.587C248.8 226.267 250.47 223.371 248.797 223.492Z" fill="#FFBE9D"/>
<path d="M236.207 246.435C235.72 246.547 235.211 246.535 234.729 246.395C232.345 245.942 230.221 244.582 228.786 242.591C228.254 241.829 228.051 241.285 228.111 241.252C230.106 243.918 232.984 245.758 236.209 246.432L236.207 246.435Z" fill="#EB996E"/>
<path d="M235.619 244.144C235.499 244.237 234.751 243.438 234.054 242.292C233.552 241.641 233.23 240.864 233.119 240.045C233.258 239.974 233.843 240.874 234.53 241.994C235.217 243.115 235.743 244.042 235.619 244.144Z" fill="#EB996E"/>
<path d="M239.816 240.567C239.697 240.661 238.954 239.876 238.332 238.705C237.874 238.035 237.62 237.24 237.604 236.424C237.76 236.369 238.215 237.309 238.819 238.436C239.423 239.562 239.94 240.471 239.816 240.567Z" fill="#EB996E"/>
<path d="M243.864 237.918C243.345 236.251 242.792 234.595 242.203 232.951C242.826 233.601 243.298 234.384 243.585 235.245C243.871 236.104 243.968 237.017 243.864 237.918Z" fill="#EB996E"/>
<path d="M179.486 124.97C180.153 122.284 181.603 119.867 183.646 118.037C185.689 116.208 188.229 115.051 190.931 114.721C193.633 114.39 196.371 114.901 198.782 116.187C201.193 117.471 203.165 119.47 204.437 121.919C206.815 126.498 206.773 132.589 210.719 135.867C213.426 138.111 217.359 138.364 220.001 140.685C225.599 145.598 222.353 156.523 228.287 161.014C224.572 164.092 220.198 166.236 215.516 167.273C215.175 165.648 214.375 164.161 213.214 162.993C213.591 164.42 213.521 165.929 213.017 167.312C212.512 168.696 211.596 169.886 210.397 170.717C207.96 172.329 205.188 173.337 202.299 173.662C195.437 174.911 188.337 175.614 181.529 174.085C174.722 172.555 168.191 168.509 164.979 162.212C164.333 160.537 163.402 158.99 162.227 157.644C160.651 156.528 158.912 155.672 157.072 155.108C154.675 153.975 152.662 152.143 151.287 149.846C149.912 147.548 149.237 144.888 149.348 142.2C153.864 141.912 156.949 137.49 158.768 133.278C160.587 129.067 162.051 124.319 165.759 121.689C166.994 120.813 168.41 120.235 169.899 119.999C171.386 119.764 172.908 119.877 174.345 120.33C175.784 120.783 177.102 121.565 178.2 122.615C179.296 123.664 180.143 124.955 180.676 126.388" fill="#263238"/>
<path d="M168.849 135.038L168.656 131.181L191.304 126.052C198.312 125.074 206.121 131.998 206.782 139.159C207.519 147.114 208.109 156.857 207.363 162.834C205.862 174.853 196.901 176.658 196.901 176.658L197.212 191.276L171.263 190.325L168.849 135.038Z" fill="#FFBE9D"/>
<path d="M203.661 148.037C203.675 148.434 203.537 148.822 203.275 149.118C203.014 149.414 202.649 149.594 202.26 149.622C202.068 149.643 201.875 149.626 201.691 149.57C201.506 149.514 201.335 149.422 201.187 149.297C201.037 149.173 200.914 149.02 200.825 148.847C200.735 148.673 200.681 148.484 200.665 148.289C200.649 147.89 200.786 147.5 201.048 147.202C201.31 146.904 201.676 146.722 202.067 146.694C202.258 146.673 202.453 146.691 202.637 146.748C202.822 146.804 202.993 146.897 203.143 147.023C203.291 147.148 203.414 147.302 203.503 147.476C203.591 147.65 203.646 147.841 203.661 148.037Z" fill="#263238"/>
<path d="M204.453 144.319C204.272 144.524 203.104 143.701 201.481 143.757C199.861 143.788 198.696 144.674 198.522 144.479C198.433 144.392 198.612 144.025 199.119 143.625C199.805 143.108 200.632 142.819 201.487 142.799C202.331 142.769 203.161 143.013 203.859 143.497C204.362 143.869 204.543 144.226 204.453 144.319Z" fill="#263238"/>
<path d="M188.556 148.744C188.572 149.143 188.435 149.532 188.173 149.83C187.912 150.127 187.546 150.309 187.155 150.337C186.963 150.358 186.77 150.341 186.585 150.285C186.401 150.23 186.23 150.137 186.08 150.013C185.932 149.889 185.809 149.735 185.719 149.562C185.63 149.389 185.575 149.199 185.558 149.004C185.543 148.605 185.68 148.215 185.941 147.917C186.203 147.619 186.569 147.437 186.96 147.409C187.152 147.388 187.345 147.405 187.53 147.461C187.714 147.517 187.887 147.61 188.035 147.734C188.184 147.858 188.306 148.012 188.396 148.185C188.486 148.359 188.541 148.549 188.556 148.744Z" fill="#263238"/>
<path d="M188.521 145.13C188.34 145.336 187.17 144.512 185.549 144.567C183.928 144.623 182.764 145.486 182.59 145.29C182.501 145.203 182.679 144.837 183.188 144.436C183.875 143.918 184.702 143.63 185.555 143.61C186.398 143.58 187.229 143.825 187.927 144.307C188.429 144.68 188.609 145.036 188.521 145.13Z" fill="#263238"/>
<path d="M194.773 157.184C195.62 156.885 196.5 156.694 197.393 156.617C197.805 156.56 198.195 156.459 198.257 156.175C198.279 155.739 198.17 155.307 197.946 154.935C197.53 153.927 197.089 152.871 196.623 151.765C195.404 149.083 194.399 146.304 193.618 143.457C195.046 146.034 196.268 148.723 197.274 151.499C197.718 152.613 198.142 153.677 198.547 154.691C198.822 155.192 198.916 155.774 198.812 156.338C198.755 156.488 198.667 156.622 198.551 156.732C198.438 156.842 198.299 156.924 198.15 156.972C197.922 157.042 197.687 157.083 197.45 157.094C196.566 157.24 195.666 157.27 194.773 157.184Z" fill="#263238"/>
<path d="M196.898 176.691C191.237 176.959 185.611 175.649 180.628 172.904C180.628 172.904 184.853 181.146 196.98 179.674L196.898 176.691Z" fill="#EB996E"/>
<path d="M194.219 161.185C193.9 160.8 193.488 160.505 193.024 160.326C192.562 160.147 192.062 160.092 191.571 160.163C191.215 160.207 190.869 160.325 190.558 160.507C190.246 160.691 189.975 160.935 189.759 161.228C189.55 161.51 189.432 161.851 189.419 162.203C189.407 162.556 189.502 162.903 189.69 163.2C189.959 163.487 190.308 163.686 190.69 163.77C191.071 163.856 191.47 163.823 191.833 163.675C192.59 163.374 193.281 162.924 193.867 162.35C194.046 162.212 194.199 162.043 194.315 161.848C194.372 161.754 194.4 161.646 194.396 161.537C194.392 161.428 194.356 161.323 194.294 161.234" fill="#EB996E"/>
<path d="M190.041 158.477C190.304 158.453 190.361 160.244 191.909 161.468C193.457 162.691 195.323 162.436 195.343 162.686C195.372 162.797 194.937 163.048 194.144 163.094C193.113 163.141 192.099 162.818 191.28 162.179C190.494 161.566 189.974 160.664 189.827 159.667C189.737 158.921 189.919 158.47 190.041 158.477Z" fill="#263238"/>
<path d="M188.746 140.458C188.6 140.913 186.974 140.75 185.079 141.043C183.177 141.298 181.66 141.913 181.395 141.519C181.277 141.328 181.532 140.899 182.138 140.444C182.951 139.885 183.878 139.521 184.85 139.381C185.821 139.241 186.812 139.328 187.745 139.636C188.435 139.902 188.805 140.243 188.746 140.458Z" fill="#263238"/>
<path d="M204.231 138.66C203.957 139.044 202.83 138.689 201.484 138.714C200.14 138.691 199.011 139.044 198.737 138.66C198.617 138.473 198.785 138.093 199.271 137.722C199.927 137.276 200.696 137.037 201.484 137.037C202.274 137.037 203.043 137.276 203.699 137.722C204.183 138.093 204.351 138.473 204.231 138.66Z" fill="#263238"/>
<path d="M190.955 126.559C190.793 129.073 189.9 131.482 188.393 133.479C186.885 135.477 184.829 136.975 182.484 137.783C180.607 138.391 178.239 138.838 177.631 140.746C177.008 142.723 178.813 144.533 179.665 146.419C180.171 147.591 180.325 148.889 180.111 150.151C179.896 151.412 179.321 152.581 178.457 153.512C177.461 154.547 176.136 155.219 175.195 156.308C174.593 157.051 174.163 157.922 173.934 158.858C173.707 159.793 173.689 160.768 173.881 161.711C174.288 163.602 175.267 165.317 176.684 166.608C172.241 166.867 167.365 164.565 165.918 160.281C165.291 157.65 165.267 154.906 165.851 152.264C166.649 146.165 166.895 140.004 166.586 133.858C166.42 132.821 166.589 131.757 167.069 130.826C167.734 130.045 168.636 129.511 169.633 129.308C175.901 127.319 182.292 125.756 188.765 124.629" fill="#263238"/>
<path d="M188.32 124.822C189.436 127.178 190.908 129.342 192.68 131.236C193.577 132.176 194.675 132.892 195.888 133.329C197.102 133.766 198.399 133.911 199.676 133.753L198.313 131.42C201.9 135.172 206.214 138.123 210.983 140.085C208.636 135.597 206.209 131.003 202.456 127.646C198.703 124.289 193.281 122.376 188.606 124.169" fill="#263238"/>
<path d="M198.667 186.559L169.707 184.293L174.571 199.899L199.346 208.299L202.632 202.639L198.667 186.559Z" fill="#FFBE9D"/>
<path d="M143.698 211.902C140.226 210.759 136.547 210.419 132.93 210.904C129.312 211.389 125.846 212.687 122.783 214.706C119.721 216.725 117.138 219.412 115.224 222.574C113.309 225.734 112.111 229.291 111.715 232.982C110.951 240.137 113.229 247.423 112.027 254.516C111.141 259.735 108.426 264.46 107.222 269.616C104.628 280.728 109.828 292.995 118.982 299.603C128.136 306.211 140.58 307.316 151.148 303.477L162.008 286.101L154.813 219.447L143.696 211.899" fill="#455A64"/>
<path d="M161.045 259.115C161.045 259.115 158.57 272.652 160.056 274.7C161.036 275.955 162.455 276.779 164.015 277L212.037 273.221L213.627 246.323C213.627 246.323 218.47 227.88 216.242 220.071C214.013 212.262 204.459 188.332 204.459 188.332L197.103 186.092C197.103 186.092 197.103 193.9 194.387 194.404C191.671 194.908 178.598 194.992 172.182 186.569L169.707 184.303L156.012 194.456L162.28 249.545L161.045 259.115Z" fill="#FF5005"/>
<path d="M139.392 210.935C139.392 210.935 148.34 197.269 151.924 193.41C157.56 187.339 165.512 184.865 167.423 185.99C170.038 187.529 183.113 201.379 184.16 210.725C185.207 220.072 184.16 243.263 184.16 243.263L173.113 246.649L172.981 235.443L171.153 207.893C171.153 207.893 166.621 194.936 156.013 194.443C156.013 194.443 144.928 203.928 144.525 213.059L139.392 210.935Z" fill="#455A64"/>
<path d="M165.141 262.538L142.99 283.107L148.843 291.051C148.843 291.051 175.786 273.575 178.598 256.158L165.141 262.538Z" fill="#455A64"/>
<path d="M137.122 305.685C135.987 305.047 134.918 304.294 133.931 303.436C131.199 301.119 128.958 298.261 127.342 295.036C126.221 292.814 125.375 290.46 124.822 288.027C124.24 285.228 123.941 282.375 123.93 279.513C124.016 272.98 124.687 266.469 125.933 260.061C127.171 253.681 127.917 247.213 128.163 240.716C128.208 237.885 128.011 235.058 127.576 232.262C127.154 229.637 126.612 227.203 126.339 224.935C126.04 222.893 126.037 220.818 126.328 218.777C126.558 217.233 127.051 215.74 127.786 214.369C128.249 213.504 128.848 212.721 129.56 212.052C129.802 211.814 130.068 211.602 130.353 211.418C129.389 212.283 128.584 213.317 127.976 214.469C127.29 215.832 126.837 217.303 126.635 218.82C126.381 220.833 126.413 222.873 126.729 224.878C127.023 227.119 127.585 229.539 128.031 232.181C128.491 235.001 128.707 237.857 128.675 240.714C128.459 247.243 127.726 253.743 126.482 260.151C125.241 266.527 124.559 273.003 124.444 279.503C124.442 282.331 124.72 285.151 125.276 287.921C125.803 290.322 126.615 292.651 127.696 294.852C129.265 298.054 131.434 300.912 134.081 303.265C134.54 303.692 134.976 304.036 135.356 304.334C135.736 304.631 136.057 304.883 136.328 305.071L136.936 305.513C137.06 305.621 137.129 305.678 137.122 305.685Z" fill="#263238"/>
<path d="M126.825 253.797C124.284 254.078 121.725 254.173 119.171 254.079C116.615 254.173 114.056 254.078 111.513 253.797C114.055 253.515 116.615 253.42 119.171 253.513C121.725 253.42 124.284 253.515 126.825 253.797Z" fill="#263238"/>
<path d="M204.459 188.324C204.459 188.324 213.084 192.255 216.05 197.227C219.017 202.199 227.042 230.643 227.042 230.643L215.75 232.919L204.459 188.324Z" fill="#FF5005"/>
<path d="M210.715 229.38C210.715 229.38 208.111 203.387 207.024 201.694C205.937 200.001 204.185 187.336 198.668 186.562C201.869 187.314 204.952 188.51 207.832 190.116C211.185 192.306 214.84 204.121 214.84 204.121L216.955 224.725L210.715 229.38Z" fill="#455A64"/>
<path d="M141.89 206.607C141.463 205.965 140.924 205.409 140.299 204.965C139.609 204.532 138.821 204.283 138.01 204.245C137.017 204.222 136.036 204.478 135.176 204.984C133.6 205.962 132.374 207.426 131.675 209.165C131.094 210.493 130.863 211.384 130.776 211.359C130.804 210.549 130.986 209.752 131.312 209.013C131.948 207.122 133.22 205.521 134.903 204.493C135.854 203.935 136.943 203.67 138.038 203.729C138.931 203.794 139.789 204.109 140.518 204.637C140.869 204.849 141.173 205.135 141.409 205.474C141.646 205.813 141.809 206.2 141.89 206.607Z" fill="#263238"/>
<path d="M171.153 207.899C170.886 207.427 170.657 206.936 170.466 206.427C170.358 206.181 170.243 205.913 170.119 205.626L169.625 204.709L169.057 203.65L168.311 202.523C167.055 200.661 165.484 199.039 163.67 197.736C161.402 196.093 158.764 195.056 155.998 194.725H155.971C153.905 194.66 151.876 195.291 150.198 196.519L150.254 196.47L150.049 196.719C145.801 201.811 141.981 207.257 138.63 213C137.344 215.204 136.359 217.024 135.69 218.287L134.911 219.74C134.832 219.916 134.73 220.081 134.609 220.232C134.652 220.043 134.72 219.863 134.81 219.691C134.966 219.346 135.182 218.834 135.493 218.189C136.106 216.892 137.038 215.039 138.286 212.8C141.554 206.97 145.349 201.464 149.622 196.353L149.829 196.104L149.854 196.074L149.884 196.055C150.814 195.443 151.814 194.948 152.861 194.581C153.88 194.2 154.971 194.066 156.049 194.184H156.023C158.884 194.532 161.609 195.624 163.936 197.354C165.774 198.71 167.353 200.396 168.592 202.331L169.318 203.496L169.86 204.587L170.327 205.538L170.639 206.363C170.849 206.861 171.02 207.375 171.153 207.899Z" fill="#263238"/>
<path d="M161.815 272.529C161.048 273.285 160.198 273.946 159.281 274.501C154.968 277.382 150.182 279.454 145.151 280.614C144.121 280.903 143.062 281.068 141.995 281.106C142.998 280.752 144.019 280.459 145.056 280.227C149.978 278.866 154.694 276.826 159.072 274.163C159.953 273.564 160.869 273.019 161.815 272.529Z" fill="#263238"/>
<path d="M289.442 386.198L282.701 452.789L262.113 452.502L260.633 382.139L289.442 386.198Z" fill="#FFBE9D"/>
<path d="M283.301 446.445V447.84C283.301 447.84 306.492 457.391 306.727 461.874L260.629 461.51L261.375 445.904C264.778 447.591 268.497 448.512 272.279 448.605C276.064 448.699 279.822 447.962 283.301 446.445Z" fill="#455A64"/>
<g opacity="0.6">
<path opacity="0.6" d="M266.009 450.93C265.566 451.065 265.186 451.36 264.941 451.763C264.698 452.164 264.609 452.642 264.69 453.107C264.806 453.563 265.087 453.958 265.48 454.208C265.872 454.46 266.344 454.547 266.799 454.455C267.269 454.313 267.673 453.997 267.928 453.571C268.184 453.145 268.275 452.636 268.184 452.145C268.015 451.68 267.677 451.301 267.241 451.086C266.804 450.87 266.301 450.835 265.84 450.989" fill="white"/>
</g>
<g opacity="0.6">
<path opacity="0.6" d="M260.633 461.507L260.812 457.754L304.927 459.478C304.927 459.478 306.971 460.402 306.729 461.872L260.633 461.507Z" fill="white"/>
</g>
<path d="M283.464 447.972C283.455 448.2 282.329 448.289 281.216 449.023C280.083 449.721 279.503 450.709 279.299 450.615C279.091 450.569 279.439 449.203 280.8 448.346C282.161 447.488 283.514 447.762 283.464 447.972Z" fill="#263238"/>
<path d="M288.283 450.044C288.331 450.266 287.349 450.649 286.582 451.611C285.782 452.551 285.582 453.596 285.357 453.586C285.145 453.619 285 452.277 285.98 451.099C286.959 449.922 288.28 449.827 288.283 450.044Z" fill="#263238"/>
<path d="M290.983 455.956C290.779 456.004 290.474 454.856 291.063 453.607C291.652 452.358 292.706 451.864 292.801 452.059C292.927 452.249 292.239 452.916 291.772 453.95C291.304 454.983 291.206 455.936 290.983 455.956Z" fill="#263238"/>
<path d="M295.534 402.939L326.847 439.235L312.14 453.903L274.98 420.867L295.534 402.939Z" fill="#FFBE9D"/>
<path d="M322.846 434.338L323.819 435.319C323.819 435.319 346.818 425.3 350.109 428.289L317.376 461.323L307.021 449.789C310.594 448.52 313.857 446.483 316.587 443.817C319.317 441.151 321.452 437.918 322.846 434.338Z" fill="#455A64"/>
<g opacity="0.6">
<path opacity="0.6" d="M313.782 449.987C313.562 450.403 313.501 450.886 313.61 451.344C313.718 451.802 313.989 452.205 314.37 452.473C314.769 452.71 315.244 452.785 315.694 452.679C316.146 452.572 316.54 452.293 316.795 451.9C317.027 451.46 317.091 450.948 316.974 450.463C316.856 449.976 316.566 449.553 316.16 449.273C315.718 449.066 315.215 449.044 314.757 449.208C314.297 449.372 313.919 449.71 313.701 450.152" fill="white"/>
</g>
<g opacity="0.6">
<path opacity="0.6" d="M317.376 461.319L314.885 458.545L347.169 427.9C347.169 427.9 349.254 427.074 350.108 428.286L317.376 461.319Z" fill="white"/>
</g>
<path d="M324.026 435.296C324.182 435.464 323.452 436.344 323.174 437.661C322.863 438.97 323.145 440.083 322.935 440.167C322.757 440.284 322.047 439.071 322.41 437.482C322.773 435.892 323.916 435.112 324.026 435.296Z" fill="#263238"/>
<path d="M328.867 433.277C329.057 433.397 328.634 434.374 328.762 435.608C328.854 436.848 329.441 437.731 329.276 437.884C329.15 438.06 328.111 437.22 327.982 435.68C327.853 434.139 328.712 433.125 328.867 433.277Z" fill="#263238"/>
<path d="M334.891 435.49C334.78 435.67 333.766 435.082 333.308 433.778C332.85 432.474 333.252 431.364 333.453 431.431C333.674 431.473 333.654 432.442 334.045 433.507C334.412 434.581 335.034 435.314 334.891 435.49Z" fill="#263238"/>
<path d="M162.156 195.198C161.031 194.28 159.614 193.815 158.175 193.893C156.734 193.972 155.374 194.589 154.353 195.624C150.433 199.609 144.743 206.307 144.57 211.741C144.307 220.056 142.989 242.051 142.989 242.051L173.034 240.979C173.034 240.979 173.034 211.743 170.399 205.037C168.908 201.246 165.146 197.624 162.156 195.198Z" fill="#FF5005"/>
<path d="M146.457 242.05C146.457 242.05 144.744 258.872 146.649 266.589C148.617 274.572 152.503 274.453 155.781 274.691C159.06 274.929 210.687 247.39 210.687 247.39L204.957 237.037L166.085 248.953L166.446 241.229L146.457 242.05Z" fill="#FFBE9D"/>
<path d="M204.627 237.35L213.946 225.475L222.356 223.492L232.61 224.64C232.711 225.123 232.644 225.627 232.418 226.065C232.194 226.502 231.827 226.848 231.38 227.039L234.969 227.247C235.066 227.513 235.108 227.799 235.094 228.082C235.078 228.366 235.005 228.643 234.881 228.899C234.756 229.152 234.582 229.377 234.367 229.561C234.153 229.743 233.904 229.88 233.636 229.96L236.2 230.418C235.862 231.178 235.285 231.802 234.561 232.19C233.839 232.58 233.007 232.714 232.2 232.569C229.685 232.221 227.15 232.046 224.611 232.048L219.586 234.866L227.072 234.549L232.507 235.593C232.507 235.593 233.225 237.009 231.995 237.337C230.015 237.51 228.025 237.51 226.046 237.337L218.866 239.239C218.252 241.237 217.429 243.163 216.405 244.98C215.483 246.024 210.355 247.379 210.355 247.379L204.627 237.35Z" fill="#FFBE9D"/>
<path d="M234.976 227.248C234.044 227.31 233.11 227.273 232.186 227.143C230.473 227.007 228.106 226.779 225.49 226.493L222.985 226.208L223.088 226.199C221.146 226.757 219.459 227.219 218.26 227.525C217.629 227.735 216.975 227.868 216.313 227.922C216.901 227.605 217.522 227.36 218.165 227.192C219.346 226.795 221.012 226.265 222.945 225.674L222.993 225.658H223.048L225.553 225.923C228.162 226.21 230.521 226.5 232.225 226.738C233.157 226.814 234.078 226.985 234.976 227.248Z" fill="#EB996E"/>
<path d="M235.595 230.312C234.75 230.349 233.902 230.29 233.069 230.136C231.512 229.956 229.38 229.67 227.025 229.318L224.68 228.959L224.818 228.941C222.904 229.791 220.931 230.498 218.916 231.055C220.752 230.043 222.658 229.168 224.619 228.437L224.684 228.41L224.757 228.42L227.106 228.759C229.462 229.111 231.591 229.459 233.127 229.74C233.968 229.837 234.796 230.028 235.595 230.312Z" fill="#EB996E"/>
<path d="M210.364 247.392C210.632 247.279 210.906 247.186 211.185 247.11C211.725 246.934 212.529 246.679 213.554 246.305C214.063 246.113 214.63 245.892 215.226 245.606C215.535 245.461 215.831 245.29 216.109 245.092C216.38 244.851 216.597 244.556 216.746 244.224C217.519 242.599 218.174 240.919 218.707 239.196L218.74 239.102L218.833 239.077L225.997 237.139L226.03 237.131H226.067C227.29 237.205 228.584 237.266 229.923 237.262C230.591 237.28 231.258 237.232 231.917 237.12C232.048 237.101 232.171 237.042 232.267 236.952C232.365 236.861 232.434 236.742 232.463 236.611C232.495 236.302 232.435 235.99 232.295 235.714L232.467 235.844L227.03 234.814H227.089L219.603 235.138L218.453 235.188L219.461 234.622L224.483 231.799L224.546 231.764H224.616C226.513 231.778 228.509 231.845 230.545 232.053C231.104 232.113 231.661 232.186 232.216 232.282C232.72 232.377 233.239 232.365 233.737 232.243C234.22 232.099 234.667 231.851 235.049 231.517C235.43 231.182 235.739 230.77 235.95 230.306L236.156 230.693L233.593 230.233L232.649 230.063L233.538 229.7C234.008 229.534 234.402 229.201 234.648 228.761C234.854 228.317 234.88 227.808 234.722 227.345L234.957 227.52L231.375 227.306L230.395 227.247L231.272 226.795C231.665 226.61 231.992 226.305 232.206 225.922C232.398 225.546 232.459 225.117 232.376 224.701L232.597 224.895L222.345 223.719H222.421L214.012 225.664L214.118 225.595L207.221 234.24L205.332 236.562L204.832 237.156C204.717 237.288 204.655 237.353 204.649 237.346C204.685 237.266 204.733 237.189 204.79 237.121L205.248 236.487L207.056 234.1L213.817 225.345L213.857 225.291L213.924 225.275L222.325 223.256L222.362 223.248H222.401L232.66 224.369L232.847 224.389L232.882 224.562C233.002 225.104 232.929 225.671 232.677 226.164C232.414 226.648 232.01 227.036 231.52 227.274L231.417 226.764L235.007 226.968L235.189 226.977L235.242 227.136C235.349 227.437 235.396 227.756 235.382 228.076C235.366 228.396 235.289 228.71 235.153 228.998C234.846 229.563 234.348 229.992 233.751 230.208L233.698 229.675L236.262 230.13L236.622 230.193L236.466 230.51C236.221 231.054 235.865 231.537 235.419 231.929C234.974 232.319 234.452 232.606 233.887 232.772C233.311 232.915 232.711 232.932 232.129 232.823C231.593 232.729 231.048 232.664 230.496 232.598C228.498 232.393 226.5 232.325 224.625 232.308L224.758 232.273L219.73 235.086L219.589 234.569L227.075 234.27H227.104H227.133L232.565 235.327L232.689 235.351L232.738 235.457C232.928 235.833 233.001 236.259 232.945 236.677C232.895 236.898 232.784 237.099 232.624 237.256C232.465 237.413 232.263 237.519 232.044 237.562C231.347 237.681 230.64 237.73 229.933 237.708C228.573 237.708 227.285 237.63 226.039 237.549H226.109L218.92 239.415L219.045 239.296C218.488 241.03 217.801 242.719 216.991 244.347C216.818 244.71 216.57 245.032 216.264 245.289C215.969 245.491 215.656 245.666 215.329 245.81C214.706 246.091 214.138 246.297 213.616 246.476C212.576 246.824 211.764 247.05 211.211 247.194L210.589 247.352C210.517 247.378 210.441 247.392 210.364 247.392Z" fill="#EB996E"/>
<path d="M142.47 242.051C142.636 242.008 142.805 241.987 142.975 241.986L144.431 241.891L149.868 241.627L168.497 240.901L168.237 241.166C168.306 238.508 168.262 235.674 168.114 232.766C167.878 227.954 167.466 223.376 167.202 219.2C167.058 217.111 167.001 215.122 166.836 213.282C166.699 211.575 166.438 209.879 166.057 208.21C165.526 205.787 164.538 203.49 163.149 201.448C162.137 200.022 161.386 199.388 161.427 199.352C161.626 199.478 161.81 199.629 161.972 199.802C162.462 200.268 162.914 200.775 163.322 201.317C164.805 203.343 165.864 205.655 166.437 208.113C166.848 209.798 167.133 211.511 167.289 213.239C167.476 215.1 167.55 217.086 167.708 219.167C167.999 223.334 168.427 227.911 168.664 232.74C168.82 235.665 168.851 238.513 168.77 241.19V241.448H168.518L149.882 241.978L144.431 242.079H142.973C142.805 242.09 142.636 242.081 142.47 242.051Z" fill="#263238"/>
<path d="M164.014 276.994C164.014 276.994 150.413 295.88 150.413 303.431C150.413 310.982 150.698 322.305 159.542 330.434C168.387 338.564 276.601 433.69 276.601 433.69L302.975 410.019L204.914 309.237C204.914 309.237 209.478 300.816 207.48 297.332C206.303 295.262 204.501 293.633 202.341 292.687L202.056 274L164.014 276.994Z" fill="#263238"/>
<path d="M212.035 273.213L214.336 293.12C214.336 293.12 283.989 329.855 289.608 340.709C292.155 345.622 294.623 390.15 294.623 390.15L260.278 390.943L255.835 355.663L237.405 345.519L204.457 311.442L193.236 274.688L212.035 273.213Z" fill="#263238"/>
<path d="M180.622 276.244C180.777 276.621 180.883 277.019 180.933 277.427C181.145 278.52 181.279 279.626 181.335 280.739C181.424 282.399 181.305 284.063 180.983 285.692C180.584 287.705 179.785 289.613 178.634 291.3C177.483 293.007 175.911 294.375 174.073 295.262C172.561 295.961 170.902 296.269 169.245 296.155C168.136 296.08 167.054 295.779 166.062 295.272C165.795 295.134 165.54 294.975 165.299 294.796C165.135 294.671 165.054 294.6 165.065 294.584C166.37 295.27 167.803 295.671 169.27 295.761C170.851 295.814 172.42 295.482 173.852 294.796C175.588 293.926 177.077 292.615 178.175 290.992C180.129 287.965 181.095 284.388 180.936 280.769C180.883 277.973 180.52 276.26 180.622 276.244Z" fill="#263238"/>
<path d="M207.324 289.748C206.807 290.323 206.197 290.805 205.521 291.175C202.366 293.157 198.739 294.229 195.03 294.27C194.267 294.327 193.5 294.253 192.76 294.051C195.314 293.921 197.849 293.539 200.33 292.908C202.757 292.089 205.1 291.03 207.324 289.748Z" fill="#455A64"/>
<path d="M205.219 276.398C205.189 276.345 205.876 276.156 206.698 276.788C206.938 276.979 207.131 277.221 207.264 277.5C207.394 277.779 207.46 278.085 207.455 278.394C207.45 278.782 207.34 279.159 207.133 279.486C206.927 279.812 206.634 280.072 206.29 280.237C205.932 280.383 205.538 280.415 205.163 280.329C204.786 280.242 204.445 280.041 204.183 279.751C203.971 279.515 203.834 279.218 203.792 278.901C203.749 278.583 203.802 278.261 203.942 277.974C204.024 277.787 204.143 277.62 204.291 277.481C204.439 277.342 204.611 277.234 204.8 277.164C205.069 277.078 205.225 277.121 205.227 277.151C205.261 277.231 204.604 277.31 204.305 278.129C204.22 278.343 204.199 278.576 204.244 278.801C204.289 279.028 204.398 279.234 204.557 279.397C204.752 279.594 204.999 279.728 205.267 279.787C205.536 279.844 205.815 279.824 206.072 279.724C206.323 279.599 206.535 279.407 206.689 279.169C206.843 278.933 206.932 278.659 206.947 278.375C206.96 278.136 206.921 277.898 206.834 277.676C206.747 277.454 206.613 277.253 206.441 277.09C205.825 276.484 205.203 276.49 205.219 276.398Z" fill="#455A64"/>
<path d="M207.46 313.088C206.648 312.502 205.881 311.857 205.16 311.16C203.345 309.583 201.445 308.11 199.469 306.752C197.486 305.405 195.41 304.205 193.258 303.162C192.338 302.78 191.441 302.346 190.57 301.857C191.554 302.044 192.512 302.36 193.417 302.797C195.644 303.745 197.774 304.913 199.777 306.284C201.78 307.65 203.668 309.183 205.423 310.865C206.184 311.523 206.868 312.269 207.46 313.088Z" fill="#455A64"/>
<path d="M211.864 299.727C211.792 298.481 212.037 297.237 212.573 296.116C213.11 294.994 213.921 294.03 214.929 293.32C215.044 293.442 213.906 294.588 213.073 296.362C212.239 298.135 212.031 299.746 211.864 299.727Z" fill="#455A64"/>
<path d="M290.115 438.962C289.445 438.401 288.837 437.768 288.302 437.076C287.237 435.863 285.793 434.164 284.226 432.265C283.891 431.804 283.486 431.398 283.027 431.067C282.596 430.81 282.094 430.707 281.599 430.772C280.71 430.918 279.865 431.275 279.135 431.811C278.459 432.384 277.659 432.785 276.799 432.982C276.787 432.92 277.645 432.487 278.908 431.479C279.668 430.853 280.572 430.432 281.535 430.256C282.144 430.162 282.765 430.281 283.299 430.593C283.817 430.95 284.273 431.392 284.645 431.902C286.212 433.804 287.604 435.548 288.596 436.816C289.177 437.474 289.686 438.193 290.115 438.962Z" fill="#455A64"/>
<path d="M276.601 433.689C276.601 433.689 276.746 433.53 277.048 433.248L278.395 431.998L283.612 427.243L302.838 409.862L302.829 410.167L253.068 359.682L217.324 323.294L213.431 319.318L211.54 317.389C210.917 316.745 210.305 316.121 209.648 315.552C208.249 314.517 207.117 313.154 206.349 311.577C206.027 310.765 205.957 309.873 206.149 309.019C206.34 308.172 206.69 307.467 206.912 306.706C207.401 305.256 207.754 303.763 207.969 302.246C208.215 300.843 208.108 299.401 207.658 298.052C207.032 296.883 206.222 295.827 205.259 294.925C204.392 294.066 203.392 293.359 202.3 292.83L202.204 292.785V292.686C202.144 287.01 202.098 282.518 202.065 279.418C202.065 277.899 202.053 276.723 202.049 275.901C202.049 275.519 202.049 275.221 202.049 274.997C202.046 274.894 202.051 274.793 202.067 274.691C202.084 274.793 202.092 274.894 202.092 274.997C202.099 275.222 202.112 275.517 202.127 275.901C202.149 276.722 202.182 277.898 202.224 279.416C202.289 282.515 202.38 287.007 202.506 292.682L202.408 292.54C203.545 293.074 204.588 293.795 205.491 294.678C206.497 295.603 207.343 296.696 207.992 297.908C208.478 299.315 208.603 300.826 208.357 302.297C208.147 303.841 207.795 305.361 207.306 306.838C207.086 307.602 206.728 308.358 206.566 309.107C206.395 309.881 206.462 310.689 206.757 311.421C207.51 312.926 208.605 314.225 209.952 315.211C210.615 315.78 211.24 316.409 211.858 317.046L213.756 318.969L217.668 322.931L253.465 359.273L303.134 409.868L303.29 410.027L303.125 410.174L283.778 427.416L278.482 432.09L277.095 433.296C276.772 433.564 276.601 433.689 276.601 433.689Z" fill="#455A64"/>
<path d="M292.047 435.006C289.627 431.92 287.828 428.38 286.752 424.585C286.908 424.525 287.928 426.936 289.392 429.801C290.856 432.667 292.179 434.918 292.047 435.006Z" fill="#455A64"/>
<path d="M298.828 430.107C295.536 427.565 292.938 424.206 291.286 420.352C291.432 420.271 292.793 422.689 294.877 425.373C296.961 428.056 298.94 429.982 298.828 430.107Z" fill="#455A64"/>
<path d="M303.116 425.293C300.67 422.387 298.364 419.362 296.204 416.23C298.935 418.887 301.265 421.941 303.116 425.293Z" fill="#455A64"/>
<path d="M307.582 417.307C305.096 416.018 302.793 414.398 300.729 412.488C303.214 413.778 305.517 415.398 307.582 417.307Z" fill="#455A64"/>
<path d="M244.855 354.016C244.957 354.133 240.222 358.563 234.284 363.911C228.346 369.259 223.445 373.5 223.343 373.383C223.242 373.265 227.973 368.836 233.916 363.486C239.859 358.137 244.754 353.899 244.855 354.016Z" fill="#455A64"/>
<path d="M243.948 355.901C243.628 356.665 243.209 357.379 242.702 358.029C240.461 361.301 237.794 364.249 234.776 366.791C234.181 367.355 233.515 367.834 232.794 368.217C232.688 368.083 235.553 365.704 238.623 362.294C241.692 358.885 243.806 355.805 243.948 355.901Z" fill="#455A64"/>
<path d="M182.657 278.051C182.654 278.359 182.601 278.665 182.501 278.955C182.304 279.765 182.036 280.557 181.701 281.32C181.216 282.459 180.626 283.55 179.936 284.573C178.237 287.094 176.01 289.198 173.414 290.736C172.358 291.359 171.246 291.877 170.094 292.284C169.321 292.566 168.527 292.777 167.719 292.918C167.426 292.998 167.122 293.028 166.82 293.009C166.8 292.906 168.066 292.671 169.957 291.907C171.064 291.457 172.134 290.915 173.152 290.284C175.654 288.739 177.818 286.694 179.519 284.271C180.212 283.283 180.822 282.239 181.346 281.148C182.227 279.283 182.556 278.021 182.657 278.051Z" fill="#455A64"/>
<path d="M264.953 342.277C260.787 345.964 257.568 350.627 255.572 355.865C255.664 355.036 255.883 354.228 256.221 353.469C257.64 349.7 259.954 346.348 262.957 343.712C263.546 343.13 264.218 342.647 264.953 342.277Z" fill="#455A64"/>
<path d="M271.966 346.231C272.002 346.406 268.188 347.101 263.827 348.987C259.453 350.843 256.298 353.133 256.196 352.984C256.788 352.364 257.462 351.83 258.199 351.399C261.63 349.112 265.441 347.479 269.446 346.581C270.266 346.345 271.114 346.227 271.966 346.231Z" fill="#455A64"/>
</g>
</g>
<defs>
<clipPath id="clip0_108_964">
<rect width="475" height="485" fill="white"/>
</clipPath>
</defs>
</svg>
