<svg width="515" height="464" viewBox="0 0 515 464" fill="none" xmlns="http://www.w3.org/2000/svg">
<g clip-path="url(#clip0_106_584)">
<path d="M66.5475 104.469L59.4565 95.7951L59.8639 95.5156L66.9522 104.195L66.5475 104.469Z" fill="#B15826"/>
<path d="M70.3739 102.561L64.7981 93.1385L65.2295 92.9043L70.8 102.324L70.3739 102.561Z" fill="#B15826"/>
<path d="M74.6503 100.455L74.1976 100.652L70.1343 90.4926L70.5869 90.293L74.6503 100.455Z" fill="#B15826"/>
<path d="M78.498 98.5873L78.0294 98.7417L75.4731 87.8343L75.9444 87.6826L78.498 98.5873Z" fill="#B15826"/>
<path d="M76.4451 88.2653L59.4966 96.6068L56.6794 90.8896L73.6279 82.5508L76.4451 88.2653Z" fill="#B15826"/>
<path d="M61.2616 88.6287L56.6868 90.8799L59.5022 96.5967L64.0771 94.3455L61.2616 88.6287Z" fill="#D68337"/>
<path d="M79.7043 107.296L72.5921 110.791C71.9504 111.107 71.2095 111.155 70.532 110.926C69.8545 110.696 69.2959 110.207 68.9787 109.566L66.2947 104.123L78.2771 98.2305L80.9584 103.668C81.2717 104.316 81.3157 105.061 81.0806 105.741C80.8456 106.421 80.3507 106.98 79.7043 107.296Z" fill="#B15826"/>
<path d="M72.7065 107.703L70.0438 102.268L66.292 104.115L68.9787 109.566C69.135 109.885 69.353 110.171 69.6202 110.406C69.8874 110.641 70.1985 110.821 70.5356 110.936C70.8726 111.051 71.229 111.097 71.5842 111.074C71.9395 111.05 72.2865 110.956 72.6054 110.798L76.3572 108.954C76.0357 109.113 75.6857 109.207 75.3275 109.231C74.9694 109.254 74.6101 109.206 74.2706 109.09C73.931 108.974 73.6179 108.791 73.3495 108.553C73.081 108.315 72.8625 108.026 72.7065 107.703Z" fill="#D68337"/>
<path d="M8.12412 65.5983C23.7971 89.2441 53.0048 95.5016 57.385 92.9464C61.7652 90.3913 48.1186 62.037 35.8034 40.8532C23.4882 19.6694 15.4866 13.4652 11.0904 16.0177C6.69423 18.5701 -9.68435 38.7133 8.12412 65.5983Z" fill="#55A7C8"/>
<path d="M8.74455 52.6922C21.374 78.3768 56.8125 94.4131 61.3019 92.0336C65.7913 89.6541 53.0288 58.2656 41.5523 36.6107C30.0758 14.9558 22.1515 8.53327 17.6594 10.9101C13.1674 13.2869 -3.86624 27.0368 8.74455 52.6922Z" fill="#FFC10D"/>
<path d="M18.799 46.6052C29.4021 70.1366 60.3832 93.0904 64.9445 90.844C69.5058 88.5976 57.795 55.535 46.9789 33.542C36.1628 11.549 28.3077 4.95089 23.7491 7.19198C19.1905 9.43306 7.26932 21.0351 18.799 46.6052Z" fill="#AE7FB7"/>
<path d="M83.1925 28.6528C92.3817 55.4899 79.5818 82.8167 74.8794 84.7437C70.177 86.6707 55.9739 58.1728 46.6862 35.5038C37.3985 12.8348 37.3666 2.702 42.077 0.78031C46.7874 -1.14138 72.7359 -1.84405 83.1925 28.6528Z" fill="#ED3682"/>
<path d="M72.584 21.2829C85.248 46.9436 76.3491 84.8025 71.7186 86.9105C67.0881 89.0185 49.9932 59.762 39.8268 37.4576C29.6604 15.1532 29.3995 4.96455 34.0167 2.85654C38.6339 0.748542 59.9253 -4.35112 72.584 21.2829Z" fill="#FFC10D"/>
<path d="M61.6267 25.5305C73.8168 48.2847 73.1165 86.8249 68.5499 89.066C63.9833 91.3071 44.9127 61.8723 34.0966 39.8899C23.2805 17.9076 22.8118 7.65774 27.3758 5.41399C31.9397 3.17025 48.3796 0.804068 61.6267 25.5305Z" fill="#F6901E"/>
<path d="M50.2516 31.5296C61.1449 53.6476 72.2832 87.2319 66.9284 89.8696C61.5736 92.5073 41.7361 63.2002 30.8428 41.0768C19.9495 18.9534 20.1332 8.36818 25.4933 5.73051C30.8535 3.09285 39.3609 9.40887 50.2516 31.5296Z" fill="#EE4B60"/>
<path d="M78.401 97.7027L65.7681 103.919L66.4843 105.373L79.1172 99.157L78.401 97.7027Z" fill="#B15826"/>
<path d="M181.653 268.156L183.565 261.773L183.836 261.88L181.919 268.262L181.653 268.156Z" fill="#B15826"/>
<path d="M183.865 269.407L186.651 263.517L186.914 263.652L184.126 269.537L183.865 269.407Z" fill="#B15826"/>
<path d="M186.329 270.812L186.081 270.655L189.734 265.266L189.985 265.423L186.329 270.812Z" fill="#B15826"/>
<path d="M188.533 272.085L188.299 271.904L192.828 267.009L193.06 267.19L188.533 272.085Z" fill="#B15826"/>
<path d="M194.811 264.341L185.051 258.77L183.17 262.061L192.93 267.632L194.811 264.341Z" fill="#B15826"/>
<path d="M185.059 258.771L183.176 262.06L185.81 263.564L187.692 260.272L185.059 258.771Z" fill="#D68337"/>
<path d="M181.723 267.905L188.622 271.845L186.161 276.15C186.126 276.211 186.068 276.256 186 276.275C185.932 276.293 185.859 276.284 185.798 276.249L179.358 272.572C179.297 272.537 179.252 272.479 179.234 272.411C179.215 272.343 179.224 272.27 179.259 272.209L181.72 267.903L181.723 267.905Z" fill="#B15826"/>
<path d="M182.105 272.273L183.897 269.141L181.735 267.908L179.946 271.044C179.839 271.228 179.769 271.432 179.741 271.643C179.714 271.855 179.728 272.069 179.784 272.275C179.84 272.481 179.937 272.674 180.068 272.842C180.199 273.01 180.362 273.151 180.548 273.255L182.704 274.488C182.519 274.382 182.356 274.241 182.226 274.072C182.095 273.904 181.999 273.711 181.943 273.505C181.888 273.299 181.873 273.084 181.901 272.873C181.929 272.662 181.998 272.458 182.105 272.273Z" fill="#D68337"/>
<path d="M181.347 226.424C174.911 242.021 181.56 258.497 184.276 259.809C186.992 261.121 196.428 244.941 202.768 231.814C209.108 218.687 209.497 212.674 206.763 211.362C204.028 210.05 188.664 208.69 181.347 226.424Z" fill="#55A7C8"/>
<path d="M187.916 222.419C179.459 237.199 183.362 260.001 186.033 261.419C188.704 262.838 199.927 246.091 206.776 233.219C213.625 220.348 214.154 214.303 211.486 212.882C208.818 211.461 196.362 207.663 187.916 222.419Z" fill="#FFC10D"/>
<path d="M194.266 225.347C186.201 238.41 185.213 261.324 187.833 262.822C190.453 264.321 202.867 247.534 210.099 234.875C217.331 222.216 217.97 216.148 215.35 214.647C212.73 213.146 203.032 211.149 194.266 225.347Z" fill="#AE7FB7"/>
<path d="M224.574 251.092C214.405 264.563 196.668 267.363 194.149 265.689C191.63 264.015 200.947 247.518 209.037 235.389C217.126 223.26 222.105 219.869 224.622 221.548C227.138 223.228 236.13 235.775 224.574 251.092Z" fill="#ED3682"/>
<path d="M224.675 243.408C216.242 258.195 194.615 266.43 192.03 264.849C189.444 263.268 198.175 245.1 205.783 232.66C213.39 220.22 218.329 216.69 220.91 218.266C223.49 219.842 233.102 228.63 224.675 243.408Z" fill="#FFC10D"/>
<path d="M218.931 239.426C211.774 253.001 192.538 265.51 189.907 264.014C187.277 262.519 195.435 243.302 202.665 230.643C209.894 217.984 214.793 214.341 217.422 215.842C220.05 217.343 226.707 224.662 218.931 239.426Z" fill="#F6901E"/>
<path d="M212.181 235.82C204.907 248.559 192.062 265.236 188.978 263.48C185.895 261.723 193.728 242.187 201.003 229.443C208.278 216.699 213.563 213.266 216.649 215.028C219.736 216.79 219.456 223.084 212.181 235.82Z" fill="#EE4B60"/>
<path d="M188.927 271.74L181.652 267.588L181.174 268.425L188.449 272.577L188.927 271.74Z" fill="#B15826"/>
<path d="M515.003 443.269C515.003 454.714 416.036 464 293.955 464C171.873 464 72.9089 454.717 72.9089 443.269C72.9089 431.822 171.873 422.535 293.955 422.535C416.036 422.535 515.003 431.816 515.003 443.269Z" fill="#CECECE"/>
<path d="M331.478 444.706L323.165 446.157L272.485 152.442L280.793 150.991L331.478 444.706Z" fill="#6B6B6B"/>
<path d="M257.962 40.2998C257.962 40.2998 116.743 116.67 84.3294 134.814C81.6666 136.307 78.5725 137.108 77.4302 139.267C63.8821 164.84 82.785 177.53 91.644 158.489C92.1765 157.323 93.894 157.158 95.0124 156.338C131.591 139.413 257.962 40.2998 257.962 40.2998Z" fill="#097093"/>
<path d="M77.4302 139.267C64.0312 164.552 82.3749 177.235 91.3457 159.069L77.6219 138.99C77.5607 139.083 77.4834 139.166 77.4302 139.267Z" fill="#05657F"/>
<path d="M257.962 40.2998C257.962 40.2998 110.991 140.198 92.0087 154.071C91.0835 154.755 90.2087 155.505 89.3912 156.314C80.8198 166.027 83.9991 194.589 118.506 185.361C128.544 182.672 133.635 166.17 133.635 166.17L257.962 40.2998Z" fill="#7BE6FF"/>
<path d="M123.003 185.635L131.364 171.975L89.3912 156.314C73.2017 177.916 106.1 200.327 123.003 185.635Z" fill="#41C1D6"/>
<path d="M257.962 40.2998C257.962 40.2998 151.055 140.771 122.385 169.008C122.385 169.008 134.818 225.519 190.078 181.139C245.338 136.76 257.962 40.2998 257.962 40.2998Z" fill="#097093"/>
<path d="M122.385 169.008C116.884 189.237 151.377 222.374 190.078 181.14C193.452 177.549 197.547 174.707 200.995 171.164L123.472 167.946C123.102 168.306 122.516 168.54 122.385 169.008Z" fill="#05657F"/>
<path d="M257.962 40.2998C257.962 40.2998 274.714 136.214 279.288 162.423C283.863 188.632 203.581 202.648 190.949 183.112C178.317 163.575 257.962 40.2998 257.962 40.2998Z" fill="#7BE6FF"/>
<path d="M190.328 170.743C189.231 176.279 189.308 180.575 190.949 183.112C203.581 202.648 283.879 188.637 279.288 162.423C279.251 162.197 279.211 161.954 279.168 161.715L190.328 170.743Z" fill="#41C1D6"/>
<path d="M257.962 40.2998C257.962 40.2998 416.713 64.3183 453.36 70.424C456.372 70.9244 459.559 70.6316 461.348 72.2871C482.762 91.7542 469.283 110.098 454.489 95.1771C453.589 94.2641 451.925 94.682 450.596 94.2881C410.455 90.7508 257.962 40.2998 257.962 40.2998Z" fill="#7BE6FF"/>
<path d="M461.362 72.2768C482.547 91.5362 469.579 109.673 454.984 95.6192L461.09 72.0771C461.184 72.1389 461.275 72.2055 461.362 72.2768Z" fill="#41C1D6"/>
<path d="M257.962 40.2998C257.962 40.2998 430.104 84.5146 452.665 91.1367C453.768 91.4687 454.847 91.8778 455.893 92.361C467.244 98.5972 473.933 126.547 438.348 129.547C427.992 130.417 417.607 116.619 417.607 116.619L257.962 40.2998Z" fill="#097093"/>
<path d="M434.202 131.33L421.705 121.315L455.892 92.3643C478.443 107.205 455.077 139.419 434.202 131.33Z" fill="#05657F"/>
<path d="M257.962 40.2998C257.962 40.2998 392.601 98.6239 429.148 115.483C429.148 115.483 436.603 172.859 369.577 149.817C302.55 126.776 257.962 40.2998 257.962 40.2998Z" fill="#7BE6FF"/>
<path d="M429.148 115.482C441.178 132.65 419.956 175.507 369.577 149.817C365.178 147.581 360.358 146.293 355.919 144.129L427.766 114.852C428.234 115.064 428.866 115.083 429.148 115.482Z" fill="#41C1D6"/>
<path d="M257.962 40.2998C257.962 40.2998 274.714 136.214 279.288 162.423C283.863 188.632 364.155 174.629 369.42 151.973C374.684 129.318 257.962 40.2998 257.962 40.2998Z" fill="#097093"/>
<path d="M365.809 140.124C368.714 144.963 370.104 149.032 369.42 151.974C364.155 174.629 283.868 188.637 279.288 162.423C279.251 162.197 279.211 161.955 279.168 161.715L365.809 140.124Z" fill="#05657F"/>
<path d="M322.472 216.654C322.472 216.654 401.194 209.702 465.976 221.219C479.921 265.556 473.623 299.438 468.676 305.656C431.339 312.326 324.384 307.948 313.925 302.324C307.172 275.51 312.567 230.258 322.472 216.654Z" fill="#93644A"/>
<path d="M322.473 216.654C322.473 216.654 401.194 209.702 465.976 221.219C479.921 265.556 467.545 296.492 462.6 302.709C425.26 309.379 328.115 304.274 317.656 298.648C310.898 271.837 312.567 230.258 322.473 216.654Z" fill="#A07355"/>
<path d="M322.473 216.654C322.473 216.654 401.194 209.702 465.976 221.219C470.071 260.504 456.422 291.565 451.475 297.783C414.14 304.437 337.879 298.847 327.417 293.215C320.665 266.405 317.112 228.275 322.473 216.654Z" fill="#B58766"/>
<path d="M427.656 309.251H415.85V215.416L427.656 216.188V309.251Z" fill="#E5A045"/>
<path d="M372.495 308.618L360.686 308.056V214.575L372.495 214.312V308.618Z" fill="#E5A045"/>
<path d="M448.815 228.45C448.639 227.854 430.737 168.968 398.132 168.534H397.781C365.393 168.534 345.761 227.659 345.567 228.256L342.997 227.425C343.82 224.899 363.439 165.838 397.773 165.838H398.175C432.75 166.296 450.657 225.173 451.403 227.678L448.815 228.45Z" fill="#E5A045"/>
<path d="M357.44 192.933C357.44 192.933 339.389 218.394 336.859 223.454C334.33 228.514 349.848 233.568 351.534 230.031C353.219 226.493 362.163 199.34 363.346 196.641C364.528 193.942 360.017 189.297 357.44 192.933Z" fill="#825841"/>
<path d="M437.503 192.933C437.503 192.933 455.549 218.394 458.078 223.454C460.608 228.514 445.092 233.568 443.401 230.031C441.71 226.493 432.774 199.34 431.595 196.641C430.415 193.942 434.928 189.297 437.503 192.933Z" fill="#825841"/>
<path d="M449.331 246.953C449.327 247.219 449.27 247.481 449.165 247.725C449.059 247.969 448.906 248.19 448.715 248.375C448.524 248.56 448.298 248.705 448.051 248.803C447.803 248.901 447.539 248.949 447.273 248.944L343.047 247.275C342.511 247.266 342 247.045 341.627 246.659C341.254 246.274 341.05 245.756 341.058 245.22C341.067 244.683 341.289 244.172 341.675 243.798C342.061 243.424 342.579 243.219 343.117 243.227L447.345 244.898C447.61 244.903 447.872 244.96 448.116 245.065C448.359 245.171 448.579 245.324 448.764 245.514C448.948 245.705 449.093 245.93 449.191 246.177C449.288 246.424 449.336 246.688 449.331 246.953Z" fill="#825841"/>
<path d="M446.692 246.823C446.692 248.812 444.746 250.419 442.341 250.419H439.78C437.383 250.419 435.432 248.822 435.432 246.823C435.432 244.838 437.381 243.228 439.78 243.228H442.341C444.738 243.228 446.692 244.824 446.692 246.823Z" fill="#5B3D2E"/>
<path d="M437.618 246.086C437.301 246.087 436.997 246.213 436.773 246.437C436.549 246.661 436.423 246.964 436.422 247.281V255.532C436.422 255.85 436.548 256.154 436.773 256.379C436.998 256.604 437.303 256.73 437.62 256.73C437.938 256.73 438.243 256.604 438.468 256.379C438.692 256.154 438.819 255.85 438.819 255.532V247.281C438.818 247.124 438.787 246.968 438.726 246.823C438.666 246.678 438.577 246.546 438.466 246.435C438.354 246.324 438.222 246.236 438.076 246.176C437.931 246.116 437.775 246.086 437.618 246.086ZM438.102 255.327C438.107 255.391 438.099 255.455 438.078 255.516C438.056 255.576 438.023 255.632 437.979 255.679C437.936 255.726 437.883 255.763 437.824 255.789C437.765 255.815 437.702 255.828 437.638 255.828C437.574 255.828 437.51 255.815 437.451 255.789C437.392 255.763 437.34 255.726 437.296 255.679C437.252 255.632 437.219 255.576 437.198 255.516C437.177 255.455 437.168 255.391 437.173 255.327V251.556C437.168 251.492 437.177 251.427 437.198 251.367C437.219 251.306 437.252 251.251 437.296 251.204C437.34 251.157 437.392 251.119 437.451 251.094C437.51 251.068 437.574 251.055 437.638 251.055C437.702 251.055 437.765 251.068 437.824 251.094C437.883 251.119 437.936 251.157 437.979 251.204C438.023 251.251 438.056 251.306 438.078 251.367C438.099 251.427 438.107 251.492 438.102 251.556V255.327Z" fill="#7F675C"/>
<path d="M233.414 439.46H161.001V315.426H236.279L233.414 439.46Z" fill="#DDDDDD"/>
<path d="M233.414 439.46L155.63 443.426V322.101L236.279 315.426L233.414 439.46Z" fill="#EFEFEF"/>
<path d="M243.437 322.102H155.63V443.426H243.437V322.102Z" fill="white"/>
<path d="M236.277 329.344H155.63V436.493H236.277V329.344Z" fill="#1F9DB2"/>
<path d="M206.004 363.423C203.322 359.202 193.252 359.138 192.629 364.392C190.352 364.544 185.266 364.956 183.746 363.274C182.987 362.436 183.075 360.666 182.588 359.574C182.1 358.447 181.321 357.47 180.331 356.743C179.341 356.016 178.175 355.566 176.953 355.438C174.946 355.247 173.619 356.844 171.849 356.801C168.334 356.721 168.518 353.812 167.229 352.039C164.971 348.92 159.874 346.905 155.633 348.422V402.16C155.776 402.179 155.915 402.205 156.056 402.237C158.831 402.876 159.984 403.597 162.841 403.454C165.698 403.31 167.831 402.551 170.296 401.455C172.451 400.494 172.735 399.262 174.583 397.75C176.181 396.443 178.578 395.887 179.464 393.994C179.997 392.863 179.533 392.192 180.615 391.266C181.847 390.202 183.743 390.202 185.423 390.356C187.902 390.569 190.483 392.296 193.444 391.421C196.253 390.593 195.84 388.035 197.851 387.01C199.304 386.276 201.179 387.157 202.643 386.167C203.823 385.368 203.749 384.405 203.602 383.122C203.312 380.553 202.446 377.828 203.794 375.454C204.222 374.698 204.859 374.887 205.024 373.96C205.141 373.338 204.63 373.234 204.534 372.733C204.324 371.629 204.001 370.136 204.308 368.986C204.854 366.857 207.554 365.864 206.004 363.423Z" fill="#5EBC45"/>
<path d="M214.519 394.838C213.409 392.552 212.964 394.343 211.042 394.529C208.211 394.796 210.094 393.326 208.912 391.836C208.233 390.99 207.631 390.529 206.281 391.099C204.843 391.706 204.595 394.258 203.916 395.253C203.03 396.558 201.592 396.816 200.721 397.785C199.922 398.695 200.455 400.108 199.781 401.04C198.689 402.53 196.229 402.828 194.455 403.507C192.107 404.409 191.572 405.839 189.804 407.14C188.321 408.234 185.996 408.556 184.196 409.32C182.564 410.007 181.267 411.263 179.488 411.716C176.993 412.341 174.163 411.561 171.593 411.907C168.518 412.317 167.245 414.649 164.404 415.154C162.007 415.58 160.657 414.87 158.703 414.273C157.7 413.987 156.67 413.809 155.63 413.741V424.949C159.281 426.054 163.024 427.744 167.08 427.15C168.755 426.905 170.102 425.777 171.873 426.003C172.823 426.125 173.47 426.932 174.485 427.161C178.479 428.058 178.333 424.606 181.368 424.089C183.437 423.733 187.423 423.557 188.557 424.888C189.375 425.841 188.382 427.744 189.324 428.441C191.345 429.942 194.623 427.081 195.411 426.152C197.132 424.132 198.173 422.048 199.347 419.828C200.497 417.651 202.116 414.335 204.646 412.908C208.07 410.952 213.856 411.606 213.619 407.47C213.446 404.542 212.086 402.498 213.38 399.653C214.048 398.181 215.323 396.488 214.519 394.838Z" fill="#5EBC45"/>
<path d="M216.953 353.974C216.9 352.739 216.772 351.845 216.173 350.692C215.867 350.109 215.723 349.561 215.108 349.095C214.493 348.63 213.324 348.691 212.887 348.395C210.808 346.985 212.168 344.025 211.058 341.893C209 337.93 200.83 337.368 196.146 336.953C193.484 336.722 189.575 336.229 187.258 337.517C185.453 338.523 185.336 340.589 187.154 341.917C187.681 342.378 188.351 342.644 189.05 342.67L193.827 342.862C193.295 343.086 192.496 344.193 192.616 344.805C192.815 345.848 193.737 345.098 194.024 345.75C194.799 347.496 193.122 348.944 195.96 349.742C197.848 350.275 199.714 348.944 201.286 349.665C201.661 349.833 203.898 351.981 204.273 352.388C205.338 353.532 206.1 354.805 207.202 355.984C208.266 357.146 209.035 358.547 209.444 360.069C210.216 362.688 210.435 365.094 210.853 367.825C212.916 368.299 213.42 366.156 214.402 365.225C215.792 363.894 216.37 363.652 216.501 361.797C216.671 359.172 217.07 356.649 216.953 353.974Z" fill="#5EBC45"/>
<path d="M216.229 385.198L215.273 384.628C211.593 385.325 208.435 388.698 213.899 389.203C216.793 389.469 218.45 385.74 216.229 385.198Z" fill="#5EBC45"/>
<path d="M346.392 322.703V295.802C346.392 289.05 351.659 283.825 358.199 284.304L383.609 286.204C389.896 286.675 394.822 291.722 394.822 297.692V320.808C394.822 326.778 389.896 331.827 383.609 332.296L358.199 334.199C357.919 334.217 357.642 334.231 357.371 334.231C351.23 334.231 346.392 329.168 346.392 322.703ZM354.322 295.802V322.703C354.322 324.848 355.752 326.429 357.605 326.296L383.016 324.396C385.082 324.242 386.893 322.565 386.893 320.808V297.692C386.893 295.938 385.082 294.264 383.016 294.109L357.605 292.206C357.528 292.206 357.451 292.206 357.371 292.206C355.632 292.198 354.322 293.75 354.322 295.802Z" fill="#4F4036"/>
<path d="M349.67 322.703V295.802C349.67 289.05 354.937 283.825 361.477 284.304L386.887 286.204C393.171 286.675 398.097 291.722 398.097 297.692V320.808C398.097 326.778 393.171 331.827 386.887 332.296L361.477 334.199C361.21 334.217 360.92 334.231 360.648 334.231C354.492 334.231 349.67 329.168 349.67 322.703ZM357.597 295.802V322.703C357.597 324.848 359.024 326.429 360.883 326.296L386.293 324.396C388.357 324.242 390.17 322.565 390.17 320.808V297.692C390.17 295.938 388.357 294.264 386.293 294.109L360.883 292.206C360.803 292.206 360.728 292.206 360.648 292.206C358.91 292.198 357.597 293.75 357.597 295.802Z" fill="#665446"/>
<path d="M265.154 302.853C271.396 301.218 294.511 297.239 294.511 297.239C294.511 297.239 294.673 299.914 294.937 304.516L414.199 312.501C418.089 312.767 421.244 316.076 421.244 319.906V415.226C421.244 419.056 418.089 422.375 414.199 422.636C375.11 425.246 336.021 427.864 296.934 430.488C296.375 435.939 295.587 439.947 294.511 441.909C281.658 439.985 268.799 434.118 264.752 432.154C262.028 431.191 260.073 428.265 260.073 424.651V310.489C260.076 306.704 262.22 303.659 265.154 302.853Z" fill="#AF7115"/>
<path d="M275.978 436.711L276.186 436.796C276.62 437.006 277.187 437.28 277.858 437.595C274.359 436.365 272.551 435.652 270.136 434.595C268.949 433.757 268.333 431.766 268.333 430.541V308.192C268.333 306.137 268.866 302.957 271.398 301.479C273.369 301.075 274.303 300.904 276.649 300.46C274.692 301.136 272.296 304.806 272.296 308.179V430.523C272.296 433.448 273.776 435.928 275.978 436.711Z" fill="#5B2C0C"/>
<path d="M287.857 433.162C287.857 438.278 291.369 442.183 295.707 441.893C350.341 438.239 404.973 434.58 459.604 430.916C463.939 430.626 467.454 426.924 467.454 422.665V316.44C467.454 312.181 463.939 308.479 459.604 308.189C404.965 304.521 350.327 300.859 295.691 297.202C291.353 296.912 287.841 300.821 287.841 305.937L287.857 433.162Z" fill="#F4A738"/>
<path d="M299.677 438.366H299.509V437.674H299.666C299.802 437.674 299.932 437.674 300.071 437.674L301.458 437.581L301.506 438.27L300.119 438.366C299.98 438.361 299.839 438.366 299.677 438.366ZM303.492 438.129L303.45 437.434L305.426 437.301L305.471 437.993L303.492 438.129ZM297.459 437.98C296.804 437.741 296.189 437.405 295.635 436.982L296.055 436.434C296.553 436.812 297.105 437.114 297.693 437.328L297.459 437.98ZM307.449 437.863L307.401 437.171L309.38 437.038L309.428 437.727L307.449 437.863ZM311.404 437.597L311.356 436.905L313.334 436.772L313.382 437.466L311.404 437.597ZM315.358 437.331L315.31 436.636L317.288 436.506L317.336 437.198L315.358 437.331ZM319.312 437.064L319.264 436.37L321.245 436.239L321.288 436.931L319.312 437.064ZM323.266 436.798L323.221 436.104L325.197 435.971L325.245 436.663L323.266 436.798ZM327.223 436.532L327.178 435.84L329.156 435.71L329.199 436.399L327.223 436.532ZM331.18 436.266L331.132 435.574L333.108 435.441L333.156 436.133L331.18 436.266ZM335.134 436L335.089 435.31L337.064 435.175L337.11 435.869L335.134 436ZM339.088 435.734L339.043 435.042L341.019 434.909L341.064 435.601L339.088 435.734ZM294.176 435.505C293.76 434.956 293.411 434.36 293.137 433.729L293.776 433.463C294.025 434.045 294.345 434.593 294.729 435.095L294.176 435.505ZM343.04 435.467L342.997 434.775L344.973 434.642L345.018 435.337L343.04 435.467ZM346.999 435.201L346.951 434.507L348.927 434.376L348.975 435.068L346.999 435.201ZM350.951 434.935L350.908 434.243L352.884 434.11L352.932 434.802L350.951 434.935ZM354.908 434.669L354.86 433.974L356.838 433.844L356.883 434.536L354.908 434.669ZM358.859 434.403L358.814 433.711L360.792 433.578L360.835 434.27L358.859 434.403ZM362.816 434.137L362.771 433.447L364.749 433.314L364.794 434.006L362.816 434.137ZM366.773 433.871L366.725 433.178L368.706 433.045L368.751 433.737L366.773 433.871ZM370.727 433.604L370.679 432.91L372.66 432.779L372.703 433.471L370.727 433.604ZM374.681 433.338L374.636 432.646L376.612 432.516L376.66 433.205L374.681 433.338ZM378.638 433.072L378.59 432.38L380.566 432.247L380.614 432.942L378.638 433.072ZM382.592 432.806L382.547 432.111L384.52 431.981L384.568 432.67L382.592 432.806ZM386.546 432.54L386.498 431.848L388.477 431.717L388.522 432.409L386.546 432.54ZM390.498 432.274L390.455 431.579L392.431 431.446L392.479 432.138L390.498 432.274ZM394.455 432.007L394.409 431.313L396.388 431.18L396.436 431.874L394.455 432.007ZM292.527 431.741C292.396 431.071 292.33 430.389 292.33 429.705V427.871H293.023V429.758C293.023 430.396 293.084 431.033 293.206 431.659L292.527 431.741ZM398.409 431.741L398.366 431.049L400.342 430.919L400.39 431.608L398.409 431.741ZM402.366 431.475L402.318 430.78L404.296 430.647L404.344 431.342L402.366 431.475ZM406.32 431.209L406.275 430.517L408.253 430.384L408.298 431.076L406.32 431.209ZM410.277 430.943L410.229 430.251L412.207 430.118L412.255 430.812L410.277 430.943ZM414.228 430.677L414.183 429.985L416.161 429.849L416.209 430.543L414.228 430.677ZM418.185 430.41L418.137 429.721L420.113 429.588L420.161 430.28L418.185 430.41ZM422.139 430.144L422.094 429.45L424.07 429.316L424.118 430.011L422.139 430.144ZM426.096 429.878L426.048 429.186L428.024 429.05L428.069 429.745L426.096 429.878ZM430.05 429.612L430.005 428.917L431.981 428.787L432.026 429.479L430.05 429.612ZM434.007 429.346L433.959 428.656L435.935 428.521L435.983 429.213L434.007 429.346ZM437.961 429.08L437.914 428.385L439.892 428.255L439.937 428.947L437.961 429.08ZM441.913 428.813L441.865 428.124L443.843 427.991L443.891 428.683L441.913 428.813ZM445.867 428.547L445.825 427.855L447.8 427.725L447.848 428.417L445.867 428.547ZM449.824 428.281L449.781 427.586L451.754 427.453L451.802 428.148L449.824 428.281ZM453.778 428.015L453.733 427.323L455.187 427.227C455.355 427.227 455.52 427.198 455.685 427.177L455.781 427.861C455.6 427.89 455.418 427.906 455.232 427.919L453.778 428.015ZM457.772 427.328L457.506 426.689C458.092 426.448 458.648 426.137 459.16 425.763L459.567 426.32C459.016 426.741 458.414 427.092 457.775 427.363L457.772 427.328ZM293.02 425.888H292.328V423.905H293.02V425.888ZM461.071 424.912L460.539 424.467C460.945 423.978 461.29 423.442 461.567 422.87L462.19 423.171C461.895 423.814 461.52 424.418 461.074 424.967L461.071 424.912ZM293.02 421.925H292.328V419.942H293.02V421.925ZM462.842 421.223L462.163 421.092C462.243 420.653 462.284 420.208 462.286 419.761V419.186H462.978V419.764C462.982 420.268 462.937 420.772 462.845 421.268L462.842 421.223ZM293.02 417.962H292.328V415.982H293.02V417.962ZM462.978 417.203H462.286V415.221H462.978V417.203ZM293.02 414.01H292.328V412.029H293.02V414.01ZM462.978 413.251H462.286V411.271H462.978V413.251ZM293.02 410.057H292.328V408.077H293.02V410.057ZM462.978 409.298H462.286V407.316H462.978V409.298ZM293.02 406.105H292.328V404.122H293.02V406.105ZM462.978 405.343H462.286V403.36H462.978V405.343ZM293.02 402.149H292.328V400.169H293.02V402.149ZM462.978 401.391H462.286V399.416H462.978V401.391ZM293.02 398.197H292.328V396.222H293.02V398.197ZM462.978 397.438H462.286V395.455H462.978V397.438ZM293.02 394.244H292.328V392.264H293.02V394.244ZM462.978 393.483H462.286V391.506H462.978V393.483ZM293.02 390.289H292.328V388.309H293.02V390.289ZM462.978 389.531H462.286V387.548H462.978V389.531ZM293.02 386.337H292.328V384.356H293.02V386.337ZM462.978 385.578H462.286V383.598H462.978V385.578ZM293.02 382.384H292.328V380.404H293.02V382.384ZM462.978 381.623H462.286V379.643H462.978V381.623ZM293.02 378.429H292.328V376.446H293.02V378.429ZM462.978 377.668H462.286V375.688H462.978V377.668ZM293.02 374.474H292.328V372.494H293.02V374.474ZM462.978 373.715H462.286V371.735H462.978V373.715ZM293.02 370.521H292.328V368.541H293.02V370.521ZM462.978 369.763H462.286V367.785H462.978V369.763ZM293.02 366.569H292.328V364.586H293.02V366.569ZM462.978 365.81H462.286V363.75H462.978V365.81ZM293.02 362.616H292.328V360.556H293.02V362.616ZM462.978 361.858H462.286V359.875H462.978V361.858ZM293.02 358.664H292.328V356.684H293.02V358.664ZM462.978 357.905H462.286V355.925H462.978V357.905ZM293.02 354.711H292.328V352.728H293.02V354.711ZM462.978 353.953H462.286V351.97H462.978V353.953ZM293.02 350.759H292.328V348.779H293.02V350.759ZM462.978 350H462.286V348.017H462.978V350ZM293.02 346.806H292.328V344.826H293.02V346.806ZM462.978 346.045H462.286V344.062H462.978V346.045ZM293.02 342.851H292.328V340.871H293.02V342.851ZM462.978 342.09H462.286V340.112H462.978V342.09ZM293.02 338.896H292.328V336.913H293.02V338.896ZM462.978 338.137H462.286V336.157H462.978V338.137ZM293.02 334.943H292.328V332.966H293.02V334.943ZM462.978 334.185H462.286V332.077H462.978V334.185ZM293.02 330.991H292.328V329.011H293.02V330.991ZM462.978 330.232H462.286V328.252H462.978V330.232ZM293.02 327.038H292.328V324.891H293.02V327.038ZM462.978 326.28H462.286V324.3H462.978V326.28ZM293.02 323.086H292.328V321.103H293.02V323.086ZM462.978 322.327H462.286V320.347H462.978V322.327ZM293.02 319.133H292.328V317.153H293.02V319.133ZM462.208 318.431C462.114 317.806 461.935 317.197 461.676 316.621L462.312 316.355C462.592 316.987 462.785 317.654 462.887 318.338L462.208 318.431ZM293.02 315.176H292.328V313.193H293.02V315.176ZM460.723 314.995C460.333 314.496 459.886 314.044 459.391 313.648L459.823 313.116C460.361 313.544 460.847 314.036 461.268 314.579L460.723 314.995ZM457.775 312.663C457.2 312.403 456.594 312.216 455.972 312.107L456.087 311.423C456.769 311.542 457.433 311.748 458.063 312.035L457.775 312.663ZM454.034 311.934L452.055 311.803L452.103 311.109L454.079 311.242L454.034 311.934ZM450.077 311.668L448.104 311.537L448.152 310.845L450.125 310.978L450.077 311.668ZM446.123 311.401L444.15 311.268L444.195 310.576L446.171 310.707L446.123 311.401ZM293.015 311.207H292.322V309.53C292.322 309.424 292.322 309.32 292.322 309.214L293.015 309.232V311.207ZM442.163 311.135L440.187 311L440.233 310.31L442.211 310.443L442.163 311.135ZM438.212 310.869L436.231 310.739L436.279 310.044L438.254 310.177L438.212 310.869ZM434.255 310.603L432.276 310.473L432.324 309.778L434.303 309.911L434.255 310.603ZM430.301 310.337L428.322 310.204L428.37 309.509L430.349 309.642L430.301 310.337ZM426.344 310.071L424.368 309.938L424.413 309.246L426.392 309.379L426.344 310.071ZM422.39 309.804L420.411 309.671L420.456 308.979L422.435 309.11L422.39 309.804ZM418.435 309.538L416.46 309.405L416.502 308.713L418.483 308.846L418.435 309.538ZM414.481 309.272L412.5 309.139L412.548 308.45L414.527 308.58L414.481 309.272ZM410.524 309.006L408.549 308.876L408.591 308.178L410.572 308.314L410.524 309.006ZM406.57 308.74L404.595 308.607L404.642 307.915L406.616 308.045L406.57 308.74ZM402.616 308.474L400.64 308.341L400.686 307.649L402.661 307.782L402.616 308.474ZM398.659 308.207L396.683 308.077L396.731 307.382L398.707 307.518L398.659 308.207ZM394.702 307.941L392.727 307.808L392.775 307.116L394.753 307.247L394.702 307.941ZM390.754 307.675L388.772 307.545L388.82 306.85L390.801 306.983L390.754 307.675ZM386.797 307.409L384.818 307.276L384.866 306.584L386.839 306.714L386.797 307.409ZM293.262 307.326L292.586 307.167C292.741 306.498 292.967 305.849 293.262 305.229L293.891 305.527C293.629 306.052 293.421 306.602 293.27 307.169L293.262 307.326ZM382.842 307.14L380.864 307.01L380.909 306.318L382.888 306.451L382.842 307.14ZM378.886 306.874L376.91 306.744L376.955 306.052L378.934 306.185L378.886 306.874ZM374.931 306.608L372.953 306.475L373.001 305.783L374.979 305.916L374.931 306.608ZM370.977 306.342L369.002 306.211L369.044 305.519L371.025 305.65L370.977 306.342ZM367.023 306.076L365.045 305.942L365.09 305.25L367.068 305.381L367.023 306.076ZM363.066 305.809L361.09 305.676L361.138 304.984L363.114 305.115L363.066 305.809ZM359.112 305.543L357.134 305.41L357.184 304.718L359.16 304.851L359.112 305.543ZM355.155 305.277L353.179 305.144L353.227 304.449L355.203 304.582L355.155 305.277ZM351.201 305.011L349.225 304.875L349.271 304.186L351.246 304.316L351.201 305.011ZM347.25 304.745L345.271 304.612L345.316 303.92L347.292 304.053L347.25 304.745ZM343.29 304.479L341.314 304.343L341.362 303.653L343.338 303.787L343.29 304.479ZM339.338 304.212L337.357 304.079L337.405 303.387L339.381 303.518L339.338 304.212ZM335.384 303.946L333.406 303.816L333.454 303.124L335.43 303.257L335.384 303.946ZM294.91 303.914L294.378 303.475C294.816 302.939 295.327 302.466 295.896 302.07L296.292 302.639C295.784 302.955 295.319 303.336 294.91 303.773V303.914ZM331.438 303.683L329.46 303.55L329.505 302.858L331.483 302.991L331.438 303.683ZM327.481 303.417L325.503 303.286L325.551 302.591L327.529 302.725L327.481 303.417ZM323.524 303.15L321.546 303.017L321.591 302.323L323.572 302.456L323.524 303.15ZM319.57 302.884L317.594 302.754L317.642 302.059L319.618 302.192L319.57 302.884ZM315.616 302.618L313.635 302.485L313.683 301.796L315.661 301.926L315.616 302.618ZM311.662 302.352L309.686 302.219L309.731 301.527L311.707 301.657L311.662 302.352ZM307.705 302.086L305.732 301.953L305.777 301.261L307.75 301.394L307.705 302.086ZM303.751 301.82L301.775 301.687L301.82 300.992L303.799 301.125L303.751 301.82ZM297.965 301.82L297.765 301.16C298.384 300.97 299.029 300.873 299.677 300.872H299.826V301.564H299.69C299.116 301.519 298.538 301.557 297.975 301.679L297.965 301.82Z" fill="white"/>
<path d="M293.899 426.544V426.847C293.899 431.457 297.206 434.971 301.29 434.71C301.724 434.683 302.158 434.651 302.59 434.627V442.269C299.957 442.446 297.322 442.624 294.684 442.801C290.293 443.097 286.736 439.147 286.736 433.967V426.959L293.899 426.544Z" fill="#665446"/>
<path d="M455.719 424.821C459.804 424.555 463.114 421.231 463.114 417.387V417.038L468.578 416.732V423.32C468.578 427.64 465.02 431.385 460.632 431.677L455.421 432.026V424.84L455.719 424.821Z" fill="#665446"/>
<path d="M460.632 307.428C465.02 307.721 468.578 311.461 468.578 315.781V322.017L463.114 321.751V321.716C463.114 317.873 459.804 314.546 455.719 314.287L455.421 314.264V307.077C457.157 307.194 458.894 307.311 460.632 307.428Z" fill="#665446"/>
<path d="M278.803 306.097C278.803 300.918 282.398 297.902 286.752 297.253C289.777 296.806 292.767 296.308 293.734 296.311L294.655 305.419L293.355 305.336C289.305 305.07 286.781 308.472 286.73 313.026L278.803 312.845V306.097Z" fill="#4F4036"/>
<path d="M259.57 309.405C259.57 305.096 262.566 302.578 266.187 302.043C267.561 301.841 269.023 301.737 270.205 301.679C266.85 302.629 264.153 305.354 264.153 309.496V313.31L259.57 313.188V309.405Z" fill="#4F4036"/>
<path d="M264.158 424.255V426.86C264.158 431.002 266.856 433.727 270.211 434.675C269.028 434.622 267.567 434.515 266.193 434.31C262.571 433.778 259.576 431.26 259.576 426.948V423.738L264.158 424.255Z" fill="#4F4137"/>
<path d="M294.684 296.308L302.59 296.841V304.477L301.29 304.389C297.206 304.123 293.899 307.652 293.899 312.257V313.38L286.736 313.029V305.153C286.736 299.973 290.293 296.015 294.684 296.308Z" fill="#665446"/>
<path d="M278.803 433.001C278.803 438.181 282.398 441.199 286.752 441.84C289.777 442.293 292.767 442.788 293.734 442.788L294.655 433.677C294.226 433.706 293.792 433.73 293.355 433.762C289.305 434.028 286.781 430.627 286.73 426.073L278.803 425.719V433.001Z" fill="#4F4137"/>
<path d="M294.684 442.801C297.32 442.623 299.955 442.446 302.59 442.269V434.635C302.158 434.659 301.724 434.688 301.29 434.718C297.206 434.984 293.899 431.454 293.899 426.85V425.727L286.736 426.081V433.959C286.736 439.128 290.293 443.083 294.684 442.801Z" fill="#665446"/>
<path d="M429.265 433.272L418.854 433.972V304.982L429.265 305.499V433.272Z" fill="#D86619"/>
<path d="M340.081 439.175L325.809 440.067V298.703L340.081 299.667V439.175Z" fill="#D86619"/>
<g style="mix-blend-mode:multiply">
<path d="M358.026 284.299C351.571 283.918 346.392 289.109 346.392 295.802V300.593L340.081 300.173V299.659L325.809 298.696V299.228L309.034 298.105C301.015 303.298 293.266 308.895 285.814 314.873C276.746 322.083 268.146 329.863 260.066 338.165V375.654C273.542 370.195 291.473 359.234 309.675 344.672C340.196 320.268 360.683 294.387 358.026 284.299Z" fill="#E2E2E2"/>
</g>
<path d="M361.698 260.746C368.285 268.976 347.071 296.891 314.301 323.094C281.53 349.298 249.644 363.87 243.056 355.641C236.468 347.411 257.685 319.496 290.453 293.289C323.221 267.083 355.11 252.519 361.698 260.746Z" fill="#FFCD40"/>
<path d="M305.963 281.687C328.536 267.093 346.97 260.229 351.433 265.811C357.466 273.346 335.8 300.696 303.037 326.9C286.603 340.049 270.498 350.41 257.77 356.516C271.617 352.524 292.78 340.32 314.314 323.094C347.066 296.89 368.288 268.975 361.711 260.746C356.162 253.825 332.745 263.021 305.963 281.687Z" fill="#FFE443"/>
<path d="M292.168 256.487C292.669 256.644 293.114 256.943 293.448 257.347C296.186 260.765 289.129 270.948 277.693 280.099C266.256 289.249 254.769 293.894 252.035 290.479C251.707 290.055 251.511 289.544 251.473 289.01C251.057 296.7 253.494 304.274 258.316 310.281L271.113 326.27C273.851 329.684 287.95 322.951 302.606 311.223C317.261 299.496 326.933 287.221 324.201 283.809L311.401 267.823C306.601 261.811 299.754 257.776 292.168 256.487Z" fill="#FFA73E"/>
<path d="M292.168 256.487C292.669 256.644 293.114 256.943 293.448 257.347C295.025 259.317 293.35 263.527 289.454 268.494C296.076 270.169 301.968 273.964 306.23 279.3L319.027 295.286C319.054 295.32 319.075 295.365 319.104 295.403C323.575 289.968 325.641 285.627 324.187 283.806L311.387 267.82C306.59 261.812 299.749 257.778 292.168 256.487Z" fill="#FFBA40"/>
<path d="M277.693 280.085C289.143 270.935 296.186 260.751 293.449 257.334C293.114 256.93 292.669 256.631 292.168 256.474C291.571 256.373 290.975 256.283 290.376 256.208C285.551 256.229 276.655 260.613 267.788 267.704C258.921 274.794 252.671 282.539 251.609 287.237C251.545 287.823 251.502 288.403 251.473 288.989C251.511 289.523 251.707 290.034 252.035 290.458C254.769 293.881 266.257 289.225 277.693 280.085Z" fill="#FFCD40"/>
<path d="M293.539 299.885C278.894 311.612 264.782 318.346 262.047 314.931L269.556 324.305C272.288 327.723 286.39 320.986 301.048 309.262C315.707 297.537 325.372 285.259 322.638 281.847L315.132 272.457C317.869 275.883 308.2 288.161 293.539 299.885Z" fill="#DD4A2C"/>
<path d="M310.282 283.782L317.789 293.154C322.094 287.857 324.07 283.633 322.638 281.845L315.131 272.457C316.564 274.256 314.591 278.48 310.282 283.782Z" fill="#F76F54"/>
<path d="M301.197 295.472C301.197 295.472 302.949 292.278 303.144 287.506C303.338 282.734 309.558 275.96 313.579 284.264C315.818 288.688 319.882 289.537 321.567 291.642C323.253 293.748 322.129 297.46 316.287 298.924C310.445 300.388 307.303 303.108 307.303 303.108L301.197 295.472Z" fill="#F15D39"/>
<path d="M298.758 297.42C298.758 297.42 295.251 298.426 290.554 297.572C285.857 296.717 277.88 301.298 285.106 307.039C288.933 310.196 288.871 314.345 290.549 316.458C292.226 318.572 296.109 318.282 298.822 312.905C301.535 307.529 304.872 305.059 304.872 305.059L298.758 297.42Z" fill="#F15D39"/>
<path d="M308.64 300.042C309.726 301.4 309.723 303.21 308.64 304.08L305.508 306.585C304.416 307.455 302.651 307.064 301.562 305.704L296.91 299.872C295.818 298.512 295.821 296.702 296.91 295.829L300.039 293.327C301.128 292.454 302.899 292.85 303.985 294.208L308.64 300.042Z" fill="#F76F54"/>
<g style="mix-blend-mode:multiply">
<path d="M321.49 383.5H318.167V381.85C318.169 381.731 318.124 381.616 318.042 381.53C317.959 381.444 317.846 381.395 317.727 381.392H317.395V379.795C317.395 379.699 317.358 379.606 317.292 379.537C317.225 379.468 317.134 379.428 317.038 379.425H310.695C310.647 379.425 310.6 379.436 310.556 379.455C310.512 379.474 310.472 379.501 310.439 379.535C310.405 379.57 310.379 379.61 310.361 379.655C310.344 379.699 310.335 379.747 310.336 379.795V381.392H310.006C309.887 381.395 309.775 381.445 309.693 381.531C309.611 381.617 309.567 381.731 309.569 381.85V383.489H300.856V382.116C300.857 382.087 300.852 382.058 300.842 382.031C300.831 382.004 300.815 381.979 300.795 381.958C300.775 381.937 300.751 381.92 300.725 381.908C300.698 381.897 300.67 381.89 300.641 381.889H300.481V381.091C300.481 381.043 300.462 380.997 300.429 380.963C300.396 380.929 300.35 380.909 300.302 380.907H297.176C297.153 380.908 297.129 380.913 297.108 380.922C297.086 380.932 297.066 380.945 297.05 380.962C297.034 380.979 297.021 381 297.012 381.022C297.004 381.044 297 381.067 297.001 381.091V381.889H296.833C296.774 381.892 296.719 381.916 296.679 381.959C296.639 382.001 296.616 382.057 296.617 382.116V383.502H285.7C285.331 383.509 284.967 383.589 284.628 383.737C284.29 383.884 283.984 384.097 283.728 384.363C283.472 384.629 283.271 384.943 283.137 385.287C283.002 385.63 282.937 385.997 282.944 386.366V389.872C282.944 389.872 283.04 390.936 282.534 391.599C282.108 392.166 280.75 392.115 280.75 392.115H257.424V391.237C257.425 391.179 257.415 391.121 257.393 391.066C257.372 391.012 257.34 390.962 257.3 390.92C257.259 390.878 257.211 390.845 257.157 390.821C257.104 390.798 257.046 390.786 256.988 390.785H256.657V389.188C256.658 389.139 256.649 389.091 256.631 389.047C256.614 389.002 256.587 388.961 256.553 388.926C256.52 388.892 256.48 388.864 256.435 388.845C256.391 388.826 256.343 388.816 256.295 388.815H249.984C249.936 388.816 249.889 388.826 249.844 388.845C249.8 388.864 249.76 388.892 249.726 388.926C249.693 388.961 249.666 389.002 249.648 389.047C249.63 389.091 249.622 389.139 249.622 389.188V390.785H249.289C249.231 390.786 249.173 390.798 249.12 390.821C249.066 390.845 249.018 390.878 248.977 390.92C248.937 390.962 248.905 391.012 248.884 391.066C248.862 391.121 248.852 391.179 248.853 391.237V392.115H244.941C244.196 392.13 243.488 392.44 242.971 392.976C242.454 393.513 242.172 394.232 242.185 394.977V445.67H242.223C242.296 446.343 242.613 446.967 243.113 447.424C243.614 447.881 244.264 448.14 244.941 448.153H321.49C322.168 448.141 322.818 447.882 323.318 447.425C323.819 446.968 324.135 446.344 324.209 445.67H324.249V386.374C324.257 386.004 324.192 385.636 324.057 385.292C323.923 384.947 323.722 384.632 323.466 384.365C323.21 384.098 322.903 383.884 322.564 383.736C322.225 383.587 321.86 383.507 321.49 383.5Z" fill="#CECECE"/>
</g>
<path d="M221.413 386.688C221.413 386.744 221.402 386.798 221.381 386.849C221.36 386.9 221.329 386.946 221.29 386.985C221.251 387.024 221.204 387.054 221.153 387.075C221.102 387.096 221.048 387.107 220.992 387.106H213.59C213.535 387.107 213.48 387.097 213.429 387.076C213.378 387.055 213.331 387.025 213.292 386.986C213.253 386.947 213.222 386.9 213.201 386.849C213.179 386.798 213.169 386.744 213.169 386.688V381.831C213.169 381.776 213.179 381.721 213.201 381.67C213.222 381.619 213.253 381.573 213.292 381.534C213.331 381.495 213.378 381.464 213.429 381.443C213.48 381.423 213.535 381.412 213.59 381.413H220.992C221.048 381.413 221.102 381.423 221.153 381.444C221.204 381.465 221.251 381.496 221.29 381.535C221.329 381.573 221.36 381.62 221.381 381.67C221.402 381.721 221.413 381.776 221.413 381.831V386.688Z" fill="#307CA0"/>
<path d="M220.993 381.413H219.69V387.106H221.003C221.058 387.107 221.113 387.096 221.164 387.075C221.215 387.055 221.261 387.024 221.301 386.985C221.34 386.946 221.371 386.9 221.392 386.849C221.413 386.798 221.424 386.744 221.424 386.689V381.831C221.424 381.775 221.413 381.72 221.391 381.668C221.369 381.617 221.337 381.57 221.297 381.531C221.257 381.492 221.209 381.461 221.157 381.441C221.104 381.421 221.049 381.412 220.993 381.413Z" fill="#1F3B51"/>
<path d="M222.31 390.069C222.311 390.136 222.298 390.202 222.272 390.264C222.247 390.327 222.209 390.383 222.161 390.431C222.114 390.478 222.057 390.516 221.995 390.541C221.933 390.567 221.866 390.58 221.799 390.58H212.767C212.632 390.579 212.503 390.525 212.407 390.429C212.312 390.333 212.259 390.204 212.259 390.069V384.149C212.259 384.014 212.312 383.885 212.407 383.79C212.503 383.694 212.632 383.641 212.767 383.641H221.791C221.858 383.64 221.925 383.653 221.987 383.679C222.049 383.704 222.105 383.741 222.153 383.789C222.2 383.836 222.238 383.892 222.263 383.954C222.289 384.016 222.302 384.082 222.302 384.149L222.31 390.069Z" fill="#1F3B51"/>
<path d="M292.362 376.146C292.362 376.257 292.317 376.364 292.238 376.443C292.16 376.521 292.053 376.566 291.942 376.567H284.534C284.422 376.566 284.316 376.521 284.237 376.443C284.158 376.364 284.114 376.257 284.113 376.146V371.286C284.114 371.175 284.158 371.069 284.237 370.99C284.316 370.912 284.423 370.868 284.534 370.868H291.942C292.053 370.868 292.159 370.912 292.238 370.99C292.317 371.069 292.362 371.175 292.362 371.286V376.146Z" fill="#307CA0"/>
<path d="M291.942 370.868H290.624V376.567H291.942C292.053 376.566 292.16 376.521 292.238 376.443C292.317 376.364 292.362 376.257 292.362 376.146V371.286C292.362 371.175 292.317 371.069 292.238 370.99C292.159 370.912 292.053 370.868 291.942 370.868Z" fill="#1F3B51"/>
<path d="M293.262 379.521C293.262 379.657 293.208 379.788 293.111 379.884C293.015 379.98 292.884 380.034 292.748 380.034H283.727C283.659 380.034 283.593 380.021 283.531 379.995C283.468 379.969 283.412 379.932 283.364 379.884C283.317 379.836 283.279 379.779 283.254 379.717C283.228 379.655 283.215 379.588 283.216 379.521V373.599C283.216 373.463 283.269 373.333 283.365 373.236C283.461 373.14 283.591 373.086 283.727 373.085H292.748C292.884 373.086 293.014 373.14 293.111 373.236C293.207 373.332 293.261 373.463 293.262 373.599V379.521Z" fill="#1F3B51"/>
<path d="M272.597 375.137C272.596 375.192 272.574 375.245 272.535 375.284C272.496 375.323 272.444 375.346 272.389 375.348H268.743C268.716 375.347 268.689 375.341 268.665 375.331C268.64 375.32 268.617 375.304 268.598 375.285C268.579 375.265 268.565 375.242 268.555 375.217C268.545 375.191 268.54 375.164 268.541 375.137V372.742C268.54 372.715 268.545 372.688 268.555 372.663C268.565 372.638 268.58 372.615 268.598 372.595C268.617 372.576 268.64 372.561 268.665 372.55C268.69 372.54 268.716 372.534 268.743 372.534H272.389C272.444 372.535 272.496 372.557 272.535 372.596C272.574 372.635 272.596 372.687 272.597 372.742V375.137Z" fill="#307CA0"/>
<path d="M272.389 372.534H271.742V375.34H272.389C272.444 375.338 272.496 375.316 272.535 375.276C272.574 375.237 272.596 375.184 272.596 375.129V372.734C272.594 372.68 272.571 372.63 272.532 372.593C272.494 372.556 272.442 372.535 272.389 372.534Z" fill="#1F3B51"/>
<path d="M273.039 376.793C273.035 376.858 273.007 376.92 272.96 376.966C272.913 377.012 272.851 377.04 272.786 377.043H268.347C268.279 377.043 268.214 377.017 268.164 376.971C268.115 376.924 268.085 376.86 268.081 376.793V373.881C268.084 373.813 268.114 373.748 268.163 373.701C268.213 373.654 268.278 373.628 268.347 373.628H272.786C272.852 373.631 272.914 373.659 272.961 373.706C273.008 373.752 273.035 373.815 273.039 373.881V376.793Z" fill="#1F3B51"/>
<path d="M297.144 375.462H255.339C254.917 375.462 254.498 375.544 254.107 375.706C253.717 375.867 253.362 376.104 253.063 376.403C252.764 376.701 252.527 377.056 252.365 377.446C252.203 377.836 252.12 378.255 252.12 378.677V382.624C252.12 382.624 252.229 383.814 251.641 384.565C251.145 385.198 249.556 385.142 249.556 385.142H207.708C206.854 385.142 206.035 385.481 205.431 386.085C204.827 386.688 204.487 387.506 204.486 388.36V444.93C204.487 445.784 204.826 446.603 205.431 447.207C206.035 447.811 206.854 448.15 207.708 448.151H297.152C298.006 448.15 298.825 447.811 299.429 447.207C300.033 446.603 300.372 445.784 300.372 444.93V378.669C300.371 378.247 300.286 377.829 300.123 377.439C299.961 377.049 299.723 376.695 299.423 376.397C299.123 376.099 298.768 375.863 298.377 375.703C297.986 375.542 297.567 375.461 297.144 375.462Z" fill="#307CA0"/>
<path d="M204.478 399.211V444.93C204.478 445.353 204.562 445.772 204.725 446.163C204.887 446.555 205.125 446.91 205.425 447.209C205.725 447.508 206.081 447.745 206.473 447.907C206.865 448.068 207.284 448.151 207.708 448.15H297.152C298.006 448.149 298.825 447.81 299.429 447.206C300.032 446.602 300.372 445.783 300.372 444.93V399.211H204.478Z" fill="#EA7628"/>
<path d="M300.366 443.091H204.475V445.358H300.366V443.091Z" fill="#307CA0"/>
<path d="M256.969 421.718C256.969 425.574 255.825 429.344 253.682 432.55C251.538 435.756 248.492 438.255 244.928 439.73C241.364 441.206 237.443 441.592 233.659 440.84C229.875 440.088 226.4 438.231 223.672 435.504C220.944 432.777 219.087 429.304 218.334 425.522C217.582 421.74 217.968 417.82 219.444 414.257C220.92 410.695 223.42 407.65 226.628 405.507C229.835 403.365 233.606 402.222 237.464 402.222C242.637 402.222 247.598 404.277 251.255 407.933C254.913 411.589 256.968 416.548 256.969 421.718Z" fill="#1F3B51"/>
<path d="M254.354 421.718C254.353 425.057 253.361 428.322 251.504 431.098C249.647 433.875 247.008 436.039 243.921 437.316C240.833 438.594 237.437 438.927 234.16 438.275C230.883 437.623 227.873 436.014 225.51 433.652C223.148 431.29 221.539 428.281 220.888 425.005C220.237 421.729 220.571 418.334 221.85 415.248C223.129 412.163 225.295 409.525 228.073 407.67C230.851 405.815 234.118 404.824 237.459 404.824C239.678 404.824 241.876 405.261 243.926 406.11C245.976 406.958 247.839 408.203 249.408 409.772C250.977 411.341 252.222 413.203 253.07 415.253C253.919 417.302 254.355 419.499 254.354 421.718Z" fill="#BCBCBC"/>
<path d="M250.845 421.718C250.845 424.364 250.06 426.95 248.589 429.15C247.119 431.35 245.028 433.065 242.583 434.077C240.138 435.09 237.447 435.355 234.851 434.838C232.255 434.322 229.87 433.048 227.998 431.177C226.127 429.306 224.852 426.923 224.336 424.328C223.819 421.733 224.084 419.043 225.097 416.599C226.11 414.154 227.826 412.065 230.026 410.595C232.227 409.125 234.815 408.341 237.462 408.341C241.011 408.341 244.415 409.75 246.925 412.259C249.435 414.768 250.845 418.17 250.845 421.718Z" fill="white"/>
<path d="M250.845 421.718C250.845 424.364 250.06 426.95 248.589 429.15C247.119 431.35 245.028 433.065 242.583 434.077C240.138 435.09 237.447 435.355 234.851 434.838C232.255 434.322 229.87 433.048 227.998 431.177C226.127 429.306 224.852 426.923 224.336 424.328C223.819 421.733 224.084 419.043 225.097 416.599C226.11 414.154 227.826 412.065 230.026 410.595C232.227 409.125 234.815 408.341 237.462 408.341C241.011 408.341 244.415 409.75 246.925 412.259C249.435 414.768 250.845 418.17 250.845 421.718Z" fill="#E2E2E2"/>
<path d="M287.159 379.061H266.608V388.35H287.159V379.061Z" fill="#1F3B51"/>
<path d="M284.406 380.306H269.356V387.106H284.406V380.306Z" fill="white"/>
<path d="M274.916 380.306H270.991V387.106H274.916V380.306Z" fill="#EFEFEF"/>
<path d="M246.906 414.547C246.906 415.091 246.745 415.623 246.442 416.075C246.14 416.527 245.71 416.88 245.208 417.088C244.705 417.296 244.152 417.35 243.618 417.244C243.084 417.137 242.594 416.875 242.21 416.491C241.825 416.106 241.563 415.616 241.458 415.082C241.352 414.549 241.407 413.996 241.615 413.493C241.824 412.991 242.177 412.562 242.629 412.26C243.082 411.958 243.614 411.797 244.158 411.798C244.887 411.799 245.586 412.089 246.102 412.604C246.617 413.12 246.906 413.819 246.906 414.547Z" fill="white"/>
<path d="M233.422 427.63C233.422 428.173 233.261 428.704 232.959 429.156C232.657 429.607 232.228 429.959 231.726 430.167C231.224 430.375 230.671 430.43 230.138 430.324C229.605 430.218 229.115 429.956 228.731 429.572C228.347 429.188 228.085 428.698 227.979 428.165C227.873 427.633 227.927 427.08 228.135 426.578C228.343 426.077 228.696 425.648 229.148 425.346C229.599 425.044 230.131 424.883 230.674 424.883C231.035 424.882 231.393 424.953 231.726 425.091C232.06 425.229 232.363 425.431 232.618 425.687C232.873 425.942 233.076 426.245 233.214 426.578C233.352 426.911 233.423 427.269 233.422 427.63Z" fill="white"/>
<path opacity="0.4" d="M215.718 385.134H209.013V448.15H215.718V385.134Z" fill="white"/>
<g style="mix-blend-mode:multiply">
<path d="M297.144 375.462H286.155V448.151H297.144C297.568 448.152 297.987 448.069 298.379 447.907C298.771 447.746 299.126 447.509 299.426 447.209C299.726 446.91 299.964 446.555 300.126 446.164C300.288 445.773 300.372 445.354 300.372 444.93V378.669C300.371 378.247 300.286 377.829 300.123 377.439C299.961 377.049 299.723 376.695 299.423 376.397C299.123 376.099 298.768 375.863 298.377 375.703C297.986 375.542 297.567 375.461 297.144 375.462Z" fill="#CECECE"/>
</g>
<g style="mix-blend-mode:multiply">
<path d="M447.976 431.697C448.091 425.798 447.896 421.987 447.641 417.515V417.497C447.977 413.368 447.72 409.213 446.876 405.158C446.493 400.649 445.878 395.187 444.69 387.303C442.762 374.421 432.519 366.026 427.079 371.736C426.084 372.592 425.302 373.668 424.794 374.879C424.094 373.213 423.196 372.004 422.201 371.23C416.646 365.715 406.544 374.674 404.909 387.692C403.907 395.64 403.415 401.128 403.135 405.661C402.386 409.736 402.224 413.897 402.653 418.019V418.042C402.411 423.602 402.45 429.17 402.768 434.726L418.854 433.645V433.972L420.241 433.879C420.651 430.51 421.141 426.456 421.913 419.123C422.467 413.861 423.777 408.65 424.906 403.26C426.192 408.828 427.718 414.172 428.423 419.629C429.222 425.931 429.781 429.791 430.229 432.884L447.976 431.697Z" fill="#E2E2E2"/>
</g>
<path d="M419.849 406.007C422.246 391.166 432.63 376.684 426.634 358.63C420.637 340.576 394.55 351.952 390.998 370.408C387.446 388.863 387.537 395.834 387.041 405.381C386.693 412.073 386.485 417.478 387.601 428.463C388.847 442.681 395.855 444.145 399.748 445.079C403.641 446.014 411.616 446.745 414.393 436.296C414.763 435.476 415.232 432.745 415.381 431.771C416.601 424.031 417.469 420.848 419.849 406.007Z" fill="#B24640"/>
<path d="M418.768 405.394C421.151 390.548 431.549 376.071 425.553 358.017C419.556 339.964 393.469 351.337 389.923 369.795C386.376 388.253 386.461 395.221 385.961 404.769C385.614 411.46 385.404 416.866 386.52 427.847C387.766 442.066 394.774 443.532 398.667 444.467C402.56 445.401 410.535 446.128 413.312 435.683C413.682 434.861 414.148 432.125 414.3 431.159C415.522 423.421 416.388 420.235 418.768 405.394Z" fill="#EE4B60"/>
<path d="M419.037 406.047C419.037 406.047 415.991 414.127 411.581 417.324C407.172 420.521 407.398 414.992 410.649 412.501C413.901 410.01 417.373 405.251 417.863 400.103C418.353 394.956 419.037 406.047 419.037 406.047Z" fill="#FFA73E"/>
<path d="M386.235 403.608C386.235 403.608 386.637 412.237 389.859 416.632C393.081 421.026 394.558 415.705 392.236 412.33C389.915 408.956 387.137 402.262 388.242 397.21C389.347 392.158 386.235 403.608 386.235 403.608Z" fill="#FFA73E"/>
<path d="M386.911 408.761C386.911 408.761 381.852 394.655 391.262 381.163C400.672 367.671 411.549 359.018 414.502 359.87C417.455 360.722 423.822 381.243 421.508 395.688C419.764 406.624 417.344 409.77 417.344 409.77C417.344 409.77 420.134 380.226 412.103 369.226C410.117 366.873 386.006 383.694 386.911 408.761Z" fill="#FFD578"/>
<path d="M431.302 406.586C428.397 391.838 417.503 377.737 422.85 359.476C428.197 341.214 454.681 351.672 458.877 369.992C463.074 388.312 463.236 395.277 464.067 404.806C464.647 411.484 465.05 416.876 464.333 427.89C463.588 442.143 456.638 443.86 452.78 444.924C448.921 445.989 440.978 447.006 437.836 436.673C437.439 435.875 436.875 433.149 436.689 432.191C435.187 424.496 434.207 421.34 431.302 406.586Z" fill="#B24640"/>
<path d="M432.359 405.94C429.454 391.189 418.558 377.085 423.907 358.829C429.257 340.573 455.735 351.017 459.932 369.337C464.128 387.657 464.293 394.623 465.124 404.151C465.705 410.829 466.107 416.219 465.39 427.238C464.642 441.491 457.692 443.208 453.837 444.273C449.981 445.337 442.033 446.354 438.893 436.022C438.497 435.223 437.929 432.498 437.746 431.537C436.241 423.845 435.264 420.688 432.359 405.94Z" fill="#EE4B60"/>
<path d="M432.119 406.602C432.119 406.602 435.443 414.587 439.972 417.611C444.501 420.634 444.07 415.135 440.733 412.761C437.397 410.387 433.762 405.753 433.086 400.624C432.41 395.495 432.119 406.602 432.119 406.602Z" fill="#FFA73E"/>
<path d="M464.81 403.01C464.81 403.01 464.711 411.644 461.649 416.155C458.587 420.667 456.92 415.394 459.122 411.947C461.324 408.501 463.862 401.7 462.565 396.688C461.268 391.676 464.81 403.01 464.81 403.01Z" fill="#FFA73E"/>
<path d="M464.325 408.181C464.325 408.181 468.889 393.907 459 380.767C449.11 367.626 437.943 359.351 435.035 360.302C432.127 361.252 426.487 381.988 429.299 396.337C431.43 407.207 433.954 410.268 433.954 410.268C433.954 410.268 430.127 380.841 437.762 369.561C439.633 367.142 464.338 383.098 464.325 408.181Z" fill="#FFD578"/>
<path d="M391.361 419.485C391.361 419.485 378.886 427.007 375.072 431.026C371.259 435.045 368.149 439.682 370.327 442.359C372.506 445.037 375.589 438.444 376.718 435.146C377.847 431.849 380.635 429.788 382.387 430.201C384.139 430.614 390.737 426.595 391.358 425.144C391.48 423.26 391.481 421.37 391.361 419.485Z" fill="#0B0B0B"/>
<path d="M290.887 419.485C290.887 419.485 303.359 427.007 307.172 431.026C310.985 435.045 314.095 439.682 311.917 442.359C309.739 445.037 306.658 438.444 305.527 435.146C304.395 431.849 301.607 429.788 299.858 430.201C298.108 430.614 291.507 426.595 290.89 425.144C290.764 423.26 290.763 421.37 290.887 419.485Z" fill="#0B0B0B"/>
<path d="M394.268 418.107C393.845 417.96 390.998 417.678 390.998 417.678C378.175 415.325 359.799 417.391 352.921 419.275C346.797 420.939 342.243 421.213 341.125 421.258C340.004 421.213 335.448 420.939 329.329 419.275C322.446 417.412 304.068 415.339 291.252 417.678C291.252 417.678 288.411 417.96 287.987 418.107C287.564 418.253 287.489 421.636 287.489 424.468C287.489 425.799 287.516 426.826 287.79 426.863L288.056 426.911C288.056 426.911 290.581 426.815 291.252 428.343C291.77 429.854 292.145 431.41 292.37 432.99C293.331 439.112 292.37 453.12 309.55 453.533C326.73 453.945 331.233 449.168 334.274 440.203C337.315 431.239 337.421 428.559 341.13 428.559C344.842 428.559 344.943 431.236 347.987 440.203C351.03 449.17 355.528 453.94 372.711 453.533C389.893 453.126 388.929 439.104 389.896 432.99C390.121 431.397 390.499 429.829 391.025 428.309C391.709 426.818 394.191 426.911 394.191 426.911L394.457 426.863C394.724 426.815 394.753 425.799 394.753 424.468C394.761 421.636 394.689 418.258 394.268 418.107ZM334.825 428.604C334.756 431.423 333.379 436.639 333.379 436.639C330.562 447.427 324.928 452.58 311.734 452.098C298.54 451.616 296.724 445.367 295.352 438.495C293.981 431.622 294.617 424.96 298.641 422.387C301.836 420.329 307.918 419.294 320.875 420.633C333.536 421.945 334.894 425.788 334.825 428.604ZM386.892 438.495C385.518 445.367 383.697 451.616 370.514 452.098C357.331 452.58 351.683 447.427 348.863 436.639C348.863 436.639 347.489 431.423 347.42 428.604C347.351 425.785 348.711 421.95 361.373 420.619C374.327 419.288 380.395 420.316 383.607 422.373C387.627 424.968 388.269 431.622 386.892 438.495Z" fill="#474747"/>
<path d="M333.39 436.639C330.573 447.427 324.938 452.58 311.744 452.098C298.551 451.616 296.734 445.367 295.363 438.494C293.992 431.622 294.628 424.96 298.652 422.386C301.847 420.329 307.929 419.293 320.886 420.632C333.547 421.944 334.905 425.788 334.836 428.617C334.767 431.446 333.39 436.639 333.39 436.639Z" fill="#7A7A7A"/>
<path d="M348.863 436.639C348.863 436.639 347.489 431.422 347.42 428.604C347.351 425.785 348.711 421.95 361.373 420.619C374.327 419.288 380.395 420.315 383.607 422.373C387.627 424.947 388.269 431.611 386.892 438.481C385.516 445.351 383.697 451.603 370.514 452.085C357.331 452.566 351.683 447.427 348.863 436.639Z" fill="#39A7C2"/>
<path d="M384.158 421.918C380.837 419.788 374.572 418.724 361.162 420.105C348.07 421.46 346.664 425.428 346.733 428.356C346.802 431.284 348.229 436.668 348.229 436.668C351.142 447.823 356.971 453.152 370.615 452.654C384.259 452.156 386.134 445.691 387.558 438.585C388.983 431.478 388.314 424.582 384.158 421.918ZM386.892 438.494C385.518 445.366 383.697 451.616 370.514 452.098C357.331 452.579 351.683 447.426 348.863 436.639C348.863 436.639 347.489 431.422 347.42 428.604C347.351 425.785 348.711 421.95 361.373 420.619C374.327 419.288 380.395 420.315 383.607 422.373C387.627 424.968 388.269 431.622 386.892 438.494Z" fill="#303030"/>
<path d="M333.39 436.639C333.39 436.639 334.767 431.422 334.836 428.604C334.905 425.785 333.547 421.95 320.886 420.619C307.929 419.288 301.858 420.315 298.652 422.373C294.628 424.947 293.986 431.611 295.363 438.481C296.74 445.351 298.545 451.603 311.744 452.085C324.944 452.566 330.562 447.427 333.39 436.639Z" fill="#39A7C2"/>
<path d="M348.36 434.549C349.787 432.564 353.254 430.679 361.373 429.843C374.327 428.513 380.395 429.537 383.607 431.592C385.433 432.763 386.554 434.786 387.116 437.28C388.181 430.855 387.382 424.813 383.607 422.391C380.395 420.334 374.327 419.298 361.373 420.637C348.711 421.949 347.356 425.793 347.42 428.622C347.46 430.267 347.958 432.771 348.36 434.549Z" fill="#4AC8DD"/>
<path d="M298.641 431.587C301.836 429.533 307.918 428.497 320.875 429.839C328.991 430.674 332.458 432.559 333.888 434.544C334.287 432.772 334.782 430.267 334.825 428.604C334.894 425.788 333.536 421.95 320.875 420.619C307.918 419.288 301.847 420.315 298.641 422.373C294.86 424.795 294.069 430.837 295.129 437.278C295.688 434.781 296.814 432.761 298.641 431.587Z" fill="#4AC8DD"/>
<path d="M321.107 420.038C307.654 418.649 301.352 419.721 298.018 421.859C293.845 424.52 293.174 431.44 294.604 438.59C296.034 445.739 297.911 452.212 311.614 452.715C325.316 453.218 331.174 447.863 334.101 436.662C334.101 436.662 335.528 431.238 335.595 428.316C335.661 425.393 334.255 421.398 321.107 420.038ZM334.825 428.603C334.756 431.422 333.379 436.639 333.379 436.639C330.562 447.426 324.928 452.579 311.734 452.097C298.54 451.615 296.724 445.366 295.353 438.494C293.981 431.621 294.618 424.959 298.641 422.386C301.836 420.328 307.918 419.293 320.875 420.632C333.536 421.944 334.894 425.787 334.825 428.603Z" fill="#303030"/>
<path d="M180.505 393.56C180.506 393.624 180.493 393.687 180.469 393.746C180.445 393.805 180.409 393.859 180.364 393.904C180.319 393.949 180.265 393.984 180.206 394.009C180.148 394.033 180.084 394.045 180.021 394.045H178.95C178.886 394.045 178.823 394.033 178.764 394.009C178.705 393.984 178.652 393.949 178.607 393.904C178.562 393.859 178.526 393.805 178.502 393.746C178.478 393.687 178.465 393.624 178.466 393.56V389.163C178.466 389.1 178.478 389.037 178.503 388.978C178.527 388.92 178.563 388.867 178.608 388.822C178.653 388.777 178.706 388.742 178.765 388.718C178.824 388.693 178.887 388.681 178.95 388.682H180.015C180.079 388.681 180.142 388.693 180.201 388.718C180.259 388.742 180.313 388.777 180.358 388.822C180.403 388.867 180.439 388.92 180.463 388.978C180.487 389.037 180.5 389.1 180.5 389.163L180.505 393.56Z" fill="#E8E8E8"/>
<path d="M180.505 400.031C180.505 400.094 180.493 400.157 180.468 400.216C180.444 400.275 180.408 400.328 180.363 400.373C180.318 400.418 180.265 400.454 180.206 400.478C180.147 400.503 180.084 400.515 180.021 400.515H178.95C178.822 400.515 178.698 400.464 178.608 400.373C178.517 400.282 178.466 400.159 178.466 400.031V395.634C178.467 395.506 178.519 395.385 178.61 395.296C178.7 395.206 178.823 395.157 178.95 395.157H180.015C180.079 395.157 180.142 395.169 180.201 395.193C180.259 395.217 180.313 395.253 180.358 395.297C180.403 395.342 180.439 395.395 180.463 395.454C180.487 395.513 180.5 395.576 180.5 395.639L180.505 400.031Z" fill="#E8E8E8"/>
<path d="M137.348 398.602C137.348 398.797 137.27 398.984 137.132 399.121C136.994 399.259 136.807 399.337 136.613 399.337H134.954C134.857 399.337 134.761 399.318 134.672 399.281C134.583 399.245 134.502 399.19 134.433 399.122C134.365 399.054 134.311 398.973 134.274 398.883C134.237 398.794 134.218 398.698 134.219 398.602V391.916C134.218 391.819 134.237 391.723 134.274 391.634C134.311 391.545 134.365 391.463 134.433 391.395C134.501 391.326 134.582 391.272 134.672 391.235C134.761 391.198 134.857 391.179 134.954 391.179H136.613C136.808 391.179 136.995 391.257 137.132 391.396C137.27 391.534 137.348 391.721 137.348 391.916V398.602Z" fill="#E8E8E8"/>
<path d="M179.483 451.98C179.483 452.365 179.407 452.745 179.26 453.101C179.113 453.456 178.897 453.779 178.625 454.051C178.353 454.322 178.03 454.538 177.675 454.685C177.319 454.832 176.939 454.908 176.554 454.908H138.386C138.002 454.908 137.621 454.833 137.267 454.686C136.912 454.539 136.59 454.323 136.319 454.051C136.048 453.778 135.833 453.455 135.688 453.1C135.542 452.745 135.468 452.364 135.47 451.98V375.592C135.47 374.818 135.777 374.075 136.323 373.526C136.87 372.978 137.611 372.668 138.386 372.664H176.554C176.939 372.664 177.319 372.74 177.675 372.887C178.03 373.034 178.353 373.25 178.625 373.522C178.897 373.793 179.113 374.116 179.26 374.471C179.407 374.827 179.483 375.207 179.483 375.592V451.98Z" fill="white"/>
<path d="M137.073 453.42V377.032C137.073 376.258 137.38 375.515 137.926 374.966C138.473 374.418 139.214 374.108 139.989 374.104H178.167C178.509 374.105 178.848 374.166 179.169 374.285C178.929 373.799 178.557 373.39 178.096 373.104C177.636 372.818 177.104 372.667 176.562 372.667H138.386C137.611 372.671 136.87 372.981 136.323 373.529C135.777 374.078 135.47 374.821 135.47 375.595V451.983C135.472 452.579 135.656 453.16 135.998 453.648C136.339 454.137 136.821 454.509 137.379 454.717C137.178 454.314 137.073 453.87 137.073 453.42Z" fill="#E8E8E8"/>
<path d="M176.596 378.635H138.349V444.938H176.596V378.635Z" fill="#474747"/>
<path d="M176.317 378.635V444.635H138.349V444.936H176.596V378.635H176.317Z" fill="#2B2B2B"/>
<path d="M176.197 375.656C176.197 375.861 176.136 376.061 176.022 376.232C175.908 376.402 175.747 376.535 175.557 376.613C175.368 376.691 175.16 376.712 174.959 376.672C174.758 376.632 174.573 376.533 174.429 376.389C174.284 376.244 174.185 376.059 174.145 375.858C174.105 375.658 174.126 375.449 174.204 375.26C174.282 375.071 174.415 374.909 174.586 374.796C174.756 374.682 174.956 374.621 175.161 374.621C175.297 374.621 175.432 374.648 175.557 374.7C175.683 374.752 175.797 374.828 175.893 374.924C175.99 375.021 176.066 375.135 176.118 375.26C176.17 375.386 176.197 375.52 176.197 375.656Z" fill="#5B5B5B"/>
<path d="M173.606 375.656C173.606 375.739 173.582 375.82 173.536 375.888C173.49 375.957 173.424 376.011 173.348 376.042C173.272 376.074 173.188 376.082 173.107 376.066C173.025 376.05 172.951 376.01 172.892 375.952C172.834 375.893 172.794 375.819 172.778 375.738C172.762 375.657 172.77 375.573 172.802 375.496C172.833 375.42 172.887 375.355 172.956 375.309C173.025 375.263 173.105 375.238 173.188 375.238C173.299 375.238 173.405 375.282 173.484 375.361C173.562 375.439 173.606 375.545 173.606 375.656Z" fill="#5B5B5B"/>
<path d="M163.163 450.083C163.162 450.351 163.108 450.616 163.004 450.864C162.9 451.111 162.749 451.336 162.558 451.525C162.367 451.714 162.141 451.863 161.893 451.964C161.644 452.066 161.378 452.117 161.11 452.116H153.83C153.561 452.116 153.296 452.064 153.048 451.961C152.799 451.859 152.574 451.709 152.384 451.519C152.194 451.329 152.043 451.104 151.941 450.856C151.838 450.609 151.785 450.343 151.785 450.075C151.786 449.533 152.001 449.014 152.385 448.631C152.768 448.248 153.288 448.033 153.83 448.033H161.11C161.652 448.033 162.172 448.248 162.555 448.631C162.938 449.014 163.154 449.533 163.155 450.075L163.163 450.083Z" fill="url(#paint0_linear_106_584)"/>
<path d="M161.11 452.22H153.83C153.263 452.22 152.719 451.995 152.318 451.594C151.917 451.193 151.692 450.649 151.692 450.083C151.692 449.516 151.917 448.972 152.318 448.571C152.719 448.17 153.263 447.945 153.83 447.945H161.11C161.677 447.945 162.221 448.17 162.622 448.571C163.023 448.972 163.248 449.516 163.248 450.083C163.248 450.649 163.023 451.193 162.622 451.594C162.221 451.995 161.677 452.22 161.11 452.22ZM153.822 448.137C153.306 448.137 152.811 448.342 152.445 448.707C152.08 449.072 151.875 449.567 151.875 450.083C151.875 450.599 152.08 451.094 152.445 451.458C152.811 451.823 153.306 452.028 153.822 452.028H161.11C161.626 452.028 162.121 451.823 162.486 451.458C162.851 451.094 163.056 450.599 163.056 450.083C163.056 449.567 162.851 449.072 162.486 448.707C162.121 448.342 161.626 448.137 161.11 448.137H153.822Z" fill="#8C8C8C"/>
<path d="M162.425 376.261C162.425 376.532 162.318 376.792 162.126 376.983C161.934 377.175 161.674 377.283 161.403 377.283H153.324C153.19 377.283 153.057 377.257 152.932 377.206C152.808 377.154 152.695 377.079 152.6 376.984C152.505 376.889 152.43 376.776 152.379 376.652C152.327 376.528 152.301 376.395 152.302 376.261C152.302 376.127 152.328 375.994 152.379 375.87C152.431 375.746 152.506 375.634 152.601 375.539C152.696 375.444 152.809 375.369 152.933 375.318C153.057 375.267 153.19 375.241 153.324 375.241H161.403C161.673 375.241 161.933 375.349 162.125 375.54C162.317 375.731 162.425 375.99 162.425 376.261Z" fill="#E5E5E5"/>
</g>
<defs>
<linearGradient id="paint0_linear_106_584" x1="151.785" y1="450.083" x2="163.163" y2="450.083" gradientUnits="userSpaceOnUse">
<stop stop-color="white" stop-opacity="0.9"/>
<stop offset="0.16" stop-color="white" stop-opacity="0.67"/>
<stop offset="0.31" stop-color="white" stop-opacity="0.47"/>
<stop offset="0.47" stop-color="white" stop-opacity="0.3"/>
<stop offset="0.62" stop-color="white" stop-opacity="0.17"/>
<stop offset="0.76" stop-color="white" stop-opacity="0.08"/>
<stop offset="0.89" stop-color="white" stop-opacity="0.02"/>
<stop offset="1" stop-color="white" stop-opacity="0"/>
</linearGradient>
<clipPath id="clip0_106_584">
<rect width="515" height="464" fill="white"/>
</clipPath>
</defs>
</svg>
